<mxfile host="app.diagrams.net" agent="Mozilla/5.0 (Macintosh; Intel Mac OS X 10_15_7) AppleWebKit/537.36 (KHTML, like Gecko) Chrome/131.0.0.0 Safari/537.36" version="25.0.3">
  <diagram name="Page-1" id="qvOi5eOCe_9vcDBxOhh3">
    <mxGraphModel dx="1255" dy="929" grid="1" gridSize="10" guides="1" tooltips="1" connect="1" arrows="1" fold="1" page="1" pageScale="1" pageWidth="1100" pageHeight="1200" math="0" shadow="0">
      <root>
        <mxCell id="0" />
        <mxCell id="1" parent="0" />
        <mxCell id="HIfz95Fh0vZ95EKHTSMD-1" value="" style="rounded=1;whiteSpace=wrap;html=1;fillColor=#d5e8d4;strokeColor=#82b366;" vertex="1" parent="1">
          <mxGeometry x="95" y="70" width="910" height="630" as="geometry" />
        </mxCell>
        <mxCell id="HIfz95Fh0vZ95EKHTSMD-2" value="" style="rounded=1;whiteSpace=wrap;html=1;direction=south;" vertex="1" parent="1">
          <mxGeometry x="145" y="150" width="130" height="500" as="geometry" />
        </mxCell>
        <mxCell id="HIfz95Fh0vZ95EKHTSMD-3" value="" style="rounded=1;whiteSpace=wrap;html=1;direction=south;" vertex="1" parent="1">
          <mxGeometry x="315" y="150" width="130" height="500" as="geometry" />
        </mxCell>
        <mxCell id="HIfz95Fh0vZ95EKHTSMD-4" value="" style="rounded=1;whiteSpace=wrap;html=1;direction=south;" vertex="1" parent="1">
          <mxGeometry x="485" y="150" width="130" height="500" as="geometry" />
        </mxCell>
        <mxCell id="HIfz95Fh0vZ95EKHTSMD-5" value="" style="rounded=1;whiteSpace=wrap;html=1;direction=south;" vertex="1" parent="1">
          <mxGeometry x="655" y="150" width="130" height="500" as="geometry" />
        </mxCell>
        <mxCell id="HIfz95Fh0vZ95EKHTSMD-6" value="" style="rounded=1;whiteSpace=wrap;html=1;direction=south;" vertex="1" parent="1">
          <mxGeometry x="825" y="150" width="130" height="500" as="geometry" />
        </mxCell>
        <mxCell id="HIfz95Fh0vZ95EKHTSMD-7" value="&lt;font style=&quot;font-size: 20px;&quot;&gt;PlayerQueue.rotate()&lt;/font&gt;" style="rounded=0;whiteSpace=wrap;html=1;fillColor=#f8cecc;strokeColor=#b85450;dashed=1;dashPattern=1 4;" vertex="1" parent="1">
          <mxGeometry x="433" y="90" width="235" height="40" as="geometry" />
        </mxCell>
        <mxCell id="HIfz95Fh0vZ95EKHTSMD-8" value="playerQueue = [" style="text;html=1;align=center;verticalAlign=middle;resizable=0;points=[];autosize=1;strokeColor=none;fillColor=none;fontSize=14;" vertex="1" parent="1">
          <mxGeometry x="150" y="175" width="120" height="30" as="geometry" />
        </mxCell>
        <mxCell id="HIfz95Fh0vZ95EKHTSMD-9" value="]" style="text;html=1;align=center;verticalAlign=middle;resizable=0;points=[];autosize=1;strokeColor=none;fillColor=none;fontSize=14;" vertex="1" parent="1">
          <mxGeometry x="155" y="595" width="30" height="30" as="geometry" />
        </mxCell>
        <mxCell id="HIfz95Fh0vZ95EKHTSMD-10" value="playerQueue = [" style="text;html=1;align=center;verticalAlign=middle;resizable=0;points=[];autosize=1;strokeColor=none;fillColor=none;fontSize=14;" vertex="1" parent="1">
          <mxGeometry x="320" y="175" width="120" height="30" as="geometry" />
        </mxCell>
        <mxCell id="HIfz95Fh0vZ95EKHTSMD-11" value="]" style="text;html=1;align=center;verticalAlign=middle;resizable=0;points=[];autosize=1;strokeColor=none;fillColor=none;fontSize=14;" vertex="1" parent="1">
          <mxGeometry x="325" y="595" width="30" height="30" as="geometry" />
        </mxCell>
        <mxCell id="HIfz95Fh0vZ95EKHTSMD-12" value="playerQueue = [" style="text;html=1;align=center;verticalAlign=middle;resizable=0;points=[];autosize=1;strokeColor=none;fillColor=none;fontSize=14;" vertex="1" parent="1">
          <mxGeometry x="490" y="175" width="120" height="30" as="geometry" />
        </mxCell>
        <mxCell id="HIfz95Fh0vZ95EKHTSMD-13" value="]" style="text;html=1;align=center;verticalAlign=middle;resizable=0;points=[];autosize=1;strokeColor=none;fillColor=none;fontSize=14;" vertex="1" parent="1">
          <mxGeometry x="495" y="595" width="30" height="30" as="geometry" />
        </mxCell>
        <mxCell id="HIfz95Fh0vZ95EKHTSMD-14" value="playerQueue = [" style="text;html=1;align=center;verticalAlign=middle;resizable=0;points=[];autosize=1;strokeColor=none;fillColor=none;fontSize=14;" vertex="1" parent="1">
          <mxGeometry x="660" y="175" width="120" height="30" as="geometry" />
        </mxCell>
        <mxCell id="HIfz95Fh0vZ95EKHTSMD-15" value="]" style="text;html=1;align=center;verticalAlign=middle;resizable=0;points=[];autosize=1;strokeColor=none;fillColor=none;fontSize=14;" vertex="1" parent="1">
          <mxGeometry x="665" y="595" width="30" height="30" as="geometry" />
        </mxCell>
        <mxCell id="HIfz95Fh0vZ95EKHTSMD-16" value="playerQueue = [" style="text;html=1;align=center;verticalAlign=middle;resizable=0;points=[];autosize=1;strokeColor=none;fillColor=none;fontSize=14;" vertex="1" parent="1">
          <mxGeometry x="830" y="175" width="120" height="30" as="geometry" />
        </mxCell>
        <mxCell id="HIfz95Fh0vZ95EKHTSMD-17" value="]" style="text;html=1;align=center;verticalAlign=middle;resizable=0;points=[];autosize=1;strokeColor=none;fillColor=none;fontSize=14;" vertex="1" parent="1">
          <mxGeometry x="835" y="595" width="30" height="30" as="geometry" />
        </mxCell>
        <mxCell id="HIfz95Fh0vZ95EKHTSMD-18" value="" style="shape=image;verticalLabelPosition=bottom;labelBackgroundColor=default;verticalAlign=top;aspect=fixed;imageAspect=0;image=data:image/png,iVBORw0KGgoAAAANSUhEUgAAASwAAAD6CAYAAAAbbXrzAAAQQElEQVR4Xu2cTa5kRxGFn9umsRiAzAqQEGbsFdgDlgJjVuAG5B2wHyR7CR4CFiyBnwmWcRvyNl32o19V3czIiIyf/CyV5O53b0Tkd849yptd3W898B8EIACBJATeSjInY0IAAhB4ILAwAQQgkIYAgZVGKgaFAAQILDwAAQikIUBgpZGKQSEAAQILD0AAAmkIEFhppGJQCECAwMIDEIBAGgIEVhqpGBQCECCw8AAEIJCGAIGVRioGhQAECCw8AAEIpCFAYKWRikEhAAECCw9AAAJpCBBYaaRiUAhAgMDCAxCAQBoCBFYaqRgUAhAgsPAABCCQhgCBlUYqBoUABAgsPAABCKQhQGClkYpBIQABAgsPQAACaQgQWGmkYlAIQIDAwgMQgEAaAgRWGqkYFAIQILDwAAQgkIYAgZVGKgaFAAQILDwAAQikIUBgpZGKQSEAAQILD0AAAmkIEFhppGJQCECAwMIDEIBAGgIEVhqpGBQCECCw8AAEIJCGAIGVRioGhQAECCw8AAEIpCFAYKWRikEhAAECCw9AAAJpCBBYaaRiUAhAgMDCAxCAQBoCBFYaqRgUAhAgsPAABCCQhgCBlUYqBoUABAgsPAABCKQhQGClkYpBIQABAgsPQAACaQgQWGmkYlAIQIDAwgMQgEAaAgRWGqkYFAIQILDwAAQgkIYAgZVGKgaFAAQILDxwjcCH7TdftM8H7fOeAaKXreY7BnUpWZwAgVVcYMHyPm73/LZ9ngnuldzyTbvpbcmN3LMfAQJrP81vrfjL9oPn7ePtif8sDEvUT0bA25zJcJUbN0pIXQNLcJWz2/yCCKx5hhkrHK9hWbTnvCujw4xmzmJao+VvVTbybqpHCLzaQ6n4NZigrsCZdlEjKrDjGqFV7FoCq5igbTlVg+qxUpxv1fNt14oIrC5MKS76uk2509cD2GmlsKXukASWLk+Pav9oTX/o0ThAT0IrgAgrRyCwVtLW73U8sKu+4Kk/vV5FfKzHMnQlhA4tz93hjnOcSP8d8xyfntdSi3M2dluR3GA0C4FlBNaw7IqzqiN4vmqfdw3X8bi0VoBxGL9IMK82BJYXeVlfy13V6pC6RkBjfey0ZN5KcReBlUKmV0NqPMy3QiLSOZjGOvF1Hl8PTYqwQ7jcLtZ4iB8PH2E3dQ/m7Gsvvnazqm1jhLXlq1FdI6yynu1Iz7ayrlfDL6VrEFix5Z0NqwoPrnS3VWHtsd3pMB2B5QC9s6X0Qb2U/2f7nx919spwmSS8OYDPoOzAjATWAKzFl0oe0MuIVXWVvCJWZbHYjjHaIWYMHd6cQvJgHjV22FGMBjmvhjE9LpqKwBJhM79p9KE8BtpFS0mY78LG3JjeDRDSW4Gn/Qmrc01GGeHzc6YprkDIWDJJDtp31HCU046MYjlbaRqEVAKpVIadQz/IkVdDfN7PNfSVCBlHnpEH8Jiaw+T+v66Ez+P4fGoShJzCp3ozu6txnL3M8Pk425B3IGQcWXofvmPiHb6+0KNMLzN83kMzwTUIGUMkDpFlOhBYMm5p7yKwYkjX++Ad06LZd5r1coNZDJ9PT4GQ0winC4wetqMZgTVtuqwFML+/cr27hMukaEZg+bvWaQLM7wT+ddvRsOKw/f/16uWHz319rtYdIdVQDhcaPWjn/OopYgJr2Ha5byCw/PTrfdh4FbytUS9DfO7nc9XOCKmKs7vY6EE732q/jpbA6rZcjQsJLB8dex80dle39RkJfXzu43P1rgipjrSr4EhgcdA+t7vi7K/LkjkuIrB8dBoJLDQisHxcGrArD4OPKL2BhT7zB+6c//l43KQrD4QJ1tOiBNYporsXcH41xy/t3QSWj3QE1hz3Xn6cX81xDnc3geUjSe8Dhz5P9RnZXRFYPv4268oDYYb2bmECS869l93RgfMrOeeQdxJYPrL0PnTo81SfXnbsrny8bdqVB8IU783ivQ8d+sgDi92Vj7dNu/JAmOIlsJTxjpxf4W1l+BHKIaqPCuywZNx7ufE6KOMb/i4Cy0ei3gcPfb7Tp5fZ5Q7Y+XjbtCuimuLllVAJ7+i/Hcb5lRL4aGUILB9FencL6PPwMBpWvA76eHpJVx6IJZifNCGw+riPHLI/roiv+/imuwphfSTrDayddwuSndXBi3+Ox8fTS7oSWEswi3dYOx8gj4Q6uysfHy/vSmAtR/6qoeRh3EkrCZ+dd6M+LnboutND4ID3ZkvOZq6jkb4GElaR3G04C4FlCPektGQXUfl8RhrinFv5eXh5ZwJrOfJvG0p3ExU1k7K4vF4/85ORzisJVDT/Sn6zvSS7rEqvPzNBxc5q1n0J7yew/EXbNbRmXgEJK3/fukxAYLlgf9JUElqZ//rJ7M6q0i4zhgOTTEFgxRFKEloZdxqzOyvCKo5nl09CYC1HfrPh7K4jupaz67uAi77OOI4qOAnixxJVusuK/jDPrivjTjKWs4pMQ2DFE3L24Y6m6ex6CKt4HnWbKJq53UAEa6zxkHsfymu9AnqvI5g19h6HwIqrv0ZoeexOvmxNv6+EtfI3+5UQ7VWGwIqrt9YOZdX5lsaf/l1mJaji+tJ1MgLLFf9pc80QOJppv14du6nn7aPpI+0ZTyFzQR4CmkbLs+pck2rvtK6tfjQktIOUnVUuT7pNS2C5oRc11jrXEjU3vGk0MA1HoXRkAgRWZHWuz1YttPBgPg+6TYxZ3NCLG694RRQPN3gj/hsEtvvlGCanA6zOkFbR4E8BV5Eu1ofAyito1p0WnsvrOffJMY+7BKoDRD7fYlelKvWexQiserpH2nkdAfpV+7xbDzMr8iBAYHlQX9PT85yLryms0Xi7LgRWfclXBRe7qfpecl8hgeUugdsAWkHGbspNwv0aE1j7aX624t6De7xzRpKfqxPAdOpI0xcksNJLWHcBBFZdbaUrI7Ck5LjPnACBZY44XQMCK51k+wxMYO2jde9KCaxeUly3nACBtRx5+IYEVniJ9h2QwNpX+1srJ7DwRFgCBFZYadwGI7Dc0NP4jACBdUZov58TWPtpnmbFBFYaqZYNSmAtQ02jUQIE1iix+tcTWPU1TrtCAiutdGaDE1hmaCk8S4DAmiVY734Cq56mZVZEYJWRUm0hBJYaSgppEyCwtIna1Tv+JdFn7YNmDw9/bhx+1T6f2eGmckQCmD+iKv+bKdI/dRyV0os22CdRh2MufQIElj5TjYpa/7iexizRa3zETiu6RHrzEVh6LLUqsbMaI/mHdvkvxm7h6qwECKx4yvUeeseb3Geiv7W2P/ZpTdfVBAis1cTP+xFY54weX/H39ov3xm7h6qwECKx4yhFYY5rwSjjGK/XVBFY8+QisMU04dB/jlfpqAiuefBy692vC1xr6WZW4ksCKKSNfa7ivyxftx79sH744GtO/ZlMRWGZopwvf22kdr40v2+d7012eFuh9JcU7BvApeZ8ApsMhbxIgsPBEWAIEVlhp3AYjsNzQ0/iMAIF1Rmi/nxNY+2meZsUEVhqplg1KYC1DTaNRAgTWKLH61xNY9TVOu0ICK610ZoMTWGZoKTxLgMCaJVjvfgKrnqZlVkRglZFSbSEElhpKCmkTILC0ieavR2Dl17DsCgisstKKF0ZgidFxozUBAsuacL76BFY+zbaZmMDaRuruhRJY3ai4cDUBAms18fj9CKz4Gm07IYG1rfQ3F05g4YmwBAissNK4DUZguaGn8RkBAuuM0H4/J7D20zzNigmsNFItG5TAWoaaRqMECKxRYvWvJ7Dqa5x2hQRWWunMBiewzNBSeJYAgTVLsN79BFY9TcusiMAqI6XaQggsNZQU0iZAYGkTzV+PwMqvYdkVEFhlpRUvjMASo+NGawIEljXhfPUJrHyabTMxgbWN1N0LJbC6UXHhagIE1mri8fsRWPE12nZCAmtb6W8unMDCE2EJEFhhpXEbjMByQ0/jMwIE1hmh/X5OYO2neZoVE1hppFo2KIG1DDWNRgkQWKPE6l9PYNXXOO0KCay00pkNTmCZoaXwLAECa5ZgvfsJrHqallkRgVVGSrWFEFhqKCmkTYDA0iaavx6BlV/DsisgsMpKK14YgSVGx43WBAgsa8L56hNY+TTbZmICaxupuxdKYHWj4sLVBAis1cTj9vu6jfb2wHhHsD0buJ5LITBNgMCaRliiwDdtFRIvvGz3vVOCAItIQUBi0hQLY8huAqM7qzcLf9F+42fd3bgQAhMECKwJeEVu7T2zurdcfFTEDNGXgdGiK2Q/n0ZgHVPiJXuttu+Ayba3wINWYHEIj5fMCRBY5ohDN5Aett9aFIfwoeXOPxyBlV/DmRVo7a4ez8BOa0YR7r1LgMDa2yAWgXUQZae1t6/MVk9gmaENX9gqrC4Lx1vhLZBvQEyVTzONiUfD6viuluQLovhLQy1qfEsAQ+1nhtGwOggdPpHcx6vhfv4yXTGBZYo3XHFJ6FwCS/qNeDwWzgZ5B8JMebUbnVwaOI93SdKvQeCzUbW4/ioBjLSPMWZ2V48paQTfPtRZqSoBAksVZ8hi0oC5vApeW5S0Jt/RCmmRPEMRWHm0kkwqfYW7F1aXOaQ7Ng7iJUpyzysCBFZdI0h3QSO+kIYWvqvrO9OVYRxTvK7FV4SJNBTxnas18jbHOHm1O5t8RWAdM0j68Fp4ph4/v0qAwKppDEmIHCSkQSLth/9q+s9sVRjGDK1bYWl4zP4JnrQvHnSzSr7GmCWfZvcmloaGdGf15izS/viwlg/NVoNRzNAuLxwhLKSH8FqBuRw6DdcSILDW8rboJg2JmTMri10eXrRwR7GamCS3oNJd1WXVVvpL5po9Q8utJNN3EbAybFdzLpoiIAmFxw0ttZfu+ng1nLJE/ZstTVufnt8KI4fVhYr0rwWx0/LzVfjOBFZ4iZ4MKN29WL8GXiMpnZWdVj5fLpmYwFqCWbXJzO7KQ2/pvB6zqgpFMX0CmEKfqWVF6WvWMZPXrkW6yzpmxp+WbkpYG0PkEW3mwfd++KW7LO+587hjk0kJrBxCz+ysojz00tD6V1vAD3LIxJTWBAgsa8Lz9Y9XuWfCMl6vgbfGlYbWX1rBnwoZcFshAgRWbDE/beN9KBwxqrbS0Pp94/BrIQtuK0IgqqmL4J1ehvThjrazegxCehb371bk+TRRCqQmQGDFlk8aWNF1lZ7JRV9XbDcVmA4DxBZRElhZNJWEVpa1xXZV4ukwQGzxRgMrm54jr4f8lZ3YXl0yXTaDL4ESqMlIYGXVsnen9aemy88DacMoDgSymtwBlUvLP7au7590jnzA3gut56sbH7Vin/UW5LqaBAis2LoeX2n49GTEKg/yX9s6f3JjrS/a738SWyqmW0GAwFpBea7Hx+3237XPNa2qPchHQP+mfT54jezz179mZzXnoTJ3E1g5pORBzqETUxoTILCMAVMeAhDQI0Bg6bGkEgQgYEyAwDIGTHkIQECPAIGlx5JKEICAMQECyxgw5SEAAT0CBJYeSypBAALGBAgsY8CUhwAE9AgQWHosqQQBCBgTILCMAVMeAhDQI0Bg6bGkEgQgYEyAwDIGTHkIQECPwH8BAHORCsotNpUAAAAASUVORK5CYII=;" vertex="1" parent="1">
          <mxGeometry x="162" y="240" width="96" height="80" as="geometry" />
        </mxCell>
        <mxCell id="HIfz95Fh0vZ95EKHTSMD-19" value="" style="shape=image;verticalLabelPosition=bottom;labelBackgroundColor=default;verticalAlign=top;aspect=fixed;imageAspect=0;image=data:image/png,iVBORw0KGgoAAAANSUhEUgAAASwAAAD6CAYAAAAbbXrzAAAQQElEQVR4Xu2cTa5kRxGFn9umsRiAzAqQEGbsFdgDlgJjVuAG5B2wHyR7CR4CFiyBnwmWcRvyNl32o19V3czIiIyf/CyV5O53b0Tkd849yptd3W898B8EIACBJATeSjInY0IAAhB4ILAwAQQgkIYAgZVGKgaFAAQILDwAAQikIUBgpZGKQSEAAQILD0AAAmkIEFhppGJQCECAwMIDEIBAGgIEVhqpGBQCECCw8AAEIJCGAIGVRioGhQAECCw8AAEIpCFAYKWRikEhAAECCw9AAAJpCBBYaaRiUAhAgMDCAxCAQBoCBFYaqRgUAhAgsPAABCCQhgCBlUYqBoUABAgsPAABCKQhQGClkYpBIQABAgsPQAACaQgQWGmkYlAIQIDAwgMQgEAaAgRWGqkYFAIQILDwAAQgkIYAgZVGKgaFAAQILDwAAQikIUBgpZGKQSEAAQILD0AAAmkIEFhppGJQCECAwMIDEIBAGgIEVhqpGBQCECCw8AAEIJCGAIGVRioGhQAECCw8AAEIpCFAYKWRikEhAAECCw9AAAJpCBBYaaRiUAhAgMDCAxCAQBoCBFYaqRgUAhAgsPAABCCQhgCBlUYqBoUABAgsPAABCKQhQGClkYpBIQABAgsPQAACaQgQWGmkYlAIQIDAwgMQgEAaAgRWGqkYFAIQILDwAAQgkIYAgZVGKgaFAAQILDxwjcCH7TdftM8H7fOeAaKXreY7BnUpWZwAgVVcYMHyPm73/LZ9ngnuldzyTbvpbcmN3LMfAQJrP81vrfjL9oPn7ePtif8sDEvUT0bA25zJcJUbN0pIXQNLcJWz2/yCCKx5hhkrHK9hWbTnvCujw4xmzmJao+VvVTbybqpHCLzaQ6n4NZigrsCZdlEjKrDjGqFV7FoCq5igbTlVg+qxUpxv1fNt14oIrC5MKS76uk2509cD2GmlsKXukASWLk+Pav9oTX/o0ThAT0IrgAgrRyCwVtLW73U8sKu+4Kk/vV5FfKzHMnQlhA4tz93hjnOcSP8d8xyfntdSi3M2dluR3GA0C4FlBNaw7IqzqiN4vmqfdw3X8bi0VoBxGL9IMK82BJYXeVlfy13V6pC6RkBjfey0ZN5KcReBlUKmV0NqPMy3QiLSOZjGOvF1Hl8PTYqwQ7jcLtZ4iB8PH2E3dQ/m7Gsvvnazqm1jhLXlq1FdI6yynu1Iz7ayrlfDL6VrEFix5Z0NqwoPrnS3VWHtsd3pMB2B5QC9s6X0Qb2U/2f7nx919spwmSS8OYDPoOzAjATWAKzFl0oe0MuIVXWVvCJWZbHYjjHaIWYMHd6cQvJgHjV22FGMBjmvhjE9LpqKwBJhM79p9KE8BtpFS0mY78LG3JjeDRDSW4Gn/Qmrc01GGeHzc6YprkDIWDJJDtp31HCU046MYjlbaRqEVAKpVIadQz/IkVdDfN7PNfSVCBlHnpEH8Jiaw+T+v66Ez+P4fGoShJzCp3ozu6txnL3M8Pk425B3IGQcWXofvmPiHb6+0KNMLzN83kMzwTUIGUMkDpFlOhBYMm5p7yKwYkjX++Ad06LZd5r1coNZDJ9PT4GQ0winC4wetqMZgTVtuqwFML+/cr27hMukaEZg+bvWaQLM7wT+ddvRsOKw/f/16uWHz319rtYdIdVQDhcaPWjn/OopYgJr2Ha5byCw/PTrfdh4FbytUS9DfO7nc9XOCKmKs7vY6EE732q/jpbA6rZcjQsJLB8dex80dle39RkJfXzu43P1rgipjrSr4EhgcdA+t7vi7K/LkjkuIrB8dBoJLDQisHxcGrArD4OPKL2BhT7zB+6c//l43KQrD4QJ1tOiBNYporsXcH41xy/t3QSWj3QE1hz3Xn6cX81xDnc3geUjSe8Dhz5P9RnZXRFYPv4268oDYYb2bmECS869l93RgfMrOeeQdxJYPrL0PnTo81SfXnbsrny8bdqVB8IU783ivQ8d+sgDi92Vj7dNu/JAmOIlsJTxjpxf4W1l+BHKIaqPCuywZNx7ufE6KOMb/i4Cy0ei3gcPfb7Tp5fZ5Q7Y+XjbtCuimuLllVAJ7+i/Hcb5lRL4aGUILB9FencL6PPwMBpWvA76eHpJVx6IJZifNCGw+riPHLI/roiv+/imuwphfSTrDayddwuSndXBi3+Ox8fTS7oSWEswi3dYOx8gj4Q6uysfHy/vSmAtR/6qoeRh3EkrCZ+dd6M+LnboutND4ID3ZkvOZq6jkb4GElaR3G04C4FlCPektGQXUfl8RhrinFv5eXh5ZwJrOfJvG0p3ExU1k7K4vF4/85ORzisJVDT/Sn6zvSS7rEqvPzNBxc5q1n0J7yew/EXbNbRmXgEJK3/fukxAYLlgf9JUElqZ//rJ7M6q0i4zhgOTTEFgxRFKEloZdxqzOyvCKo5nl09CYC1HfrPh7K4jupaz67uAi77OOI4qOAnixxJVusuK/jDPrivjTjKWs4pMQ2DFE3L24Y6m6ex6CKt4HnWbKJq53UAEa6zxkHsfymu9AnqvI5g19h6HwIqrv0ZoeexOvmxNv6+EtfI3+5UQ7VWGwIqrt9YOZdX5lsaf/l1mJaji+tJ1MgLLFf9pc80QOJppv14du6nn7aPpI+0ZTyFzQR4CmkbLs+pck2rvtK6tfjQktIOUnVUuT7pNS2C5oRc11jrXEjU3vGk0MA1HoXRkAgRWZHWuz1YttPBgPg+6TYxZ3NCLG694RRQPN3gj/hsEtvvlGCanA6zOkFbR4E8BV5Eu1ofAyito1p0WnsvrOffJMY+7BKoDRD7fYlelKvWexQiserpH2nkdAfpV+7xbDzMr8iBAYHlQX9PT85yLryms0Xi7LgRWfclXBRe7qfpecl8hgeUugdsAWkHGbspNwv0aE1j7aX624t6De7xzRpKfqxPAdOpI0xcksNJLWHcBBFZdbaUrI7Ck5LjPnACBZY44XQMCK51k+wxMYO2jde9KCaxeUly3nACBtRx5+IYEVniJ9h2QwNpX+1srJ7DwRFgCBFZYadwGI7Dc0NP4jACBdUZov58TWPtpnmbFBFYaqZYNSmAtQ02jUQIE1iix+tcTWPU1TrtCAiutdGaDE1hmaCk8S4DAmiVY734Cq56mZVZEYJWRUm0hBJYaSgppEyCwtIna1Tv+JdFn7YNmDw9/bhx+1T6f2eGmckQCmD+iKv+bKdI/dRyV0os22CdRh2MufQIElj5TjYpa/7iexizRa3zETiu6RHrzEVh6LLUqsbMaI/mHdvkvxm7h6qwECKx4yvUeeseb3Geiv7W2P/ZpTdfVBAis1cTP+xFY54weX/H39ov3xm7h6qwECKx4yhFYY5rwSjjGK/XVBFY8+QisMU04dB/jlfpqAiuefBy692vC1xr6WZW4ksCKKSNfa7ivyxftx79sH744GtO/ZlMRWGZopwvf22kdr40v2+d7012eFuh9JcU7BvApeZ8ApsMhbxIgsPBEWAIEVlhp3AYjsNzQ0/iMAIF1Rmi/nxNY+2meZsUEVhqplg1KYC1DTaNRAgTWKLH61xNY9TVOu0ICK610ZoMTWGZoKTxLgMCaJVjvfgKrnqZlVkRglZFSbSEElhpKCmkTILC0ieavR2Dl17DsCgisstKKF0ZgidFxozUBAsuacL76BFY+zbaZmMDaRuruhRJY3ai4cDUBAms18fj9CKz4Gm07IYG1rfQ3F05g4YmwBAissNK4DUZguaGn8RkBAuuM0H4/J7D20zzNigmsNFItG5TAWoaaRqMECKxRYvWvJ7Dqa5x2hQRWWunMBiewzNBSeJYAgTVLsN79BFY9TcusiMAqI6XaQggsNZQU0iZAYGkTzV+PwMqvYdkVEFhlpRUvjMASo+NGawIEljXhfPUJrHyabTMxgbWN1N0LJbC6UXHhagIE1mri8fsRWPE12nZCAmtb6W8unMDCE2EJEFhhpXEbjMByQ0/jMwIE1hmh/X5OYO2neZoVE1hppFo2KIG1DDWNRgkQWKPE6l9PYNXXOO0KCay00pkNTmCZoaXwLAECa5ZgvfsJrHqallkRgVVGSrWFEFhqKCmkTYDA0iaavx6BlV/DsisgsMpKK14YgSVGx43WBAgsa8L56hNY+TTbZmICaxupuxdKYHWj4sLVBAis1cTj9vu6jfb2wHhHsD0buJ5LITBNgMCaRliiwDdtFRIvvGz3vVOCAItIQUBi0hQLY8huAqM7qzcLf9F+42fd3bgQAhMECKwJeEVu7T2zurdcfFTEDNGXgdGiK2Q/n0ZgHVPiJXuttu+Ayba3wINWYHEIj5fMCRBY5ohDN5Aett9aFIfwoeXOPxyBlV/DmRVo7a4ez8BOa0YR7r1LgMDa2yAWgXUQZae1t6/MVk9gmaENX9gqrC4Lx1vhLZBvQEyVTzONiUfD6viuluQLovhLQy1qfEsAQ+1nhtGwOggdPpHcx6vhfv4yXTGBZYo3XHFJ6FwCS/qNeDwWzgZ5B8JMebUbnVwaOI93SdKvQeCzUbW4/ioBjLSPMWZ2V48paQTfPtRZqSoBAksVZ8hi0oC5vApeW5S0Jt/RCmmRPEMRWHm0kkwqfYW7F1aXOaQ7Ng7iJUpyzysCBFZdI0h3QSO+kIYWvqvrO9OVYRxTvK7FV4SJNBTxnas18jbHOHm1O5t8RWAdM0j68Fp4ph4/v0qAwKppDEmIHCSkQSLth/9q+s9sVRjGDK1bYWl4zP4JnrQvHnSzSr7GmCWfZvcmloaGdGf15izS/viwlg/NVoNRzNAuLxwhLKSH8FqBuRw6DdcSILDW8rboJg2JmTMri10eXrRwR7GamCS3oNJd1WXVVvpL5po9Q8utJNN3EbAybFdzLpoiIAmFxw0ttZfu+ng1nLJE/ZstTVufnt8KI4fVhYr0rwWx0/LzVfjOBFZ4iZ4MKN29WL8GXiMpnZWdVj5fLpmYwFqCWbXJzO7KQ2/pvB6zqgpFMX0CmEKfqWVF6WvWMZPXrkW6yzpmxp+WbkpYG0PkEW3mwfd++KW7LO+587hjk0kJrBxCz+ysojz00tD6V1vAD3LIxJTWBAgsa8Lz9Y9XuWfCMl6vgbfGlYbWX1rBnwoZcFshAgRWbDE/beN9KBwxqrbS0Pp94/BrIQtuK0IgqqmL4J1ehvThjrazegxCehb371bk+TRRCqQmQGDFlk8aWNF1lZ7JRV9XbDcVmA4DxBZRElhZNJWEVpa1xXZV4ukwQGzxRgMrm54jr4f8lZ3YXl0yXTaDL4ESqMlIYGXVsnen9aemy88DacMoDgSymtwBlUvLP7au7590jnzA3gut56sbH7Vin/UW5LqaBAis2LoeX2n49GTEKg/yX9s6f3JjrS/a738SWyqmW0GAwFpBea7Hx+3237XPNa2qPchHQP+mfT54jezz179mZzXnoTJ3E1g5pORBzqETUxoTILCMAVMeAhDQI0Bg6bGkEgQgYEyAwDIGTHkIQECPAIGlx5JKEICAMQECyxgw5SEAAT0CBJYeSypBAALGBAgsY8CUhwAE9AgQWHosqQQBCBgTILCMAVMeAhDQI0Bg6bGkEgQgYEyAwDIGTHkIQECPwH8BAHORCsotNpUAAAAASUVORK5CYII=;" vertex="1" parent="1">
          <mxGeometry x="162" y="320" width="96" height="80" as="geometry" />
        </mxCell>
        <mxCell id="HIfz95Fh0vZ95EKHTSMD-20" value="" style="shape=image;verticalLabelPosition=bottom;labelBackgroundColor=default;verticalAlign=top;aspect=fixed;imageAspect=0;image=data:image/png,iVBORw0KGgoAAAANSUhEUgAAASwAAAD6CAYAAAAbbXrzAAAQQElEQVR4Xu2cTa5kRxGFn9umsRiAzAqQEGbsFdgDlgJjVuAG5B2wHyR7CR4CFiyBnwmWcRvyNl32o19V3czIiIyf/CyV5O53b0Tkd849yptd3W898B8EIACBJATeSjInY0IAAhB4ILAwAQQgkIYAgZVGKgaFAAQILDwAAQikIUBgpZGKQSEAAQILD0AAAmkIEFhppGJQCECAwMIDEIBAGgIEVhqpGBQCECCw8AAEIJCGAIGVRioGhQAECCw8AAEIpCFAYKWRikEhAAECCw9AAAJpCBBYaaRiUAhAgMDCAxCAQBoCBFYaqRgUAhAgsPAABCCQhgCBlUYqBoUABAgsPAABCKQhQGClkYpBIQABAgsPQAACaQgQWGmkYlAIQIDAwgMQgEAaAgRWGqkYFAIQILDwAAQgkIYAgZVGKgaFAAQILDwAAQikIUBgpZGKQSEAAQILD0AAAmkIEFhppGJQCECAwMIDEIBAGgIEVhqpGBQCECCw8AAEIJCGAIGVRioGhQAECCw8AAEIpCFAYKWRikEhAAECCw9AAAJpCBBYaaRiUAhAgMDCAxCAQBoCBFYaqRgUAhAgsPAABCCQhgCBlUYqBoUABAgsPAABCKQhQGClkYpBIQABAgsPQAACaQgQWGmkYlAIQIDAwgMQgEAaAgRWGqkYFAIQILDwAAQgkIYAgZVGKgaFAAQILDxwjcCH7TdftM8H7fOeAaKXreY7BnUpWZwAgVVcYMHyPm73/LZ9ngnuldzyTbvpbcmN3LMfAQJrP81vrfjL9oPn7ePtif8sDEvUT0bA25zJcJUbN0pIXQNLcJWz2/yCCKx5hhkrHK9hWbTnvCujw4xmzmJao+VvVTbybqpHCLzaQ6n4NZigrsCZdlEjKrDjGqFV7FoCq5igbTlVg+qxUpxv1fNt14oIrC5MKS76uk2509cD2GmlsKXukASWLk+Pav9oTX/o0ThAT0IrgAgrRyCwVtLW73U8sKu+4Kk/vV5FfKzHMnQlhA4tz93hjnOcSP8d8xyfntdSi3M2dluR3GA0C4FlBNaw7IqzqiN4vmqfdw3X8bi0VoBxGL9IMK82BJYXeVlfy13V6pC6RkBjfey0ZN5KcReBlUKmV0NqPMy3QiLSOZjGOvF1Hl8PTYqwQ7jcLtZ4iB8PH2E3dQ/m7Gsvvnazqm1jhLXlq1FdI6yynu1Iz7ayrlfDL6VrEFix5Z0NqwoPrnS3VWHtsd3pMB2B5QC9s6X0Qb2U/2f7nx919spwmSS8OYDPoOzAjATWAKzFl0oe0MuIVXWVvCJWZbHYjjHaIWYMHd6cQvJgHjV22FGMBjmvhjE9LpqKwBJhM79p9KE8BtpFS0mY78LG3JjeDRDSW4Gn/Qmrc01GGeHzc6YprkDIWDJJDtp31HCU046MYjlbaRqEVAKpVIadQz/IkVdDfN7PNfSVCBlHnpEH8Jiaw+T+v66Ez+P4fGoShJzCp3ozu6txnL3M8Pk425B3IGQcWXofvmPiHb6+0KNMLzN83kMzwTUIGUMkDpFlOhBYMm5p7yKwYkjX++Ad06LZd5r1coNZDJ9PT4GQ0winC4wetqMZgTVtuqwFML+/cr27hMukaEZg+bvWaQLM7wT+ddvRsOKw/f/16uWHz319rtYdIdVQDhcaPWjn/OopYgJr2Ha5byCw/PTrfdh4FbytUS9DfO7nc9XOCKmKs7vY6EE732q/jpbA6rZcjQsJLB8dex80dle39RkJfXzu43P1rgipjrSr4EhgcdA+t7vi7K/LkjkuIrB8dBoJLDQisHxcGrArD4OPKL2BhT7zB+6c//l43KQrD4QJ1tOiBNYporsXcH41xy/t3QSWj3QE1hz3Xn6cX81xDnc3geUjSe8Dhz5P9RnZXRFYPv4268oDYYb2bmECS869l93RgfMrOeeQdxJYPrL0PnTo81SfXnbsrny8bdqVB8IU783ivQ8d+sgDi92Vj7dNu/JAmOIlsJTxjpxf4W1l+BHKIaqPCuywZNx7ufE6KOMb/i4Cy0ei3gcPfb7Tp5fZ5Q7Y+XjbtCuimuLllVAJ7+i/Hcb5lRL4aGUILB9FencL6PPwMBpWvA76eHpJVx6IJZifNCGw+riPHLI/roiv+/imuwphfSTrDayddwuSndXBi3+Ox8fTS7oSWEswi3dYOx8gj4Q6uysfHy/vSmAtR/6qoeRh3EkrCZ+dd6M+LnboutND4ID3ZkvOZq6jkb4GElaR3G04C4FlCPektGQXUfl8RhrinFv5eXh5ZwJrOfJvG0p3ExU1k7K4vF4/85ORzisJVDT/Sn6zvSS7rEqvPzNBxc5q1n0J7yew/EXbNbRmXgEJK3/fukxAYLlgf9JUElqZ//rJ7M6q0i4zhgOTTEFgxRFKEloZdxqzOyvCKo5nl09CYC1HfrPh7K4jupaz67uAi77OOI4qOAnixxJVusuK/jDPrivjTjKWs4pMQ2DFE3L24Y6m6ex6CKt4HnWbKJq53UAEa6zxkHsfymu9AnqvI5g19h6HwIqrv0ZoeexOvmxNv6+EtfI3+5UQ7VWGwIqrt9YOZdX5lsaf/l1mJaji+tJ1MgLLFf9pc80QOJppv14du6nn7aPpI+0ZTyFzQR4CmkbLs+pck2rvtK6tfjQktIOUnVUuT7pNS2C5oRc11jrXEjU3vGk0MA1HoXRkAgRWZHWuz1YttPBgPg+6TYxZ3NCLG694RRQPN3gj/hsEtvvlGCanA6zOkFbR4E8BV5Eu1ofAyito1p0WnsvrOffJMY+7BKoDRD7fYlelKvWexQiserpH2nkdAfpV+7xbDzMr8iBAYHlQX9PT85yLryms0Xi7LgRWfclXBRe7qfpecl8hgeUugdsAWkHGbspNwv0aE1j7aX624t6De7xzRpKfqxPAdOpI0xcksNJLWHcBBFZdbaUrI7Ck5LjPnACBZY44XQMCK51k+wxMYO2jde9KCaxeUly3nACBtRx5+IYEVniJ9h2QwNpX+1srJ7DwRFgCBFZYadwGI7Dc0NP4jACBdUZov58TWPtpnmbFBFYaqZYNSmAtQ02jUQIE1iix+tcTWPU1TrtCAiutdGaDE1hmaCk8S4DAmiVY734Cq56mZVZEYJWRUm0hBJYaSgppEyCwtIna1Tv+JdFn7YNmDw9/bhx+1T6f2eGmckQCmD+iKv+bKdI/dRyV0os22CdRh2MufQIElj5TjYpa/7iexizRa3zETiu6RHrzEVh6LLUqsbMaI/mHdvkvxm7h6qwECKx4yvUeeseb3Geiv7W2P/ZpTdfVBAis1cTP+xFY54weX/H39ov3xm7h6qwECKx4yhFYY5rwSjjGK/XVBFY8+QisMU04dB/jlfpqAiuefBy692vC1xr6WZW4ksCKKSNfa7ivyxftx79sH744GtO/ZlMRWGZopwvf22kdr40v2+d7012eFuh9JcU7BvApeZ8ApsMhbxIgsPBEWAIEVlhp3AYjsNzQ0/iMAIF1Rmi/nxNY+2meZsUEVhqplg1KYC1DTaNRAgTWKLH61xNY9TVOu0ICK610ZoMTWGZoKTxLgMCaJVjvfgKrnqZlVkRglZFSbSEElhpKCmkTILC0ieavR2Dl17DsCgisstKKF0ZgidFxozUBAsuacL76BFY+zbaZmMDaRuruhRJY3ai4cDUBAms18fj9CKz4Gm07IYG1rfQ3F05g4YmwBAissNK4DUZguaGn8RkBAuuM0H4/J7D20zzNigmsNFItG5TAWoaaRqMECKxRYvWvJ7Dqa5x2hQRWWunMBiewzNBSeJYAgTVLsN79BFY9TcusiMAqI6XaQggsNZQU0iZAYGkTzV+PwMqvYdkVEFhlpRUvjMASo+NGawIEljXhfPUJrHyabTMxgbWN1N0LJbC6UXHhagIE1mri8fsRWPE12nZCAmtb6W8unMDCE2EJEFhhpXEbjMByQ0/jMwIE1hmh/X5OYO2neZoVE1hppFo2KIG1DDWNRgkQWKPE6l9PYNXXOO0KCay00pkNTmCZoaXwLAECa5ZgvfsJrHqallkRgVVGSrWFEFhqKCmkTYDA0iaavx6BlV/DsisgsMpKK14YgSVGx43WBAgsa8L56hNY+TTbZmICaxupuxdKYHWj4sLVBAis1cTj9vu6jfb2wHhHsD0buJ5LITBNgMCaRliiwDdtFRIvvGz3vVOCAItIQUBi0hQLY8huAqM7qzcLf9F+42fd3bgQAhMECKwJeEVu7T2zurdcfFTEDNGXgdGiK2Q/n0ZgHVPiJXuttu+Ayba3wINWYHEIj5fMCRBY5ohDN5Aett9aFIfwoeXOPxyBlV/DmRVo7a4ez8BOa0YR7r1LgMDa2yAWgXUQZae1t6/MVk9gmaENX9gqrC4Lx1vhLZBvQEyVTzONiUfD6viuluQLovhLQy1qfEsAQ+1nhtGwOggdPpHcx6vhfv4yXTGBZYo3XHFJ6FwCS/qNeDwWzgZ5B8JMebUbnVwaOI93SdKvQeCzUbW4/ioBjLSPMWZ2V48paQTfPtRZqSoBAksVZ8hi0oC5vApeW5S0Jt/RCmmRPEMRWHm0kkwqfYW7F1aXOaQ7Ng7iJUpyzysCBFZdI0h3QSO+kIYWvqvrO9OVYRxTvK7FV4SJNBTxnas18jbHOHm1O5t8RWAdM0j68Fp4ph4/v0qAwKppDEmIHCSkQSLth/9q+s9sVRjGDK1bYWl4zP4JnrQvHnSzSr7GmCWfZvcmloaGdGf15izS/viwlg/NVoNRzNAuLxwhLKSH8FqBuRw6DdcSILDW8rboJg2JmTMri10eXrRwR7GamCS3oNJd1WXVVvpL5po9Q8utJNN3EbAybFdzLpoiIAmFxw0ttZfu+ng1nLJE/ZstTVufnt8KI4fVhYr0rwWx0/LzVfjOBFZ4iZ4MKN29WL8GXiMpnZWdVj5fLpmYwFqCWbXJzO7KQ2/pvB6zqgpFMX0CmEKfqWVF6WvWMZPXrkW6yzpmxp+WbkpYG0PkEW3mwfd++KW7LO+587hjk0kJrBxCz+ysojz00tD6V1vAD3LIxJTWBAgsa8Lz9Y9XuWfCMl6vgbfGlYbWX1rBnwoZcFshAgRWbDE/beN9KBwxqrbS0Pp94/BrIQtuK0IgqqmL4J1ehvThjrazegxCehb371bk+TRRCqQmQGDFlk8aWNF1lZ7JRV9XbDcVmA4DxBZRElhZNJWEVpa1xXZV4ukwQGzxRgMrm54jr4f8lZ3YXl0yXTaDL4ESqMlIYGXVsnen9aemy88DacMoDgSymtwBlUvLP7au7590jnzA3gut56sbH7Vin/UW5LqaBAis2LoeX2n49GTEKg/yX9s6f3JjrS/a738SWyqmW0GAwFpBea7Hx+3237XPNa2qPchHQP+mfT54jezz179mZzXnoTJ3E1g5pORBzqETUxoTILCMAVMeAhDQI0Bg6bGkEgQgYEyAwDIGTHkIQECPAIGlx5JKEICAMQECyxgw5SEAAT0CBJYeSypBAALGBAgsY8CUhwAE9AgQWHosqQQBCBgTILCMAVMeAhDQI0Bg6bGkEgQgYEyAwDIGTHkIQECPwH8BAHORCsotNpUAAAAASUVORK5CYII=;" vertex="1" parent="1">
          <mxGeometry x="162" y="400" width="96" height="80" as="geometry" />
        </mxCell>
        <mxCell id="HIfz95Fh0vZ95EKHTSMD-21" value="" style="shape=image;verticalLabelPosition=bottom;labelBackgroundColor=default;verticalAlign=top;aspect=fixed;imageAspect=0;image=data:image/png,iVBORw0KGgoAAAANSUhEUgAAASwAAAD6CAYAAAAbbXrzAAAQQElEQVR4Xu2cTa5kRxGFn9umsRiAzAqQEGbsFdgDlgJjVuAG5B2wHyR7CR4CFiyBnwmWcRvyNl32o19V3czIiIyf/CyV5O53b0Tkd849yptd3W898B8EIACBJATeSjInY0IAAhB4ILAwAQQgkIYAgZVGKgaFAAQILDwAAQikIUBgpZGKQSEAAQILD0AAAmkIEFhppGJQCECAwMIDEIBAGgIEVhqpGBQCECCw8AAEIJCGAIGVRioGhQAECCw8AAEIpCFAYKWRikEhAAECCw9AAAJpCBBYaaRiUAhAgMDCAxCAQBoCBFYaqRgUAhAgsPAABCCQhgCBlUYqBoUABAgsPAABCKQhQGClkYpBIQABAgsPQAACaQgQWGmkYlAIQIDAwgMQgEAaAgRWGqkYFAIQILDwAAQgkIYAgZVGKgaFAAQILDwAAQikIUBgpZGKQSEAAQILD0AAAmkIEFhppGJQCECAwMIDEIBAGgIEVhqpGBQCECCw8AAEIJCGAIGVRioGhQAECCw8AAEIpCFAYKWRikEhAAECCw9AAAJpCBBYaaRiUAhAgMDCAxCAQBoCBFYaqRgUAhAgsPAABCCQhgCBlUYqBoUABAgsPAABCKQhQGClkYpBIQABAgsPQAACaQgQWGmkYlAIQIDAwgMQgEAaAgRWGqkYFAIQILDwAAQgkIYAgZVGKgaFAAQILDxwjcCH7TdftM8H7fOeAaKXreY7BnUpWZwAgVVcYMHyPm73/LZ9ngnuldzyTbvpbcmN3LMfAQJrP81vrfjL9oPn7ePtif8sDEvUT0bA25zJcJUbN0pIXQNLcJWz2/yCCKx5hhkrHK9hWbTnvCujw4xmzmJao+VvVTbybqpHCLzaQ6n4NZigrsCZdlEjKrDjGqFV7FoCq5igbTlVg+qxUpxv1fNt14oIrC5MKS76uk2509cD2GmlsKXukASWLk+Pav9oTX/o0ThAT0IrgAgrRyCwVtLW73U8sKu+4Kk/vV5FfKzHMnQlhA4tz93hjnOcSP8d8xyfntdSi3M2dluR3GA0C4FlBNaw7IqzqiN4vmqfdw3X8bi0VoBxGL9IMK82BJYXeVlfy13V6pC6RkBjfey0ZN5KcReBlUKmV0NqPMy3QiLSOZjGOvF1Hl8PTYqwQ7jcLtZ4iB8PH2E3dQ/m7Gsvvnazqm1jhLXlq1FdI6yynu1Iz7ayrlfDL6VrEFix5Z0NqwoPrnS3VWHtsd3pMB2B5QC9s6X0Qb2U/2f7nx919spwmSS8OYDPoOzAjATWAKzFl0oe0MuIVXWVvCJWZbHYjjHaIWYMHd6cQvJgHjV22FGMBjmvhjE9LpqKwBJhM79p9KE8BtpFS0mY78LG3JjeDRDSW4Gn/Qmrc01GGeHzc6YprkDIWDJJDtp31HCU046MYjlbaRqEVAKpVIadQz/IkVdDfN7PNfSVCBlHnpEH8Jiaw+T+v66Ez+P4fGoShJzCp3ozu6txnL3M8Pk425B3IGQcWXofvmPiHb6+0KNMLzN83kMzwTUIGUMkDpFlOhBYMm5p7yKwYkjX++Ad06LZd5r1coNZDJ9PT4GQ0winC4wetqMZgTVtuqwFML+/cr27hMukaEZg+bvWaQLM7wT+ddvRsOKw/f/16uWHz319rtYdIdVQDhcaPWjn/OopYgJr2Ha5byCw/PTrfdh4FbytUS9DfO7nc9XOCKmKs7vY6EE732q/jpbA6rZcjQsJLB8dex80dle39RkJfXzu43P1rgipjrSr4EhgcdA+t7vi7K/LkjkuIrB8dBoJLDQisHxcGrArD4OPKL2BhT7zB+6c//l43KQrD4QJ1tOiBNYporsXcH41xy/t3QSWj3QE1hz3Xn6cX81xDnc3geUjSe8Dhz5P9RnZXRFYPv4268oDYYb2bmECS869l93RgfMrOeeQdxJYPrL0PnTo81SfXnbsrny8bdqVB8IU783ivQ8d+sgDi92Vj7dNu/JAmOIlsJTxjpxf4W1l+BHKIaqPCuywZNx7ufE6KOMb/i4Cy0ei3gcPfb7Tp5fZ5Q7Y+XjbtCuimuLllVAJ7+i/Hcb5lRL4aGUILB9FencL6PPwMBpWvA76eHpJVx6IJZifNCGw+riPHLI/roiv+/imuwphfSTrDayddwuSndXBi3+Ox8fTS7oSWEswi3dYOx8gj4Q6uysfHy/vSmAtR/6qoeRh3EkrCZ+dd6M+LnboutND4ID3ZkvOZq6jkb4GElaR3G04C4FlCPektGQXUfl8RhrinFv5eXh5ZwJrOfJvG0p3ExU1k7K4vF4/85ORzisJVDT/Sn6zvSS7rEqvPzNBxc5q1n0J7yew/EXbNbRmXgEJK3/fukxAYLlgf9JUElqZ//rJ7M6q0i4zhgOTTEFgxRFKEloZdxqzOyvCKo5nl09CYC1HfrPh7K4jupaz67uAi77OOI4qOAnixxJVusuK/jDPrivjTjKWs4pMQ2DFE3L24Y6m6ex6CKt4HnWbKJq53UAEa6zxkHsfymu9AnqvI5g19h6HwIqrv0ZoeexOvmxNv6+EtfI3+5UQ7VWGwIqrt9YOZdX5lsaf/l1mJaji+tJ1MgLLFf9pc80QOJppv14du6nn7aPpI+0ZTyFzQR4CmkbLs+pck2rvtK6tfjQktIOUnVUuT7pNS2C5oRc11jrXEjU3vGk0MA1HoXRkAgRWZHWuz1YttPBgPg+6TYxZ3NCLG694RRQPN3gj/hsEtvvlGCanA6zOkFbR4E8BV5Eu1ofAyito1p0WnsvrOffJMY+7BKoDRD7fYlelKvWexQiserpH2nkdAfpV+7xbDzMr8iBAYHlQX9PT85yLryms0Xi7LgRWfclXBRe7qfpecl8hgeUugdsAWkHGbspNwv0aE1j7aX624t6De7xzRpKfqxPAdOpI0xcksNJLWHcBBFZdbaUrI7Ck5LjPnACBZY44XQMCK51k+wxMYO2jde9KCaxeUly3nACBtRx5+IYEVniJ9h2QwNpX+1srJ7DwRFgCBFZYadwGI7Dc0NP4jACBdUZov58TWPtpnmbFBFYaqZYNSmAtQ02jUQIE1iix+tcTWPU1TrtCAiutdGaDE1hmaCk8S4DAmiVY734Cq56mZVZEYJWRUm0hBJYaSgppEyCwtIna1Tv+JdFn7YNmDw9/bhx+1T6f2eGmckQCmD+iKv+bKdI/dRyV0os22CdRh2MufQIElj5TjYpa/7iexizRa3zETiu6RHrzEVh6LLUqsbMaI/mHdvkvxm7h6qwECKx4yvUeeseb3Geiv7W2P/ZpTdfVBAis1cTP+xFY54weX/H39ov3xm7h6qwECKx4yhFYY5rwSjjGK/XVBFY8+QisMU04dB/jlfpqAiuefBy692vC1xr6WZW4ksCKKSNfa7ivyxftx79sH744GtO/ZlMRWGZopwvf22kdr40v2+d7012eFuh9JcU7BvApeZ8ApsMhbxIgsPBEWAIEVlhp3AYjsNzQ0/iMAIF1Rmi/nxNY+2meZsUEVhqplg1KYC1DTaNRAgTWKLH61xNY9TVOu0ICK610ZoMTWGZoKTxLgMCaJVjvfgKrnqZlVkRglZFSbSEElhpKCmkTILC0ieavR2Dl17DsCgisstKKF0ZgidFxozUBAsuacL76BFY+zbaZmMDaRuruhRJY3ai4cDUBAms18fj9CKz4Gm07IYG1rfQ3F05g4YmwBAissNK4DUZguaGn8RkBAuuM0H4/J7D20zzNigmsNFItG5TAWoaaRqMECKxRYvWvJ7Dqa5x2hQRWWunMBiewzNBSeJYAgTVLsN79BFY9TcusiMAqI6XaQggsNZQU0iZAYGkTzV+PwMqvYdkVEFhlpRUvjMASo+NGawIEljXhfPUJrHyabTMxgbWN1N0LJbC6UXHhagIE1mri8fsRWPE12nZCAmtb6W8unMDCE2EJEFhhpXEbjMByQ0/jMwIE1hmh/X5OYO2neZoVE1hppFo2KIG1DDWNRgkQWKPE6l9PYNXXOO0KCay00pkNTmCZoaXwLAECa5ZgvfsJrHqallkRgVVGSrWFEFhqKCmkTYDA0iaavx6BlV/DsisgsMpKK14YgSVGx43WBAgsa8L56hNY+TTbZmICaxupuxdKYHWj4sLVBAis1cTj9vu6jfb2wHhHsD0buJ5LITBNgMCaRliiwDdtFRIvvGz3vVOCAItIQUBi0hQLY8huAqM7qzcLf9F+42fd3bgQAhMECKwJeEVu7T2zurdcfFTEDNGXgdGiK2Q/n0ZgHVPiJXuttu+Ayba3wINWYHEIj5fMCRBY5ohDN5Aett9aFIfwoeXOPxyBlV/DmRVo7a4ez8BOa0YR7r1LgMDa2yAWgXUQZae1t6/MVk9gmaENX9gqrC4Lx1vhLZBvQEyVTzONiUfD6viuluQLovhLQy1qfEsAQ+1nhtGwOggdPpHcx6vhfv4yXTGBZYo3XHFJ6FwCS/qNeDwWzgZ5B8JMebUbnVwaOI93SdKvQeCzUbW4/ioBjLSPMWZ2V48paQTfPtRZqSoBAksVZ8hi0oC5vApeW5S0Jt/RCmmRPEMRWHm0kkwqfYW7F1aXOaQ7Ng7iJUpyzysCBFZdI0h3QSO+kIYWvqvrO9OVYRxTvK7FV4SJNBTxnas18jbHOHm1O5t8RWAdM0j68Fp4ph4/v0qAwKppDEmIHCSkQSLth/9q+s9sVRjGDK1bYWl4zP4JnrQvHnSzSr7GmCWfZvcmloaGdGf15izS/viwlg/NVoNRzNAuLxwhLKSH8FqBuRw6DdcSILDW8rboJg2JmTMri10eXrRwR7GamCS3oNJd1WXVVvpL5po9Q8utJNN3EbAybFdzLpoiIAmFxw0ttZfu+ng1nLJE/ZstTVufnt8KI4fVhYr0rwWx0/LzVfjOBFZ4iZ4MKN29WL8GXiMpnZWdVj5fLpmYwFqCWbXJzO7KQ2/pvB6zqgpFMX0CmEKfqWVF6WvWMZPXrkW6yzpmxp+WbkpYG0PkEW3mwfd++KW7LO+587hjk0kJrBxCz+ysojz00tD6V1vAD3LIxJTWBAgsa8Lz9Y9XuWfCMl6vgbfGlYbWX1rBnwoZcFshAgRWbDE/beN9KBwxqrbS0Pp94/BrIQtuK0IgqqmL4J1ehvThjrazegxCehb371bk+TRRCqQmQGDFlk8aWNF1lZ7JRV9XbDcVmA4DxBZRElhZNJWEVpa1xXZV4ukwQGzxRgMrm54jr4f8lZ3YXl0yXTaDL4ESqMlIYGXVsnen9aemy88DacMoDgSymtwBlUvLP7au7590jnzA3gut56sbH7Vin/UW5LqaBAis2LoeX2n49GTEKg/yX9s6f3JjrS/a738SWyqmW0GAwFpBea7Hx+3237XPNa2qPchHQP+mfT54jezz179mZzXnoTJ3E1g5pORBzqETUxoTILCMAVMeAhDQI0Bg6bGkEgQgYEyAwDIGTHkIQECPAIGlx5JKEICAMQECyxgw5SEAAT0CBJYeSypBAALGBAgsY8CUhwAE9AgQWHosqQQBCBgTILCMAVMeAhDQI0Bg6bGkEgQgYEyAwDIGTHkIQECPwH8BAHORCsotNpUAAAAASUVORK5CYII=;" vertex="1" parent="1">
          <mxGeometry x="162" y="480" width="96" height="80" as="geometry" />
        </mxCell>
        <mxCell id="HIfz95Fh0vZ95EKHTSMD-22" value="" style="shape=image;verticalLabelPosition=bottom;labelBackgroundColor=default;verticalAlign=top;aspect=fixed;imageAspect=0;image=data:image/png,iVBORw0KGgoAAAANSUhEUgAAASwAAAD6CAYAAAAbbXrzAAAQQElEQVR4Xu2cTa5kRxGFn9umsRiAzAqQEGbsFdgDlgJjVuAG5B2wHyR7CR4CFiyBnwmWcRvyNl32o19V3czIiIyf/CyV5O53b0Tkd849yptd3W898B8EIACBJATeSjInY0IAAhB4ILAwAQQgkIYAgZVGKgaFAAQILDwAAQikIUBgpZGKQSEAAQILD0AAAmkIEFhppGJQCECAwMIDEIBAGgIEVhqpGBQCECCw8AAEIJCGAIGVRioGhQAECCw8AAEIpCFAYKWRikEhAAECCw9AAAJpCBBYaaRiUAhAgMDCAxCAQBoCBFYaqRgUAhAgsPAABCCQhgCBlUYqBoUABAgsPAABCKQhQGClkYpBIQABAgsPQAACaQgQWGmkYlAIQIDAwgMQgEAaAgRWGqkYFAIQILDwAAQgkIYAgZVGKgaFAAQILDwAAQikIUBgpZGKQSEAAQILD0AAAmkIEFhppGJQCECAwMIDEIBAGgIEVhqpGBQCECCw8AAEIJCGAIGVRioGhQAECCw8AAEIpCFAYKWRikEhAAECCw9AAAJpCBBYaaRiUAhAgMDCAxCAQBoCBFYaqRgUAhAgsPAABCCQhgCBlUYqBoUABAgsPAABCKQhQGClkYpBIQABAgsPQAACaQgQWGmkYlAIQIDAwgMQgEAaAgRWGqkYFAIQILDwAAQgkIYAgZVGKgaFAAQILDxwjcCH7TdftM8H7fOeAaKXreY7BnUpWZwAgVVcYMHyPm73/LZ9ngnuldzyTbvpbcmN3LMfAQJrP81vrfjL9oPn7ePtif8sDEvUT0bA25zJcJUbN0pIXQNLcJWz2/yCCKx5hhkrHK9hWbTnvCujw4xmzmJao+VvVTbybqpHCLzaQ6n4NZigrsCZdlEjKrDjGqFV7FoCq5igbTlVg+qxUpxv1fNt14oIrC5MKS76uk2509cD2GmlsKXukASWLk+Pav9oTX/o0ThAT0IrgAgrRyCwVtLW73U8sKu+4Kk/vV5FfKzHMnQlhA4tz93hjnOcSP8d8xyfntdSi3M2dluR3GA0C4FlBNaw7IqzqiN4vmqfdw3X8bi0VoBxGL9IMK82BJYXeVlfy13V6pC6RkBjfey0ZN5KcReBlUKmV0NqPMy3QiLSOZjGOvF1Hl8PTYqwQ7jcLtZ4iB8PH2E3dQ/m7Gsvvnazqm1jhLXlq1FdI6yynu1Iz7ayrlfDL6VrEFix5Z0NqwoPrnS3VWHtsd3pMB2B5QC9s6X0Qb2U/2f7nx919spwmSS8OYDPoOzAjATWAKzFl0oe0MuIVXWVvCJWZbHYjjHaIWYMHd6cQvJgHjV22FGMBjmvhjE9LpqKwBJhM79p9KE8BtpFS0mY78LG3JjeDRDSW4Gn/Qmrc01GGeHzc6YprkDIWDJJDtp31HCU046MYjlbaRqEVAKpVIadQz/IkVdDfN7PNfSVCBlHnpEH8Jiaw+T+v66Ez+P4fGoShJzCp3ozu6txnL3M8Pk425B3IGQcWXofvmPiHb6+0KNMLzN83kMzwTUIGUMkDpFlOhBYMm5p7yKwYkjX++Ad06LZd5r1coNZDJ9PT4GQ0winC4wetqMZgTVtuqwFML+/cr27hMukaEZg+bvWaQLM7wT+ddvRsOKw/f/16uWHz319rtYdIdVQDhcaPWjn/OopYgJr2Ha5byCw/PTrfdh4FbytUS9DfO7nc9XOCKmKs7vY6EE732q/jpbA6rZcjQsJLB8dex80dle39RkJfXzu43P1rgipjrSr4EhgcdA+t7vi7K/LkjkuIrB8dBoJLDQisHxcGrArD4OPKL2BhT7zB+6c//l43KQrD4QJ1tOiBNYporsXcH41xy/t3QSWj3QE1hz3Xn6cX81xDnc3geUjSe8Dhz5P9RnZXRFYPv4268oDYYb2bmECS869l93RgfMrOeeQdxJYPrL0PnTo81SfXnbsrny8bdqVB8IU783ivQ8d+sgDi92Vj7dNu/JAmOIlsJTxjpxf4W1l+BHKIaqPCuywZNx7ufE6KOMb/i4Cy0ei3gcPfb7Tp5fZ5Q7Y+XjbtCuimuLllVAJ7+i/Hcb5lRL4aGUILB9FencL6PPwMBpWvA76eHpJVx6IJZifNCGw+riPHLI/roiv+/imuwphfSTrDayddwuSndXBi3+Ox8fTS7oSWEswi3dYOx8gj4Q6uysfHy/vSmAtR/6qoeRh3EkrCZ+dd6M+LnboutND4ID3ZkvOZq6jkb4GElaR3G04C4FlCPektGQXUfl8RhrinFv5eXh5ZwJrOfJvG0p3ExU1k7K4vF4/85ORzisJVDT/Sn6zvSS7rEqvPzNBxc5q1n0J7yew/EXbNbRmXgEJK3/fukxAYLlgf9JUElqZ//rJ7M6q0i4zhgOTTEFgxRFKEloZdxqzOyvCKo5nl09CYC1HfrPh7K4jupaz67uAi77OOI4qOAnixxJVusuK/jDPrivjTjKWs4pMQ2DFE3L24Y6m6ex6CKt4HnWbKJq53UAEa6zxkHsfymu9AnqvI5g19h6HwIqrv0ZoeexOvmxNv6+EtfI3+5UQ7VWGwIqrt9YOZdX5lsaf/l1mJaji+tJ1MgLLFf9pc80QOJppv14du6nn7aPpI+0ZTyFzQR4CmkbLs+pck2rvtK6tfjQktIOUnVUuT7pNS2C5oRc11jrXEjU3vGk0MA1HoXRkAgRWZHWuz1YttPBgPg+6TYxZ3NCLG694RRQPN3gj/hsEtvvlGCanA6zOkFbR4E8BV5Eu1ofAyito1p0WnsvrOffJMY+7BKoDRD7fYlelKvWexQiserpH2nkdAfpV+7xbDzMr8iBAYHlQX9PT85yLryms0Xi7LgRWfclXBRe7qfpecl8hgeUugdsAWkHGbspNwv0aE1j7aX624t6De7xzRpKfqxPAdOpI0xcksNJLWHcBBFZdbaUrI7Ck5LjPnACBZY44XQMCK51k+wxMYO2jde9KCaxeUly3nACBtRx5+IYEVniJ9h2QwNpX+1srJ7DwRFgCBFZYadwGI7Dc0NP4jACBdUZov58TWPtpnmbFBFYaqZYNSmAtQ02jUQIE1iix+tcTWPU1TrtCAiutdGaDE1hmaCk8S4DAmiVY734Cq56mZVZEYJWRUm0hBJYaSgppEyCwtIna1Tv+JdFn7YNmDw9/bhx+1T6f2eGmckQCmD+iKv+bKdI/dRyV0os22CdRh2MufQIElj5TjYpa/7iexizRa3zETiu6RHrzEVh6LLUqsbMaI/mHdvkvxm7h6qwECKx4yvUeeseb3Geiv7W2P/ZpTdfVBAis1cTP+xFY54weX/H39ov3xm7h6qwECKx4yhFYY5rwSjjGK/XVBFY8+QisMU04dB/jlfpqAiuefBy692vC1xr6WZW4ksCKKSNfa7ivyxftx79sH744GtO/ZlMRWGZopwvf22kdr40v2+d7012eFuh9JcU7BvApeZ8ApsMhbxIgsPBEWAIEVlhp3AYjsNzQ0/iMAIF1Rmi/nxNY+2meZsUEVhqplg1KYC1DTaNRAgTWKLH61xNY9TVOu0ICK610ZoMTWGZoKTxLgMCaJVjvfgKrnqZlVkRglZFSbSEElhpKCmkTILC0ieavR2Dl17DsCgisstKKF0ZgidFxozUBAsuacL76BFY+zbaZmMDaRuruhRJY3ai4cDUBAms18fj9CKz4Gm07IYG1rfQ3F05g4YmwBAissNK4DUZguaGn8RkBAuuM0H4/J7D20zzNigmsNFItG5TAWoaaRqMECKxRYvWvJ7Dqa5x2hQRWWunMBiewzNBSeJYAgTVLsN79BFY9TcusiMAqI6XaQggsNZQU0iZAYGkTzV+PwMqvYdkVEFhlpRUvjMASo+NGawIEljXhfPUJrHyabTMxgbWN1N0LJbC6UXHhagIE1mri8fsRWPE12nZCAmtb6W8unMDCE2EJEFhhpXEbjMByQ0/jMwIE1hmh/X5OYO2neZoVE1hppFo2KIG1DDWNRgkQWKPE6l9PYNXXOO0KCay00pkNTmCZoaXwLAECa5ZgvfsJrHqallkRgVVGSrWFEFhqKCmkTYDA0iaavx6BlV/DsisgsMpKK14YgSVGx43WBAgsa8L56hNY+TTbZmICaxupuxdKYHWj4sLVBAis1cTj9vu6jfb2wHhHsD0buJ5LITBNgMCaRliiwDdtFRIvvGz3vVOCAItIQUBi0hQLY8huAqM7qzcLf9F+42fd3bgQAhMECKwJeEVu7T2zurdcfFTEDNGXgdGiK2Q/n0ZgHVPiJXuttu+Ayba3wINWYHEIj5fMCRBY5ohDN5Aett9aFIfwoeXOPxyBlV/DmRVo7a4ez8BOa0YR7r1LgMDa2yAWgXUQZae1t6/MVk9gmaENX9gqrC4Lx1vhLZBvQEyVTzONiUfD6viuluQLovhLQy1qfEsAQ+1nhtGwOggdPpHcx6vhfv4yXTGBZYo3XHFJ6FwCS/qNeDwWzgZ5B8JMebUbnVwaOI93SdKvQeCzUbW4/ioBjLSPMWZ2V48paQTfPtRZqSoBAksVZ8hi0oC5vApeW5S0Jt/RCmmRPEMRWHm0kkwqfYW7F1aXOaQ7Ng7iJUpyzysCBFZdI0h3QSO+kIYWvqvrO9OVYRxTvK7FV4SJNBTxnas18jbHOHm1O5t8RWAdM0j68Fp4ph4/v0qAwKppDEmIHCSkQSLth/9q+s9sVRjGDK1bYWl4zP4JnrQvHnSzSr7GmCWfZvcmloaGdGf15izS/viwlg/NVoNRzNAuLxwhLKSH8FqBuRw6DdcSILDW8rboJg2JmTMri10eXrRwR7GamCS3oNJd1WXVVvpL5po9Q8utJNN3EbAybFdzLpoiIAmFxw0ttZfu+ng1nLJE/ZstTVufnt8KI4fVhYr0rwWx0/LzVfjOBFZ4iZ4MKN29WL8GXiMpnZWdVj5fLpmYwFqCWbXJzO7KQ2/pvB6zqgpFMX0CmEKfqWVF6WvWMZPXrkW6yzpmxp+WbkpYG0PkEW3mwfd++KW7LO+587hjk0kJrBxCz+ysojz00tD6V1vAD3LIxJTWBAgsa8Lz9Y9XuWfCMl6vgbfGlYbWX1rBnwoZcFshAgRWbDE/beN9KBwxqrbS0Pp94/BrIQtuK0IgqqmL4J1ehvThjrazegxCehb371bk+TRRCqQmQGDFlk8aWNF1lZ7JRV9XbDcVmA4DxBZRElhZNJWEVpa1xXZV4ukwQGzxRgMrm54jr4f8lZ3YXl0yXTaDL4ESqMlIYGXVsnen9aemy88DacMoDgSymtwBlUvLP7au7590jnzA3gut56sbH7Vin/UW5LqaBAis2LoeX2n49GTEKg/yX9s6f3JjrS/a738SWyqmW0GAwFpBea7Hx+3237XPNa2qPchHQP+mfT54jezz179mZzXnoTJ3E1g5pORBzqETUxoTILCMAVMeAhDQI0Bg6bGkEgQgYEyAwDIGTHkIQECPAIGlx5JKEICAMQECyxgw5SEAAT0CBJYeSypBAALGBAgsY8CUhwAE9AgQWHosqQQBCBgTILCMAVMeAhDQI0Bg6bGkEgQgYEyAwDIGTHkIQECPwH8BAHORCsotNpUAAAAASUVORK5CYII=;" vertex="1" parent="1">
          <mxGeometry x="332" y="240" width="96" height="80" as="geometry" />
        </mxCell>
        <mxCell id="HIfz95Fh0vZ95EKHTSMD-23" value="" style="shape=image;verticalLabelPosition=bottom;labelBackgroundColor=default;verticalAlign=top;aspect=fixed;imageAspect=0;image=data:image/png,iVBORw0KGgoAAAANSUhEUgAAASwAAAD6CAYAAAAbbXrzAAAQQElEQVR4Xu2cTa5kRxGFn9umsRiAzAqQEGbsFdgDlgJjVuAG5B2wHyR7CR4CFiyBnwmWcRvyNl32o19V3czIiIyf/CyV5O53b0Tkd849yptd3W898B8EIACBJATeSjInY0IAAhB4ILAwAQQgkIYAgZVGKgaFAAQILDwAAQikIUBgpZGKQSEAAQILD0AAAmkIEFhppGJQCECAwMIDEIBAGgIEVhqpGBQCECCw8AAEIJCGAIGVRioGhQAECCw8AAEIpCFAYKWRikEhAAECCw9AAAJpCBBYaaRiUAhAgMDCAxCAQBoCBFYaqRgUAhAgsPAABCCQhgCBlUYqBoUABAgsPAABCKQhQGClkYpBIQABAgsPQAACaQgQWGmkYlAIQIDAwgMQgEAaAgRWGqkYFAIQILDwAAQgkIYAgZVGKgaFAAQILDwAAQikIUBgpZGKQSEAAQILD0AAAmkIEFhppGJQCECAwMIDEIBAGgIEVhqpGBQCECCw8AAEIJCGAIGVRioGhQAECCw8AAEIpCFAYKWRikEhAAECCw9AAAJpCBBYaaRiUAhAgMDCAxCAQBoCBFYaqRgUAhAgsPAABCCQhgCBlUYqBoUABAgsPAABCKQhQGClkYpBIQABAgsPQAACaQgQWGmkYlAIQIDAwgMQgEAaAgRWGqkYFAIQILDwAAQgkIYAgZVGKgaFAAQILDxwjcCH7TdftM8H7fOeAaKXreY7BnUpWZwAgVVcYMHyPm73/LZ9ngnuldzyTbvpbcmN3LMfAQJrP81vrfjL9oPn7ePtif8sDEvUT0bA25zJcJUbN0pIXQNLcJWz2/yCCKx5hhkrHK9hWbTnvCujw4xmzmJao+VvVTbybqpHCLzaQ6n4NZigrsCZdlEjKrDjGqFV7FoCq5igbTlVg+qxUpxv1fNt14oIrC5MKS76uk2509cD2GmlsKXukASWLk+Pav9oTX/o0ThAT0IrgAgrRyCwVtLW73U8sKu+4Kk/vV5FfKzHMnQlhA4tz93hjnOcSP8d8xyfntdSi3M2dluR3GA0C4FlBNaw7IqzqiN4vmqfdw3X8bi0VoBxGL9IMK82BJYXeVlfy13V6pC6RkBjfey0ZN5KcReBlUKmV0NqPMy3QiLSOZjGOvF1Hl8PTYqwQ7jcLtZ4iB8PH2E3dQ/m7Gsvvnazqm1jhLXlq1FdI6yynu1Iz7ayrlfDL6VrEFix5Z0NqwoPrnS3VWHtsd3pMB2B5QC9s6X0Qb2U/2f7nx919spwmSS8OYDPoOzAjATWAKzFl0oe0MuIVXWVvCJWZbHYjjHaIWYMHd6cQvJgHjV22FGMBjmvhjE9LpqKwBJhM79p9KE8BtpFS0mY78LG3JjeDRDSW4Gn/Qmrc01GGeHzc6YprkDIWDJJDtp31HCU046MYjlbaRqEVAKpVIadQz/IkVdDfN7PNfSVCBlHnpEH8Jiaw+T+v66Ez+P4fGoShJzCp3ozu6txnL3M8Pk425B3IGQcWXofvmPiHb6+0KNMLzN83kMzwTUIGUMkDpFlOhBYMm5p7yKwYkjX++Ad06LZd5r1coNZDJ9PT4GQ0winC4wetqMZgTVtuqwFML+/cr27hMukaEZg+bvWaQLM7wT+ddvRsOKw/f/16uWHz319rtYdIdVQDhcaPWjn/OopYgJr2Ha5byCw/PTrfdh4FbytUS9DfO7nc9XOCKmKs7vY6EE732q/jpbA6rZcjQsJLB8dex80dle39RkJfXzu43P1rgipjrSr4EhgcdA+t7vi7K/LkjkuIrB8dBoJLDQisHxcGrArD4OPKL2BhT7zB+6c//l43KQrD4QJ1tOiBNYporsXcH41xy/t3QSWj3QE1hz3Xn6cX81xDnc3geUjSe8Dhz5P9RnZXRFYPv4268oDYYb2bmECS869l93RgfMrOeeQdxJYPrL0PnTo81SfXnbsrny8bdqVB8IU783ivQ8d+sgDi92Vj7dNu/JAmOIlsJTxjpxf4W1l+BHKIaqPCuywZNx7ufE6KOMb/i4Cy0ei3gcPfb7Tp5fZ5Q7Y+XjbtCuimuLllVAJ7+i/Hcb5lRL4aGUILB9FencL6PPwMBpWvA76eHpJVx6IJZifNCGw+riPHLI/roiv+/imuwphfSTrDayddwuSndXBi3+Ox8fTS7oSWEswi3dYOx8gj4Q6uysfHy/vSmAtR/6qoeRh3EkrCZ+dd6M+LnboutND4ID3ZkvOZq6jkb4GElaR3G04C4FlCPektGQXUfl8RhrinFv5eXh5ZwJrOfJvG0p3ExU1k7K4vF4/85ORzisJVDT/Sn6zvSS7rEqvPzNBxc5q1n0J7yew/EXbNbRmXgEJK3/fukxAYLlgf9JUElqZ//rJ7M6q0i4zhgOTTEFgxRFKEloZdxqzOyvCKo5nl09CYC1HfrPh7K4jupaz67uAi77OOI4qOAnixxJVusuK/jDPrivjTjKWs4pMQ2DFE3L24Y6m6ex6CKt4HnWbKJq53UAEa6zxkHsfymu9AnqvI5g19h6HwIqrv0ZoeexOvmxNv6+EtfI3+5UQ7VWGwIqrt9YOZdX5lsaf/l1mJaji+tJ1MgLLFf9pc80QOJppv14du6nn7aPpI+0ZTyFzQR4CmkbLs+pck2rvtK6tfjQktIOUnVUuT7pNS2C5oRc11jrXEjU3vGk0MA1HoXRkAgRWZHWuz1YttPBgPg+6TYxZ3NCLG694RRQPN3gj/hsEtvvlGCanA6zOkFbR4E8BV5Eu1ofAyito1p0WnsvrOffJMY+7BKoDRD7fYlelKvWexQiserpH2nkdAfpV+7xbDzMr8iBAYHlQX9PT85yLryms0Xi7LgRWfclXBRe7qfpecl8hgeUugdsAWkHGbspNwv0aE1j7aX624t6De7xzRpKfqxPAdOpI0xcksNJLWHcBBFZdbaUrI7Ck5LjPnACBZY44XQMCK51k+wxMYO2jde9KCaxeUly3nACBtRx5+IYEVniJ9h2QwNpX+1srJ7DwRFgCBFZYadwGI7Dc0NP4jACBdUZov58TWPtpnmbFBFYaqZYNSmAtQ02jUQIE1iix+tcTWPU1TrtCAiutdGaDE1hmaCk8S4DAmiVY734Cq56mZVZEYJWRUm0hBJYaSgppEyCwtIna1Tv+JdFn7YNmDw9/bhx+1T6f2eGmckQCmD+iKv+bKdI/dRyV0os22CdRh2MufQIElj5TjYpa/7iexizRa3zETiu6RHrzEVh6LLUqsbMaI/mHdvkvxm7h6qwECKx4yvUeeseb3Geiv7W2P/ZpTdfVBAis1cTP+xFY54weX/H39ov3xm7h6qwECKx4yhFYY5rwSjjGK/XVBFY8+QisMU04dB/jlfpqAiuefBy692vC1xr6WZW4ksCKKSNfa7ivyxftx79sH744GtO/ZlMRWGZopwvf22kdr40v2+d7012eFuh9JcU7BvApeZ8ApsMhbxIgsPBEWAIEVlhp3AYjsNzQ0/iMAIF1Rmi/nxNY+2meZsUEVhqplg1KYC1DTaNRAgTWKLH61xNY9TVOu0ICK610ZoMTWGZoKTxLgMCaJVjvfgKrnqZlVkRglZFSbSEElhpKCmkTILC0ieavR2Dl17DsCgisstKKF0ZgidFxozUBAsuacL76BFY+zbaZmMDaRuruhRJY3ai4cDUBAms18fj9CKz4Gm07IYG1rfQ3F05g4YmwBAissNK4DUZguaGn8RkBAuuM0H4/J7D20zzNigmsNFItG5TAWoaaRqMECKxRYvWvJ7Dqa5x2hQRWWunMBiewzNBSeJYAgTVLsN79BFY9TcusiMAqI6XaQggsNZQU0iZAYGkTzV+PwMqvYdkVEFhlpRUvjMASo+NGawIEljXhfPUJrHyabTMxgbWN1N0LJbC6UXHhagIE1mri8fsRWPE12nZCAmtb6W8unMDCE2EJEFhhpXEbjMByQ0/jMwIE1hmh/X5OYO2neZoVE1hppFo2KIG1DDWNRgkQWKPE6l9PYNXXOO0KCay00pkNTmCZoaXwLAECa5ZgvfsJrHqallkRgVVGSrWFEFhqKCmkTYDA0iaavx6BlV/DsisgsMpKK14YgSVGx43WBAgsa8L56hNY+TTbZmICaxupuxdKYHWj4sLVBAis1cTj9vu6jfb2wHhHsD0buJ5LITBNgMCaRliiwDdtFRIvvGz3vVOCAItIQUBi0hQLY8huAqM7qzcLf9F+42fd3bgQAhMECKwJeEVu7T2zurdcfFTEDNGXgdGiK2Q/n0ZgHVPiJXuttu+Ayba3wINWYHEIj5fMCRBY5ohDN5Aett9aFIfwoeXOPxyBlV/DmRVo7a4ez8BOa0YR7r1LgMDa2yAWgXUQZae1t6/MVk9gmaENX9gqrC4Lx1vhLZBvQEyVTzONiUfD6viuluQLovhLQy1qfEsAQ+1nhtGwOggdPpHcx6vhfv4yXTGBZYo3XHFJ6FwCS/qNeDwWzgZ5B8JMebUbnVwaOI93SdKvQeCzUbW4/ioBjLSPMWZ2V48paQTfPtRZqSoBAksVZ8hi0oC5vApeW5S0Jt/RCmmRPEMRWHm0kkwqfYW7F1aXOaQ7Ng7iJUpyzysCBFZdI0h3QSO+kIYWvqvrO9OVYRxTvK7FV4SJNBTxnas18jbHOHm1O5t8RWAdM0j68Fp4ph4/v0qAwKppDEmIHCSkQSLth/9q+s9sVRjGDK1bYWl4zP4JnrQvHnSzSr7GmCWfZvcmloaGdGf15izS/viwlg/NVoNRzNAuLxwhLKSH8FqBuRw6DdcSILDW8rboJg2JmTMri10eXrRwR7GamCS3oNJd1WXVVvpL5po9Q8utJNN3EbAybFdzLpoiIAmFxw0ttZfu+ng1nLJE/ZstTVufnt8KI4fVhYr0rwWx0/LzVfjOBFZ4iZ4MKN29WL8GXiMpnZWdVj5fLpmYwFqCWbXJzO7KQ2/pvB6zqgpFMX0CmEKfqWVF6WvWMZPXrkW6yzpmxp+WbkpYG0PkEW3mwfd++KW7LO+587hjk0kJrBxCz+ysojz00tD6V1vAD3LIxJTWBAgsa8Lz9Y9XuWfCMl6vgbfGlYbWX1rBnwoZcFshAgRWbDE/beN9KBwxqrbS0Pp94/BrIQtuK0IgqqmL4J1ehvThjrazegxCehb371bk+TRRCqQmQGDFlk8aWNF1lZ7JRV9XbDcVmA4DxBZRElhZNJWEVpa1xXZV4ukwQGzxRgMrm54jr4f8lZ3YXl0yXTaDL4ESqMlIYGXVsnen9aemy88DacMoDgSymtwBlUvLP7au7590jnzA3gut56sbH7Vin/UW5LqaBAis2LoeX2n49GTEKg/yX9s6f3JjrS/a738SWyqmW0GAwFpBea7Hx+3237XPNa2qPchHQP+mfT54jezz179mZzXnoTJ3E1g5pORBzqETUxoTILCMAVMeAhDQI0Bg6bGkEgQgYEyAwDIGTHkIQECPAIGlx5JKEICAMQECyxgw5SEAAT0CBJYeSypBAALGBAgsY8CUhwAE9AgQWHosqQQBCBgTILCMAVMeAhDQI0Bg6bGkEgQgYEyAwDIGTHkIQECPwH8BAHORCsotNpUAAAAASUVORK5CYII=;" vertex="1" parent="1">
          <mxGeometry x="332" y="320" width="96" height="80" as="geometry" />
        </mxCell>
        <mxCell id="HIfz95Fh0vZ95EKHTSMD-24" value="" style="shape=image;verticalLabelPosition=bottom;labelBackgroundColor=default;verticalAlign=top;aspect=fixed;imageAspect=0;image=data:image/png,iVBORw0KGgoAAAANSUhEUgAAASwAAAD6CAYAAAAbbXrzAAAQQElEQVR4Xu2cTa5kRxGFn9umsRiAzAqQEGbsFdgDlgJjVuAG5B2wHyR7CR4CFiyBnwmWcRvyNl32o19V3czIiIyf/CyV5O53b0Tkd849yptd3W898B8EIACBJATeSjInY0IAAhB4ILAwAQQgkIYAgZVGKgaFAAQILDwAAQikIUBgpZGKQSEAAQILD0AAAmkIEFhppGJQCECAwMIDEIBAGgIEVhqpGBQCECCw8AAEIJCGAIGVRioGhQAECCw8AAEIpCFAYKWRikEhAAECCw9AAAJpCBBYaaRiUAhAgMDCAxCAQBoCBFYaqRgUAhAgsPAABCCQhgCBlUYqBoUABAgsPAABCKQhQGClkYpBIQABAgsPQAACaQgQWGmkYlAIQIDAwgMQgEAaAgRWGqkYFAIQILDwAAQgkIYAgZVGKgaFAAQILDwAAQikIUBgpZGKQSEAAQILD0AAAmkIEFhppGJQCECAwMIDEIBAGgIEVhqpGBQCECCw8AAEIJCGAIGVRioGhQAECCw8AAEIpCFAYKWRikEhAAECCw9AAAJpCBBYaaRiUAhAgMDCAxCAQBoCBFYaqRgUAhAgsPAABCCQhgCBlUYqBoUABAgsPAABCKQhQGClkYpBIQABAgsPQAACaQgQWGmkYlAIQIDAwgMQgEAaAgRWGqkYFAIQILDwAAQgkIYAgZVGKgaFAAQILDxwjcCH7TdftM8H7fOeAaKXreY7BnUpWZwAgVVcYMHyPm73/LZ9ngnuldzyTbvpbcmN3LMfAQJrP81vrfjL9oPn7ePtif8sDEvUT0bA25zJcJUbN0pIXQNLcJWz2/yCCKx5hhkrHK9hWbTnvCujw4xmzmJao+VvVTbybqpHCLzaQ6n4NZigrsCZdlEjKrDjGqFV7FoCq5igbTlVg+qxUpxv1fNt14oIrC5MKS76uk2509cD2GmlsKXukASWLk+Pav9oTX/o0ThAT0IrgAgrRyCwVtLW73U8sKu+4Kk/vV5FfKzHMnQlhA4tz93hjnOcSP8d8xyfntdSi3M2dluR3GA0C4FlBNaw7IqzqiN4vmqfdw3X8bi0VoBxGL9IMK82BJYXeVlfy13V6pC6RkBjfey0ZN5KcReBlUKmV0NqPMy3QiLSOZjGOvF1Hl8PTYqwQ7jcLtZ4iB8PH2E3dQ/m7Gsvvnazqm1jhLXlq1FdI6yynu1Iz7ayrlfDL6VrEFix5Z0NqwoPrnS3VWHtsd3pMB2B5QC9s6X0Qb2U/2f7nx919spwmSS8OYDPoOzAjATWAKzFl0oe0MuIVXWVvCJWZbHYjjHaIWYMHd6cQvJgHjV22FGMBjmvhjE9LpqKwBJhM79p9KE8BtpFS0mY78LG3JjeDRDSW4Gn/Qmrc01GGeHzc6YprkDIWDJJDtp31HCU046MYjlbaRqEVAKpVIadQz/IkVdDfN7PNfSVCBlHnpEH8Jiaw+T+v66Ez+P4fGoShJzCp3ozu6txnL3M8Pk425B3IGQcWXofvmPiHb6+0KNMLzN83kMzwTUIGUMkDpFlOhBYMm5p7yKwYkjX++Ad06LZd5r1coNZDJ9PT4GQ0winC4wetqMZgTVtuqwFML+/cr27hMukaEZg+bvWaQLM7wT+ddvRsOKw/f/16uWHz319rtYdIdVQDhcaPWjn/OopYgJr2Ha5byCw/PTrfdh4FbytUS9DfO7nc9XOCKmKs7vY6EE732q/jpbA6rZcjQsJLB8dex80dle39RkJfXzu43P1rgipjrSr4EhgcdA+t7vi7K/LkjkuIrB8dBoJLDQisHxcGrArD4OPKL2BhT7zB+6c//l43KQrD4QJ1tOiBNYporsXcH41xy/t3QSWj3QE1hz3Xn6cX81xDnc3geUjSe8Dhz5P9RnZXRFYPv4268oDYYb2bmECS869l93RgfMrOeeQdxJYPrL0PnTo81SfXnbsrny8bdqVB8IU783ivQ8d+sgDi92Vj7dNu/JAmOIlsJTxjpxf4W1l+BHKIaqPCuywZNx7ufE6KOMb/i4Cy0ei3gcPfb7Tp5fZ5Q7Y+XjbtCuimuLllVAJ7+i/Hcb5lRL4aGUILB9FencL6PPwMBpWvA76eHpJVx6IJZifNCGw+riPHLI/roiv+/imuwphfSTrDayddwuSndXBi3+Ox8fTS7oSWEswi3dYOx8gj4Q6uysfHy/vSmAtR/6qoeRh3EkrCZ+dd6M+LnboutND4ID3ZkvOZq6jkb4GElaR3G04C4FlCPektGQXUfl8RhrinFv5eXh5ZwJrOfJvG0p3ExU1k7K4vF4/85ORzisJVDT/Sn6zvSS7rEqvPzNBxc5q1n0J7yew/EXbNbRmXgEJK3/fukxAYLlgf9JUElqZ//rJ7M6q0i4zhgOTTEFgxRFKEloZdxqzOyvCKo5nl09CYC1HfrPh7K4jupaz67uAi77OOI4qOAnixxJVusuK/jDPrivjTjKWs4pMQ2DFE3L24Y6m6ex6CKt4HnWbKJq53UAEa6zxkHsfymu9AnqvI5g19h6HwIqrv0ZoeexOvmxNv6+EtfI3+5UQ7VWGwIqrt9YOZdX5lsaf/l1mJaji+tJ1MgLLFf9pc80QOJppv14du6nn7aPpI+0ZTyFzQR4CmkbLs+pck2rvtK6tfjQktIOUnVUuT7pNS2C5oRc11jrXEjU3vGk0MA1HoXRkAgRWZHWuz1YttPBgPg+6TYxZ3NCLG694RRQPN3gj/hsEtvvlGCanA6zOkFbR4E8BV5Eu1ofAyito1p0WnsvrOffJMY+7BKoDRD7fYlelKvWexQiserpH2nkdAfpV+7xbDzMr8iBAYHlQX9PT85yLryms0Xi7LgRWfclXBRe7qfpecl8hgeUugdsAWkHGbspNwv0aE1j7aX624t6De7xzRpKfqxPAdOpI0xcksNJLWHcBBFZdbaUrI7Ck5LjPnACBZY44XQMCK51k+wxMYO2jde9KCaxeUly3nACBtRx5+IYEVniJ9h2QwNpX+1srJ7DwRFgCBFZYadwGI7Dc0NP4jACBdUZov58TWPtpnmbFBFYaqZYNSmAtQ02jUQIE1iix+tcTWPU1TrtCAiutdGaDE1hmaCk8S4DAmiVY734Cq56mZVZEYJWRUm0hBJYaSgppEyCwtIna1Tv+JdFn7YNmDw9/bhx+1T6f2eGmckQCmD+iKv+bKdI/dRyV0os22CdRh2MufQIElj5TjYpa/7iexizRa3zETiu6RHrzEVh6LLUqsbMaI/mHdvkvxm7h6qwECKx4yvUeeseb3Geiv7W2P/ZpTdfVBAis1cTP+xFY54weX/H39ov3xm7h6qwECKx4yhFYY5rwSjjGK/XVBFY8+QisMU04dB/jlfpqAiuefBy692vC1xr6WZW4ksCKKSNfa7ivyxftx79sH744GtO/ZlMRWGZopwvf22kdr40v2+d7012eFuh9JcU7BvApeZ8ApsMhbxIgsPBEWAIEVlhp3AYjsNzQ0/iMAIF1Rmi/nxNY+2meZsUEVhqplg1KYC1DTaNRAgTWKLH61xNY9TVOu0ICK610ZoMTWGZoKTxLgMCaJVjvfgKrnqZlVkRglZFSbSEElhpKCmkTILC0ieavR2Dl17DsCgisstKKF0ZgidFxozUBAsuacL76BFY+zbaZmMDaRuruhRJY3ai4cDUBAms18fj9CKz4Gm07IYG1rfQ3F05g4YmwBAissNK4DUZguaGn8RkBAuuM0H4/J7D20zzNigmsNFItG5TAWoaaRqMECKxRYvWvJ7Dqa5x2hQRWWunMBiewzNBSeJYAgTVLsN79BFY9TcusiMAqI6XaQggsNZQU0iZAYGkTzV+PwMqvYdkVEFhlpRUvjMASo+NGawIEljXhfPUJrHyabTMxgbWN1N0LJbC6UXHhagIE1mri8fsRWPE12nZCAmtb6W8unMDCE2EJEFhhpXEbjMByQ0/jMwIE1hmh/X5OYO2neZoVE1hppFo2KIG1DDWNRgkQWKPE6l9PYNXXOO0KCay00pkNTmCZoaXwLAECa5ZgvfsJrHqallkRgVVGSrWFEFhqKCmkTYDA0iaavx6BlV/DsisgsMpKK14YgSVGx43WBAgsa8L56hNY+TTbZmICaxupuxdKYHWj4sLVBAis1cTj9vu6jfb2wHhHsD0buJ5LITBNgMCaRliiwDdtFRIvvGz3vVOCAItIQUBi0hQLY8huAqM7qzcLf9F+42fd3bgQAhMECKwJeEVu7T2zurdcfFTEDNGXgdGiK2Q/n0ZgHVPiJXuttu+Ayba3wINWYHEIj5fMCRBY5ohDN5Aett9aFIfwoeXOPxyBlV/DmRVo7a4ez8BOa0YR7r1LgMDa2yAWgXUQZae1t6/MVk9gmaENX9gqrC4Lx1vhLZBvQEyVTzONiUfD6viuluQLovhLQy1qfEsAQ+1nhtGwOggdPpHcx6vhfv4yXTGBZYo3XHFJ6FwCS/qNeDwWzgZ5B8JMebUbnVwaOI93SdKvQeCzUbW4/ioBjLSPMWZ2V48paQTfPtRZqSoBAksVZ8hi0oC5vApeW5S0Jt/RCmmRPEMRWHm0kkwqfYW7F1aXOaQ7Ng7iJUpyzysCBFZdI0h3QSO+kIYWvqvrO9OVYRxTvK7FV4SJNBTxnas18jbHOHm1O5t8RWAdM0j68Fp4ph4/v0qAwKppDEmIHCSkQSLth/9q+s9sVRjGDK1bYWl4zP4JnrQvHnSzSr7GmCWfZvcmloaGdGf15izS/viwlg/NVoNRzNAuLxwhLKSH8FqBuRw6DdcSILDW8rboJg2JmTMri10eXrRwR7GamCS3oNJd1WXVVvpL5po9Q8utJNN3EbAybFdzLpoiIAmFxw0ttZfu+ng1nLJE/ZstTVufnt8KI4fVhYr0rwWx0/LzVfjOBFZ4iZ4MKN29WL8GXiMpnZWdVj5fLpmYwFqCWbXJzO7KQ2/pvB6zqgpFMX0CmEKfqWVF6WvWMZPXrkW6yzpmxp+WbkpYG0PkEW3mwfd++KW7LO+587hjk0kJrBxCz+ysojz00tD6V1vAD3LIxJTWBAgsa8Lz9Y9XuWfCMl6vgbfGlYbWX1rBnwoZcFshAgRWbDE/beN9KBwxqrbS0Pp94/BrIQtuK0IgqqmL4J1ehvThjrazegxCehb371bk+TRRCqQmQGDFlk8aWNF1lZ7JRV9XbDcVmA4DxBZRElhZNJWEVpa1xXZV4ukwQGzxRgMrm54jr4f8lZ3YXl0yXTaDL4ESqMlIYGXVsnen9aemy88DacMoDgSymtwBlUvLP7au7590jnzA3gut56sbH7Vin/UW5LqaBAis2LoeX2n49GTEKg/yX9s6f3JjrS/a738SWyqmW0GAwFpBea7Hx+3237XPNa2qPchHQP+mfT54jezz179mZzXnoTJ3E1g5pORBzqETUxoTILCMAVMeAhDQI0Bg6bGkEgQgYEyAwDIGTHkIQECPAIGlx5JKEICAMQECyxgw5SEAAT0CBJYeSypBAALGBAgsY8CUhwAE9AgQWHosqQQBCBgTILCMAVMeAhDQI0Bg6bGkEgQgYEyAwDIGTHkIQECPwH8BAHORCsotNpUAAAAASUVORK5CYII=;" vertex="1" parent="1">
          <mxGeometry x="332" y="400" width="96" height="80" as="geometry" />
        </mxCell>
        <mxCell id="HIfz95Fh0vZ95EKHTSMD-25" value="" style="shape=image;verticalLabelPosition=bottom;labelBackgroundColor=default;verticalAlign=top;aspect=fixed;imageAspect=0;image=data:image/png,iVBORw0KGgoAAAANSUhEUgAAASwAAAD6CAYAAAAbbXrzAAAQQElEQVR4Xu2cTa5kRxGFn9umsRiAzAqQEGbsFdgDlgJjVuAG5B2wHyR7CR4CFiyBnwmWcRvyNl32o19V3czIiIyf/CyV5O53b0Tkd849yptd3W898B8EIACBJATeSjInY0IAAhB4ILAwAQQgkIYAgZVGKgaFAAQILDwAAQikIUBgpZGKQSEAAQILD0AAAmkIEFhppGJQCECAwMIDEIBAGgIEVhqpGBQCECCw8AAEIJCGAIGVRioGhQAECCw8AAEIpCFAYKWRikEhAAECCw9AAAJpCBBYaaRiUAhAgMDCAxCAQBoCBFYaqRgUAhAgsPAABCCQhgCBlUYqBoUABAgsPAABCKQhQGClkYpBIQABAgsPQAACaQgQWGmkYlAIQIDAwgMQgEAaAgRWGqkYFAIQILDwAAQgkIYAgZVGKgaFAAQILDwAAQikIUBgpZGKQSEAAQILD0AAAmkIEFhppGJQCECAwMIDEIBAGgIEVhqpGBQCECCw8AAEIJCGAIGVRioGhQAECCw8AAEIpCFAYKWRikEhAAECCw9AAAJpCBBYaaRiUAhAgMDCAxCAQBoCBFYaqRgUAhAgsPAABCCQhgCBlUYqBoUABAgsPAABCKQhQGClkYpBIQABAgsPQAACaQgQWGmkYlAIQIDAwgMQgEAaAgRWGqkYFAIQILDwAAQgkIYAgZVGKgaFAAQILDxwjcCH7TdftM8H7fOeAaKXreY7BnUpWZwAgVVcYMHyPm73/LZ9ngnuldzyTbvpbcmN3LMfAQJrP81vrfjL9oPn7ePtif8sDEvUT0bA25zJcJUbN0pIXQNLcJWz2/yCCKx5hhkrHK9hWbTnvCujw4xmzmJao+VvVTbybqpHCLzaQ6n4NZigrsCZdlEjKrDjGqFV7FoCq5igbTlVg+qxUpxv1fNt14oIrC5MKS76uk2509cD2GmlsKXukASWLk+Pav9oTX/o0ThAT0IrgAgrRyCwVtLW73U8sKu+4Kk/vV5FfKzHMnQlhA4tz93hjnOcSP8d8xyfntdSi3M2dluR3GA0C4FlBNaw7IqzqiN4vmqfdw3X8bi0VoBxGL9IMK82BJYXeVlfy13V6pC6RkBjfey0ZN5KcReBlUKmV0NqPMy3QiLSOZjGOvF1Hl8PTYqwQ7jcLtZ4iB8PH2E3dQ/m7Gsvvnazqm1jhLXlq1FdI6yynu1Iz7ayrlfDL6VrEFix5Z0NqwoPrnS3VWHtsd3pMB2B5QC9s6X0Qb2U/2f7nx919spwmSS8OYDPoOzAjATWAKzFl0oe0MuIVXWVvCJWZbHYjjHaIWYMHd6cQvJgHjV22FGMBjmvhjE9LpqKwBJhM79p9KE8BtpFS0mY78LG3JjeDRDSW4Gn/Qmrc01GGeHzc6YprkDIWDJJDtp31HCU046MYjlbaRqEVAKpVIadQz/IkVdDfN7PNfSVCBlHnpEH8Jiaw+T+v66Ez+P4fGoShJzCp3ozu6txnL3M8Pk425B3IGQcWXofvmPiHb6+0KNMLzN83kMzwTUIGUMkDpFlOhBYMm5p7yKwYkjX++Ad06LZd5r1coNZDJ9PT4GQ0winC4wetqMZgTVtuqwFML+/cr27hMukaEZg+bvWaQLM7wT+ddvRsOKw/f/16uWHz319rtYdIdVQDhcaPWjn/OopYgJr2Ha5byCw/PTrfdh4FbytUS9DfO7nc9XOCKmKs7vY6EE732q/jpbA6rZcjQsJLB8dex80dle39RkJfXzu43P1rgipjrSr4EhgcdA+t7vi7K/LkjkuIrB8dBoJLDQisHxcGrArD4OPKL2BhT7zB+6c//l43KQrD4QJ1tOiBNYporsXcH41xy/t3QSWj3QE1hz3Xn6cX81xDnc3geUjSe8Dhz5P9RnZXRFYPv4268oDYYb2bmECS869l93RgfMrOeeQdxJYPrL0PnTo81SfXnbsrny8bdqVB8IU783ivQ8d+sgDi92Vj7dNu/JAmOIlsJTxjpxf4W1l+BHKIaqPCuywZNx7ufE6KOMb/i4Cy0ei3gcPfb7Tp5fZ5Q7Y+XjbtCuimuLllVAJ7+i/Hcb5lRL4aGUILB9FencL6PPwMBpWvA76eHpJVx6IJZifNCGw+riPHLI/roiv+/imuwphfSTrDayddwuSndXBi3+Ox8fTS7oSWEswi3dYOx8gj4Q6uysfHy/vSmAtR/6qoeRh3EkrCZ+dd6M+LnboutND4ID3ZkvOZq6jkb4GElaR3G04C4FlCPektGQXUfl8RhrinFv5eXh5ZwJrOfJvG0p3ExU1k7K4vF4/85ORzisJVDT/Sn6zvSS7rEqvPzNBxc5q1n0J7yew/EXbNbRmXgEJK3/fukxAYLlgf9JUElqZ//rJ7M6q0i4zhgOTTEFgxRFKEloZdxqzOyvCKo5nl09CYC1HfrPh7K4jupaz67uAi77OOI4qOAnixxJVusuK/jDPrivjTjKWs4pMQ2DFE3L24Y6m6ex6CKt4HnWbKJq53UAEa6zxkHsfymu9AnqvI5g19h6HwIqrv0ZoeexOvmxNv6+EtfI3+5UQ7VWGwIqrt9YOZdX5lsaf/l1mJaji+tJ1MgLLFf9pc80QOJppv14du6nn7aPpI+0ZTyFzQR4CmkbLs+pck2rvtK6tfjQktIOUnVUuT7pNS2C5oRc11jrXEjU3vGk0MA1HoXRkAgRWZHWuz1YttPBgPg+6TYxZ3NCLG694RRQPN3gj/hsEtvvlGCanA6zOkFbR4E8BV5Eu1ofAyito1p0WnsvrOffJMY+7BKoDRD7fYlelKvWexQiserpH2nkdAfpV+7xbDzMr8iBAYHlQX9PT85yLryms0Xi7LgRWfclXBRe7qfpecl8hgeUugdsAWkHGbspNwv0aE1j7aX624t6De7xzRpKfqxPAdOpI0xcksNJLWHcBBFZdbaUrI7Ck5LjPnACBZY44XQMCK51k+wxMYO2jde9KCaxeUly3nACBtRx5+IYEVniJ9h2QwNpX+1srJ7DwRFgCBFZYadwGI7Dc0NP4jACBdUZov58TWPtpnmbFBFYaqZYNSmAtQ02jUQIE1iix+tcTWPU1TrtCAiutdGaDE1hmaCk8S4DAmiVY734Cq56mZVZEYJWRUm0hBJYaSgppEyCwtIna1Tv+JdFn7YNmDw9/bhx+1T6f2eGmckQCmD+iKv+bKdI/dRyV0os22CdRh2MufQIElj5TjYpa/7iexizRa3zETiu6RHrzEVh6LLUqsbMaI/mHdvkvxm7h6qwECKx4yvUeeseb3Geiv7W2P/ZpTdfVBAis1cTP+xFY54weX/H39ov3xm7h6qwECKx4yhFYY5rwSjjGK/XVBFY8+QisMU04dB/jlfpqAiuefBy692vC1xr6WZW4ksCKKSNfa7ivyxftx79sH744GtO/ZlMRWGZopwvf22kdr40v2+d7012eFuh9JcU7BvApeZ8ApsMhbxIgsPBEWAIEVlhp3AYjsNzQ0/iMAIF1Rmi/nxNY+2meZsUEVhqplg1KYC1DTaNRAgTWKLH61xNY9TVOu0ICK610ZoMTWGZoKTxLgMCaJVjvfgKrnqZlVkRglZFSbSEElhpKCmkTILC0ieavR2Dl17DsCgisstKKF0ZgidFxozUBAsuacL76BFY+zbaZmMDaRuruhRJY3ai4cDUBAms18fj9CKz4Gm07IYG1rfQ3F05g4YmwBAissNK4DUZguaGn8RkBAuuM0H4/J7D20zzNigmsNFItG5TAWoaaRqMECKxRYvWvJ7Dqa5x2hQRWWunMBiewzNBSeJYAgTVLsN79BFY9TcusiMAqI6XaQggsNZQU0iZAYGkTzV+PwMqvYdkVEFhlpRUvjMASo+NGawIEljXhfPUJrHyabTMxgbWN1N0LJbC6UXHhagIE1mri8fsRWPE12nZCAmtb6W8unMDCE2EJEFhhpXEbjMByQ0/jMwIE1hmh/X5OYO2neZoVE1hppFo2KIG1DDWNRgkQWKPE6l9PYNXXOO0KCay00pkNTmCZoaXwLAECa5ZgvfsJrHqallkRgVVGSrWFEFhqKCmkTYDA0iaavx6BlV/DsisgsMpKK14YgSVGx43WBAgsa8L56hNY+TTbZmICaxupuxdKYHWj4sLVBAis1cTj9vu6jfb2wHhHsD0buJ5LITBNgMCaRliiwDdtFRIvvGz3vVOCAItIQUBi0hQLY8huAqM7qzcLf9F+42fd3bgQAhMECKwJeEVu7T2zurdcfFTEDNGXgdGiK2Q/n0ZgHVPiJXuttu+Ayba3wINWYHEIj5fMCRBY5ohDN5Aett9aFIfwoeXOPxyBlV/DmRVo7a4ez8BOa0YR7r1LgMDa2yAWgXUQZae1t6/MVk9gmaENX9gqrC4Lx1vhLZBvQEyVTzONiUfD6viuluQLovhLQy1qfEsAQ+1nhtGwOggdPpHcx6vhfv4yXTGBZYo3XHFJ6FwCS/qNeDwWzgZ5B8JMebUbnVwaOI93SdKvQeCzUbW4/ioBjLSPMWZ2V48paQTfPtRZqSoBAksVZ8hi0oC5vApeW5S0Jt/RCmmRPEMRWHm0kkwqfYW7F1aXOaQ7Ng7iJUpyzysCBFZdI0h3QSO+kIYWvqvrO9OVYRxTvK7FV4SJNBTxnas18jbHOHm1O5t8RWAdM0j68Fp4ph4/v0qAwKppDEmIHCSkQSLth/9q+s9sVRjGDK1bYWl4zP4JnrQvHnSzSr7GmCWfZvcmloaGdGf15izS/viwlg/NVoNRzNAuLxwhLKSH8FqBuRw6DdcSILDW8rboJg2JmTMri10eXrRwR7GamCS3oNJd1WXVVvpL5po9Q8utJNN3EbAybFdzLpoiIAmFxw0ttZfu+ng1nLJE/ZstTVufnt8KI4fVhYr0rwWx0/LzVfjOBFZ4iZ4MKN29WL8GXiMpnZWdVj5fLpmYwFqCWbXJzO7KQ2/pvB6zqgpFMX0CmEKfqWVF6WvWMZPXrkW6yzpmxp+WbkpYG0PkEW3mwfd++KW7LO+587hjk0kJrBxCz+ysojz00tD6V1vAD3LIxJTWBAgsa8Lz9Y9XuWfCMl6vgbfGlYbWX1rBnwoZcFshAgRWbDE/beN9KBwxqrbS0Pp94/BrIQtuK0IgqqmL4J1ehvThjrazegxCehb371bk+TRRCqQmQGDFlk8aWNF1lZ7JRV9XbDcVmA4DxBZRElhZNJWEVpa1xXZV4ukwQGzxRgMrm54jr4f8lZ3YXl0yXTaDL4ESqMlIYGXVsnen9aemy88DacMoDgSymtwBlUvLP7au7590jnzA3gut56sbH7Vin/UW5LqaBAis2LoeX2n49GTEKg/yX9s6f3JjrS/a738SWyqmW0GAwFpBea7Hx+3237XPNa2qPchHQP+mfT54jezz179mZzXnoTJ3E1g5pORBzqETUxoTILCMAVMeAhDQI0Bg6bGkEgQgYEyAwDIGTHkIQECPAIGlx5JKEICAMQECyxgw5SEAAT0CBJYeSypBAALGBAgsY8CUhwAE9AgQWHosqQQBCBgTILCMAVMeAhDQI0Bg6bGkEgQgYEyAwDIGTHkIQECPwH8BAHORCsotNpUAAAAASUVORK5CYII=;" vertex="1" parent="1">
          <mxGeometry x="332" y="480" width="96" height="80" as="geometry" />
        </mxCell>
        <mxCell id="HIfz95Fh0vZ95EKHTSMD-26" value="" style="shape=image;verticalLabelPosition=bottom;labelBackgroundColor=default;verticalAlign=top;aspect=fixed;imageAspect=0;image=data:image/png,iVBORw0KGgoAAAANSUhEUgAAASwAAAD6CAYAAAAbbXrzAAAQQElEQVR4Xu2cTa5kRxGFn9umsRiAzAqQEGbsFdgDlgJjVuAG5B2wHyR7CR4CFiyBnwmWcRvyNl32o19V3czIiIyf/CyV5O53b0Tkd849yptd3W898B8EIACBJATeSjInY0IAAhB4ILAwAQQgkIYAgZVGKgaFAAQILDwAAQikIUBgpZGKQSEAAQILD0AAAmkIEFhppGJQCECAwMIDEIBAGgIEVhqpGBQCECCw8AAEIJCGAIGVRioGhQAECCw8AAEIpCFAYKWRikEhAAECCw9AAAJpCBBYaaRiUAhAgMDCAxCAQBoCBFYaqRgUAhAgsPAABCCQhgCBlUYqBoUABAgsPAABCKQhQGClkYpBIQABAgsPQAACaQgQWGmkYlAIQIDAwgMQgEAaAgRWGqkYFAIQILDwAAQgkIYAgZVGKgaFAAQILDwAAQikIUBgpZGKQSEAAQILD0AAAmkIEFhppGJQCECAwMIDEIBAGgIEVhqpGBQCECCw8AAEIJCGAIGVRioGhQAECCw8AAEIpCFAYKWRikEhAAECCw9AAAJpCBBYaaRiUAhAgMDCAxCAQBoCBFYaqRgUAhAgsPAABCCQhgCBlUYqBoUABAgsPAABCKQhQGClkYpBIQABAgsPQAACaQgQWGmkYlAIQIDAwgMQgEAaAgRWGqkYFAIQILDwAAQgkIYAgZVGKgaFAAQILDxwjcCH7TdftM8H7fOeAaKXreY7BnUpWZwAgVVcYMHyPm73/LZ9ngnuldzyTbvpbcmN3LMfAQJrP81vrfjL9oPn7ePtif8sDEvUT0bA25zJcJUbN0pIXQNLcJWz2/yCCKx5hhkrHK9hWbTnvCujw4xmzmJao+VvVTbybqpHCLzaQ6n4NZigrsCZdlEjKrDjGqFV7FoCq5igbTlVg+qxUpxv1fNt14oIrC5MKS76uk2509cD2GmlsKXukASWLk+Pav9oTX/o0ThAT0IrgAgrRyCwVtLW73U8sKu+4Kk/vV5FfKzHMnQlhA4tz93hjnOcSP8d8xyfntdSi3M2dluR3GA0C4FlBNaw7IqzqiN4vmqfdw3X8bi0VoBxGL9IMK82BJYXeVlfy13V6pC6RkBjfey0ZN5KcReBlUKmV0NqPMy3QiLSOZjGOvF1Hl8PTYqwQ7jcLtZ4iB8PH2E3dQ/m7Gsvvnazqm1jhLXlq1FdI6yynu1Iz7ayrlfDL6VrEFix5Z0NqwoPrnS3VWHtsd3pMB2B5QC9s6X0Qb2U/2f7nx919spwmSS8OYDPoOzAjATWAKzFl0oe0MuIVXWVvCJWZbHYjjHaIWYMHd6cQvJgHjV22FGMBjmvhjE9LpqKwBJhM79p9KE8BtpFS0mY78LG3JjeDRDSW4Gn/Qmrc01GGeHzc6YprkDIWDJJDtp31HCU046MYjlbaRqEVAKpVIadQz/IkVdDfN7PNfSVCBlHnpEH8Jiaw+T+v66Ez+P4fGoShJzCp3ozu6txnL3M8Pk425B3IGQcWXofvmPiHb6+0KNMLzN83kMzwTUIGUMkDpFlOhBYMm5p7yKwYkjX++Ad06LZd5r1coNZDJ9PT4GQ0winC4wetqMZgTVtuqwFML+/cr27hMukaEZg+bvWaQLM7wT+ddvRsOKw/f/16uWHz319rtYdIdVQDhcaPWjn/OopYgJr2Ha5byCw/PTrfdh4FbytUS9DfO7nc9XOCKmKs7vY6EE732q/jpbA6rZcjQsJLB8dex80dle39RkJfXzu43P1rgipjrSr4EhgcdA+t7vi7K/LkjkuIrB8dBoJLDQisHxcGrArD4OPKL2BhT7zB+6c//l43KQrD4QJ1tOiBNYporsXcH41xy/t3QSWj3QE1hz3Xn6cX81xDnc3geUjSe8Dhz5P9RnZXRFYPv4268oDYYb2bmECS869l93RgfMrOeeQdxJYPrL0PnTo81SfXnbsrny8bdqVB8IU783ivQ8d+sgDi92Vj7dNu/JAmOIlsJTxjpxf4W1l+BHKIaqPCuywZNx7ufE6KOMb/i4Cy0ei3gcPfb7Tp5fZ5Q7Y+XjbtCuimuLllVAJ7+i/Hcb5lRL4aGUILB9FencL6PPwMBpWvA76eHpJVx6IJZifNCGw+riPHLI/roiv+/imuwphfSTrDayddwuSndXBi3+Ox8fTS7oSWEswi3dYOx8gj4Q6uysfHy/vSmAtR/6qoeRh3EkrCZ+dd6M+LnboutND4ID3ZkvOZq6jkb4GElaR3G04C4FlCPektGQXUfl8RhrinFv5eXh5ZwJrOfJvG0p3ExU1k7K4vF4/85ORzisJVDT/Sn6zvSS7rEqvPzNBxc5q1n0J7yew/EXbNbRmXgEJK3/fukxAYLlgf9JUElqZ//rJ7M6q0i4zhgOTTEFgxRFKEloZdxqzOyvCKo5nl09CYC1HfrPh7K4jupaz67uAi77OOI4qOAnixxJVusuK/jDPrivjTjKWs4pMQ2DFE3L24Y6m6ex6CKt4HnWbKJq53UAEa6zxkHsfymu9AnqvI5g19h6HwIqrv0ZoeexOvmxNv6+EtfI3+5UQ7VWGwIqrt9YOZdX5lsaf/l1mJaji+tJ1MgLLFf9pc80QOJppv14du6nn7aPpI+0ZTyFzQR4CmkbLs+pck2rvtK6tfjQktIOUnVUuT7pNS2C5oRc11jrXEjU3vGk0MA1HoXRkAgRWZHWuz1YttPBgPg+6TYxZ3NCLG694RRQPN3gj/hsEtvvlGCanA6zOkFbR4E8BV5Eu1ofAyito1p0WnsvrOffJMY+7BKoDRD7fYlelKvWexQiserpH2nkdAfpV+7xbDzMr8iBAYHlQX9PT85yLryms0Xi7LgRWfclXBRe7qfpecl8hgeUugdsAWkHGbspNwv0aE1j7aX624t6De7xzRpKfqxPAdOpI0xcksNJLWHcBBFZdbaUrI7Ck5LjPnACBZY44XQMCK51k+wxMYO2jde9KCaxeUly3nACBtRx5+IYEVniJ9h2QwNpX+1srJ7DwRFgCBFZYadwGI7Dc0NP4jACBdUZov58TWPtpnmbFBFYaqZYNSmAtQ02jUQIE1iix+tcTWPU1TrtCAiutdGaDE1hmaCk8S4DAmiVY734Cq56mZVZEYJWRUm0hBJYaSgppEyCwtIna1Tv+JdFn7YNmDw9/bhx+1T6f2eGmckQCmD+iKv+bKdI/dRyV0os22CdRh2MufQIElj5TjYpa/7iexizRa3zETiu6RHrzEVh6LLUqsbMaI/mHdvkvxm7h6qwECKx4yvUeeseb3Geiv7W2P/ZpTdfVBAis1cTP+xFY54weX/H39ov3xm7h6qwECKx4yhFYY5rwSjjGK/XVBFY8+QisMU04dB/jlfpqAiuefBy692vC1xr6WZW4ksCKKSNfa7ivyxftx79sH744GtO/ZlMRWGZopwvf22kdr40v2+d7012eFuh9JcU7BvApeZ8ApsMhbxIgsPBEWAIEVlhp3AYjsNzQ0/iMAIF1Rmi/nxNY+2meZsUEVhqplg1KYC1DTaNRAgTWKLH61xNY9TVOu0ICK610ZoMTWGZoKTxLgMCaJVjvfgKrnqZlVkRglZFSbSEElhpKCmkTILC0ieavR2Dl17DsCgisstKKF0ZgidFxozUBAsuacL76BFY+zbaZmMDaRuruhRJY3ai4cDUBAms18fj9CKz4Gm07IYG1rfQ3F05g4YmwBAissNK4DUZguaGn8RkBAuuM0H4/J7D20zzNigmsNFItG5TAWoaaRqMECKxRYvWvJ7Dqa5x2hQRWWunMBiewzNBSeJYAgTVLsN79BFY9TcusiMAqI6XaQggsNZQU0iZAYGkTzV+PwMqvYdkVEFhlpRUvjMASo+NGawIEljXhfPUJrHyabTMxgbWN1N0LJbC6UXHhagIE1mri8fsRWPE12nZCAmtb6W8unMDCE2EJEFhhpXEbjMByQ0/jMwIE1hmh/X5OYO2neZoVE1hppFo2KIG1DDWNRgkQWKPE6l9PYNXXOO0KCay00pkNTmCZoaXwLAECa5ZgvfsJrHqallkRgVVGSrWFEFhqKCmkTYDA0iaavx6BlV/DsisgsMpKK14YgSVGx43WBAgsa8L56hNY+TTbZmICaxupuxdKYHWj4sLVBAis1cTj9vu6jfb2wHhHsD0buJ5LITBNgMCaRliiwDdtFRIvvGz3vVOCAItIQUBi0hQLY8huAqM7qzcLf9F+42fd3bgQAhMECKwJeEVu7T2zurdcfFTEDNGXgdGiK2Q/n0ZgHVPiJXuttu+Ayba3wINWYHEIj5fMCRBY5ohDN5Aett9aFIfwoeXOPxyBlV/DmRVo7a4ez8BOa0YR7r1LgMDa2yAWgXUQZae1t6/MVk9gmaENX9gqrC4Lx1vhLZBvQEyVTzONiUfD6viuluQLovhLQy1qfEsAQ+1nhtGwOggdPpHcx6vhfv4yXTGBZYo3XHFJ6FwCS/qNeDwWzgZ5B8JMebUbnVwaOI93SdKvQeCzUbW4/ioBjLSPMWZ2V48paQTfPtRZqSoBAksVZ8hi0oC5vApeW5S0Jt/RCmmRPEMRWHm0kkwqfYW7F1aXOaQ7Ng7iJUpyzysCBFZdI0h3QSO+kIYWvqvrO9OVYRxTvK7FV4SJNBTxnas18jbHOHm1O5t8RWAdM0j68Fp4ph4/v0qAwKppDEmIHCSkQSLth/9q+s9sVRjGDK1bYWl4zP4JnrQvHnSzSr7GmCWfZvcmloaGdGf15izS/viwlg/NVoNRzNAuLxwhLKSH8FqBuRw6DdcSILDW8rboJg2JmTMri10eXrRwR7GamCS3oNJd1WXVVvpL5po9Q8utJNN3EbAybFdzLpoiIAmFxw0ttZfu+ng1nLJE/ZstTVufnt8KI4fVhYr0rwWx0/LzVfjOBFZ4iZ4MKN29WL8GXiMpnZWdVj5fLpmYwFqCWbXJzO7KQ2/pvB6zqgpFMX0CmEKfqWVF6WvWMZPXrkW6yzpmxp+WbkpYG0PkEW3mwfd++KW7LO+587hjk0kJrBxCz+ysojz00tD6V1vAD3LIxJTWBAgsa8Lz9Y9XuWfCMl6vgbfGlYbWX1rBnwoZcFshAgRWbDE/beN9KBwxqrbS0Pp94/BrIQtuK0IgqqmL4J1ehvThjrazegxCehb371bk+TRRCqQmQGDFlk8aWNF1lZ7JRV9XbDcVmA4DxBZRElhZNJWEVpa1xXZV4ukwQGzxRgMrm54jr4f8lZ3YXl0yXTaDL4ESqMlIYGXVsnen9aemy88DacMoDgSymtwBlUvLP7au7590jnzA3gut56sbH7Vin/UW5LqaBAis2LoeX2n49GTEKg/yX9s6f3JjrS/a738SWyqmW0GAwFpBea7Hx+3237XPNa2qPchHQP+mfT54jezz179mZzXnoTJ3E1g5pORBzqETUxoTILCMAVMeAhDQI0Bg6bGkEgQgYEyAwDIGTHkIQECPAIGlx5JKEICAMQECyxgw5SEAAT0CBJYeSypBAALGBAgsY8CUhwAE9AgQWHosqQQBCBgTILCMAVMeAhDQI0Bg6bGkEgQgYEyAwDIGTHkIQECPwH8BAHORCsotNpUAAAAASUVORK5CYII=;" vertex="1" parent="1">
          <mxGeometry x="502.5" y="240" width="96" height="80" as="geometry" />
        </mxCell>
        <mxCell id="HIfz95Fh0vZ95EKHTSMD-27" value="" style="shape=image;verticalLabelPosition=bottom;labelBackgroundColor=default;verticalAlign=top;aspect=fixed;imageAspect=0;image=data:image/png,iVBORw0KGgoAAAANSUhEUgAAASwAAAD6CAYAAAAbbXrzAAAQQElEQVR4Xu2cTa5kRxGFn9umsRiAzAqQEGbsFdgDlgJjVuAG5B2wHyR7CR4CFiyBnwmWcRvyNl32o19V3czIiIyf/CyV5O53b0Tkd849yptd3W898B8EIACBJATeSjInY0IAAhB4ILAwAQQgkIYAgZVGKgaFAAQILDwAAQikIUBgpZGKQSEAAQILD0AAAmkIEFhppGJQCECAwMIDEIBAGgIEVhqpGBQCECCw8AAEIJCGAIGVRioGhQAECCw8AAEIpCFAYKWRikEhAAECCw9AAAJpCBBYaaRiUAhAgMDCAxCAQBoCBFYaqRgUAhAgsPAABCCQhgCBlUYqBoUABAgsPAABCKQhQGClkYpBIQABAgsPQAACaQgQWGmkYlAIQIDAwgMQgEAaAgRWGqkYFAIQILDwAAQgkIYAgZVGKgaFAAQILDwAAQikIUBgpZGKQSEAAQILD0AAAmkIEFhppGJQCECAwMIDEIBAGgIEVhqpGBQCECCw8AAEIJCGAIGVRioGhQAECCw8AAEIpCFAYKWRikEhAAECCw9AAAJpCBBYaaRiUAhAgMDCAxCAQBoCBFYaqRgUAhAgsPAABCCQhgCBlUYqBoUABAgsPAABCKQhQGClkYpBIQABAgsPQAACaQgQWGmkYlAIQIDAwgMQgEAaAgRWGqkYFAIQILDwAAQgkIYAgZVGKgaFAAQILDxwjcCH7TdftM8H7fOeAaKXreY7BnUpWZwAgVVcYMHyPm73/LZ9ngnuldzyTbvpbcmN3LMfAQJrP81vrfjL9oPn7ePtif8sDEvUT0bA25zJcJUbN0pIXQNLcJWz2/yCCKx5hhkrHK9hWbTnvCujw4xmzmJao+VvVTbybqpHCLzaQ6n4NZigrsCZdlEjKrDjGqFV7FoCq5igbTlVg+qxUpxv1fNt14oIrC5MKS76uk2509cD2GmlsKXukASWLk+Pav9oTX/o0ThAT0IrgAgrRyCwVtLW73U8sKu+4Kk/vV5FfKzHMnQlhA4tz93hjnOcSP8d8xyfntdSi3M2dluR3GA0C4FlBNaw7IqzqiN4vmqfdw3X8bi0VoBxGL9IMK82BJYXeVlfy13V6pC6RkBjfey0ZN5KcReBlUKmV0NqPMy3QiLSOZjGOvF1Hl8PTYqwQ7jcLtZ4iB8PH2E3dQ/m7Gsvvnazqm1jhLXlq1FdI6yynu1Iz7ayrlfDL6VrEFix5Z0NqwoPrnS3VWHtsd3pMB2B5QC9s6X0Qb2U/2f7nx919spwmSS8OYDPoOzAjATWAKzFl0oe0MuIVXWVvCJWZbHYjjHaIWYMHd6cQvJgHjV22FGMBjmvhjE9LpqKwBJhM79p9KE8BtpFS0mY78LG3JjeDRDSW4Gn/Qmrc01GGeHzc6YprkDIWDJJDtp31HCU046MYjlbaRqEVAKpVIadQz/IkVdDfN7PNfSVCBlHnpEH8Jiaw+T+v66Ez+P4fGoShJzCp3ozu6txnL3M8Pk425B3IGQcWXofvmPiHb6+0KNMLzN83kMzwTUIGUMkDpFlOhBYMm5p7yKwYkjX++Ad06LZd5r1coNZDJ9PT4GQ0winC4wetqMZgTVtuqwFML+/cr27hMukaEZg+bvWaQLM7wT+ddvRsOKw/f/16uWHz319rtYdIdVQDhcaPWjn/OopYgJr2Ha5byCw/PTrfdh4FbytUS9DfO7nc9XOCKmKs7vY6EE732q/jpbA6rZcjQsJLB8dex80dle39RkJfXzu43P1rgipjrSr4EhgcdA+t7vi7K/LkjkuIrB8dBoJLDQisHxcGrArD4OPKL2BhT7zB+6c//l43KQrD4QJ1tOiBNYporsXcH41xy/t3QSWj3QE1hz3Xn6cX81xDnc3geUjSe8Dhz5P9RnZXRFYPv4268oDYYb2bmECS869l93RgfMrOeeQdxJYPrL0PnTo81SfXnbsrny8bdqVB8IU783ivQ8d+sgDi92Vj7dNu/JAmOIlsJTxjpxf4W1l+BHKIaqPCuywZNx7ufE6KOMb/i4Cy0ei3gcPfb7Tp5fZ5Q7Y+XjbtCuimuLllVAJ7+i/Hcb5lRL4aGUILB9FencL6PPwMBpWvA76eHpJVx6IJZifNCGw+riPHLI/roiv+/imuwphfSTrDayddwuSndXBi3+Ox8fTS7oSWEswi3dYOx8gj4Q6uysfHy/vSmAtR/6qoeRh3EkrCZ+dd6M+LnboutND4ID3ZkvOZq6jkb4GElaR3G04C4FlCPektGQXUfl8RhrinFv5eXh5ZwJrOfJvG0p3ExU1k7K4vF4/85ORzisJVDT/Sn6zvSS7rEqvPzNBxc5q1n0J7yew/EXbNbRmXgEJK3/fukxAYLlgf9JUElqZ//rJ7M6q0i4zhgOTTEFgxRFKEloZdxqzOyvCKo5nl09CYC1HfrPh7K4jupaz67uAi77OOI4qOAnixxJVusuK/jDPrivjTjKWs4pMQ2DFE3L24Y6m6ex6CKt4HnWbKJq53UAEa6zxkHsfymu9AnqvI5g19h6HwIqrv0ZoeexOvmxNv6+EtfI3+5UQ7VWGwIqrt9YOZdX5lsaf/l1mJaji+tJ1MgLLFf9pc80QOJppv14du6nn7aPpI+0ZTyFzQR4CmkbLs+pck2rvtK6tfjQktIOUnVUuT7pNS2C5oRc11jrXEjU3vGk0MA1HoXRkAgRWZHWuz1YttPBgPg+6TYxZ3NCLG694RRQPN3gj/hsEtvvlGCanA6zOkFbR4E8BV5Eu1ofAyito1p0WnsvrOffJMY+7BKoDRD7fYlelKvWexQiserpH2nkdAfpV+7xbDzMr8iBAYHlQX9PT85yLryms0Xi7LgRWfclXBRe7qfpecl8hgeUugdsAWkHGbspNwv0aE1j7aX624t6De7xzRpKfqxPAdOpI0xcksNJLWHcBBFZdbaUrI7Ck5LjPnACBZY44XQMCK51k+wxMYO2jde9KCaxeUly3nACBtRx5+IYEVniJ9h2QwNpX+1srJ7DwRFgCBFZYadwGI7Dc0NP4jACBdUZov58TWPtpnmbFBFYaqZYNSmAtQ02jUQIE1iix+tcTWPU1TrtCAiutdGaDE1hmaCk8S4DAmiVY734Cq56mZVZEYJWRUm0hBJYaSgppEyCwtIna1Tv+JdFn7YNmDw9/bhx+1T6f2eGmckQCmD+iKv+bKdI/dRyV0os22CdRh2MufQIElj5TjYpa/7iexizRa3zETiu6RHrzEVh6LLUqsbMaI/mHdvkvxm7h6qwECKx4yvUeeseb3Geiv7W2P/ZpTdfVBAis1cTP+xFY54weX/H39ov3xm7h6qwECKx4yhFYY5rwSjjGK/XVBFY8+QisMU04dB/jlfpqAiuefBy692vC1xr6WZW4ksCKKSNfa7ivyxftx79sH744GtO/ZlMRWGZopwvf22kdr40v2+d7012eFuh9JcU7BvApeZ8ApsMhbxIgsPBEWAIEVlhp3AYjsNzQ0/iMAIF1Rmi/nxNY+2meZsUEVhqplg1KYC1DTaNRAgTWKLH61xNY9TVOu0ICK610ZoMTWGZoKTxLgMCaJVjvfgKrnqZlVkRglZFSbSEElhpKCmkTILC0ieavR2Dl17DsCgisstKKF0ZgidFxozUBAsuacL76BFY+zbaZmMDaRuruhRJY3ai4cDUBAms18fj9CKz4Gm07IYG1rfQ3F05g4YmwBAissNK4DUZguaGn8RkBAuuM0H4/J7D20zzNigmsNFItG5TAWoaaRqMECKxRYvWvJ7Dqa5x2hQRWWunMBiewzNBSeJYAgTVLsN79BFY9TcusiMAqI6XaQggsNZQU0iZAYGkTzV+PwMqvYdkVEFhlpRUvjMASo+NGawIEljXhfPUJrHyabTMxgbWN1N0LJbC6UXHhagIE1mri8fsRWPE12nZCAmtb6W8unMDCE2EJEFhhpXEbjMByQ0/jMwIE1hmh/X5OYO2neZoVE1hppFo2KIG1DDWNRgkQWKPE6l9PYNXXOO0KCay00pkNTmCZoaXwLAECa5ZgvfsJrHqallkRgVVGSrWFEFhqKCmkTYDA0iaavx6BlV/DsisgsMpKK14YgSVGx43WBAgsa8L56hNY+TTbZmICaxupuxdKYHWj4sLVBAis1cTj9vu6jfb2wHhHsD0buJ5LITBNgMCaRliiwDdtFRIvvGz3vVOCAItIQUBi0hQLY8huAqM7qzcLf9F+42fd3bgQAhMECKwJeEVu7T2zurdcfFTEDNGXgdGiK2Q/n0ZgHVPiJXuttu+Ayba3wINWYHEIj5fMCRBY5ohDN5Aett9aFIfwoeXOPxyBlV/DmRVo7a4ez8BOa0YR7r1LgMDa2yAWgXUQZae1t6/MVk9gmaENX9gqrC4Lx1vhLZBvQEyVTzONiUfD6viuluQLovhLQy1qfEsAQ+1nhtGwOggdPpHcx6vhfv4yXTGBZYo3XHFJ6FwCS/qNeDwWzgZ5B8JMebUbnVwaOI93SdKvQeCzUbW4/ioBjLSPMWZ2V48paQTfPtRZqSoBAksVZ8hi0oC5vApeW5S0Jt/RCmmRPEMRWHm0kkwqfYW7F1aXOaQ7Ng7iJUpyzysCBFZdI0h3QSO+kIYWvqvrO9OVYRxTvK7FV4SJNBTxnas18jbHOHm1O5t8RWAdM0j68Fp4ph4/v0qAwKppDEmIHCSkQSLth/9q+s9sVRjGDK1bYWl4zP4JnrQvHnSzSr7GmCWfZvcmloaGdGf15izS/viwlg/NVoNRzNAuLxwhLKSH8FqBuRw6DdcSILDW8rboJg2JmTMri10eXrRwR7GamCS3oNJd1WXVVvpL5po9Q8utJNN3EbAybFdzLpoiIAmFxw0ttZfu+ng1nLJE/ZstTVufnt8KI4fVhYr0rwWx0/LzVfjOBFZ4iZ4MKN29WL8GXiMpnZWdVj5fLpmYwFqCWbXJzO7KQ2/pvB6zqgpFMX0CmEKfqWVF6WvWMZPXrkW6yzpmxp+WbkpYG0PkEW3mwfd++KW7LO+587hjk0kJrBxCz+ysojz00tD6V1vAD3LIxJTWBAgsa8Lz9Y9XuWfCMl6vgbfGlYbWX1rBnwoZcFshAgRWbDE/beN9KBwxqrbS0Pp94/BrIQtuK0IgqqmL4J1ehvThjrazegxCehb371bk+TRRCqQmQGDFlk8aWNF1lZ7JRV9XbDcVmA4DxBZRElhZNJWEVpa1xXZV4ukwQGzxRgMrm54jr4f8lZ3YXl0yXTaDL4ESqMlIYGXVsnen9aemy88DacMoDgSymtwBlUvLP7au7590jnzA3gut56sbH7Vin/UW5LqaBAis2LoeX2n49GTEKg/yX9s6f3JjrS/a738SWyqmW0GAwFpBea7Hx+3237XPNa2qPchHQP+mfT54jezz179mZzXnoTJ3E1g5pORBzqETUxoTILCMAVMeAhDQI0Bg6bGkEgQgYEyAwDIGTHkIQECPAIGlx5JKEICAMQECyxgw5SEAAT0CBJYeSypBAALGBAgsY8CUhwAE9AgQWHosqQQBCBgTILCMAVMeAhDQI0Bg6bGkEgQgYEyAwDIGTHkIQECPwH8BAHORCsotNpUAAAAASUVORK5CYII=;" vertex="1" parent="1">
          <mxGeometry x="502.5" y="320" width="96" height="80" as="geometry" />
        </mxCell>
        <mxCell id="HIfz95Fh0vZ95EKHTSMD-28" value="" style="shape=image;verticalLabelPosition=bottom;labelBackgroundColor=default;verticalAlign=top;aspect=fixed;imageAspect=0;image=data:image/png,iVBORw0KGgoAAAANSUhEUgAAASwAAAD6CAYAAAAbbXrzAAAQQElEQVR4Xu2cTa5kRxGFn9umsRiAzAqQEGbsFdgDlgJjVuAG5B2wHyR7CR4CFiyBnwmWcRvyNl32o19V3czIiIyf/CyV5O53b0Tkd849yptd3W898B8EIACBJATeSjInY0IAAhB4ILAwAQQgkIYAgZVGKgaFAAQILDwAAQikIUBgpZGKQSEAAQILD0AAAmkIEFhppGJQCECAwMIDEIBAGgIEVhqpGBQCECCw8AAEIJCGAIGVRioGhQAECCw8AAEIpCFAYKWRikEhAAECCw9AAAJpCBBYaaRiUAhAgMDCAxCAQBoCBFYaqRgUAhAgsPAABCCQhgCBlUYqBoUABAgsPAABCKQhQGClkYpBIQABAgsPQAACaQgQWGmkYlAIQIDAwgMQgEAaAgRWGqkYFAIQILDwAAQgkIYAgZVGKgaFAAQILDwAAQikIUBgpZGKQSEAAQILD0AAAmkIEFhppGJQCECAwMIDEIBAGgIEVhqpGBQCECCw8AAEIJCGAIGVRioGhQAECCw8AAEIpCFAYKWRikEhAAECCw9AAAJpCBBYaaRiUAhAgMDCAxCAQBoCBFYaqRgUAhAgsPAABCCQhgCBlUYqBoUABAgsPAABCKQhQGClkYpBIQABAgsPQAACaQgQWGmkYlAIQIDAwgMQgEAaAgRWGqkYFAIQILDwAAQgkIYAgZVGKgaFAAQILDxwjcCH7TdftM8H7fOeAaKXreY7BnUpWZwAgVVcYMHyPm73/LZ9ngnuldzyTbvpbcmN3LMfAQJrP81vrfjL9oPn7ePtif8sDEvUT0bA25zJcJUbN0pIXQNLcJWz2/yCCKx5hhkrHK9hWbTnvCujw4xmzmJao+VvVTbybqpHCLzaQ6n4NZigrsCZdlEjKrDjGqFV7FoCq5igbTlVg+qxUpxv1fNt14oIrC5MKS76uk2509cD2GmlsKXukASWLk+Pav9oTX/o0ThAT0IrgAgrRyCwVtLW73U8sKu+4Kk/vV5FfKzHMnQlhA4tz93hjnOcSP8d8xyfntdSi3M2dluR3GA0C4FlBNaw7IqzqiN4vmqfdw3X8bi0VoBxGL9IMK82BJYXeVlfy13V6pC6RkBjfey0ZN5KcReBlUKmV0NqPMy3QiLSOZjGOvF1Hl8PTYqwQ7jcLtZ4iB8PH2E3dQ/m7Gsvvnazqm1jhLXlq1FdI6yynu1Iz7ayrlfDL6VrEFix5Z0NqwoPrnS3VWHtsd3pMB2B5QC9s6X0Qb2U/2f7nx919spwmSS8OYDPoOzAjATWAKzFl0oe0MuIVXWVvCJWZbHYjjHaIWYMHd6cQvJgHjV22FGMBjmvhjE9LpqKwBJhM79p9KE8BtpFS0mY78LG3JjeDRDSW4Gn/Qmrc01GGeHzc6YprkDIWDJJDtp31HCU046MYjlbaRqEVAKpVIadQz/IkVdDfN7PNfSVCBlHnpEH8Jiaw+T+v66Ez+P4fGoShJzCp3ozu6txnL3M8Pk425B3IGQcWXofvmPiHb6+0KNMLzN83kMzwTUIGUMkDpFlOhBYMm5p7yKwYkjX++Ad06LZd5r1coNZDJ9PT4GQ0winC4wetqMZgTVtuqwFML+/cr27hMukaEZg+bvWaQLM7wT+ddvRsOKw/f/16uWHz319rtYdIdVQDhcaPWjn/OopYgJr2Ha5byCw/PTrfdh4FbytUS9DfO7nc9XOCKmKs7vY6EE732q/jpbA6rZcjQsJLB8dex80dle39RkJfXzu43P1rgipjrSr4EhgcdA+t7vi7K/LkjkuIrB8dBoJLDQisHxcGrArD4OPKL2BhT7zB+6c//l43KQrD4QJ1tOiBNYporsXcH41xy/t3QSWj3QE1hz3Xn6cX81xDnc3geUjSe8Dhz5P9RnZXRFYPv4268oDYYb2bmECS869l93RgfMrOeeQdxJYPrL0PnTo81SfXnbsrny8bdqVB8IU783ivQ8d+sgDi92Vj7dNu/JAmOIlsJTxjpxf4W1l+BHKIaqPCuywZNx7ufE6KOMb/i4Cy0ei3gcPfb7Tp5fZ5Q7Y+XjbtCuimuLllVAJ7+i/Hcb5lRL4aGUILB9FencL6PPwMBpWvA76eHpJVx6IJZifNCGw+riPHLI/roiv+/imuwphfSTrDayddwuSndXBi3+Ox8fTS7oSWEswi3dYOx8gj4Q6uysfHy/vSmAtR/6qoeRh3EkrCZ+dd6M+LnboutND4ID3ZkvOZq6jkb4GElaR3G04C4FlCPektGQXUfl8RhrinFv5eXh5ZwJrOfJvG0p3ExU1k7K4vF4/85ORzisJVDT/Sn6zvSS7rEqvPzNBxc5q1n0J7yew/EXbNbRmXgEJK3/fukxAYLlgf9JUElqZ//rJ7M6q0i4zhgOTTEFgxRFKEloZdxqzOyvCKo5nl09CYC1HfrPh7K4jupaz67uAi77OOI4qOAnixxJVusuK/jDPrivjTjKWs4pMQ2DFE3L24Y6m6ex6CKt4HnWbKJq53UAEa6zxkHsfymu9AnqvI5g19h6HwIqrv0ZoeexOvmxNv6+EtfI3+5UQ7VWGwIqrt9YOZdX5lsaf/l1mJaji+tJ1MgLLFf9pc80QOJppv14du6nn7aPpI+0ZTyFzQR4CmkbLs+pck2rvtK6tfjQktIOUnVUuT7pNS2C5oRc11jrXEjU3vGk0MA1HoXRkAgRWZHWuz1YttPBgPg+6TYxZ3NCLG694RRQPN3gj/hsEtvvlGCanA6zOkFbR4E8BV5Eu1ofAyito1p0WnsvrOffJMY+7BKoDRD7fYlelKvWexQiserpH2nkdAfpV+7xbDzMr8iBAYHlQX9PT85yLryms0Xi7LgRWfclXBRe7qfpecl8hgeUugdsAWkHGbspNwv0aE1j7aX624t6De7xzRpKfqxPAdOpI0xcksNJLWHcBBFZdbaUrI7Ck5LjPnACBZY44XQMCK51k+wxMYO2jde9KCaxeUly3nACBtRx5+IYEVniJ9h2QwNpX+1srJ7DwRFgCBFZYadwGI7Dc0NP4jACBdUZov58TWPtpnmbFBFYaqZYNSmAtQ02jUQIE1iix+tcTWPU1TrtCAiutdGaDE1hmaCk8S4DAmiVY734Cq56mZVZEYJWRUm0hBJYaSgppEyCwtIna1Tv+JdFn7YNmDw9/bhx+1T6f2eGmckQCmD+iKv+bKdI/dRyV0os22CdRh2MufQIElj5TjYpa/7iexizRa3zETiu6RHrzEVh6LLUqsbMaI/mHdvkvxm7h6qwECKx4yvUeeseb3Geiv7W2P/ZpTdfVBAis1cTP+xFY54weX/H39ov3xm7h6qwECKx4yhFYY5rwSjjGK/XVBFY8+QisMU04dB/jlfpqAiuefBy692vC1xr6WZW4ksCKKSNfa7ivyxftx79sH744GtO/ZlMRWGZopwvf22kdr40v2+d7012eFuh9JcU7BvApeZ8ApsMhbxIgsPBEWAIEVlhp3AYjsNzQ0/iMAIF1Rmi/nxNY+2meZsUEVhqplg1KYC1DTaNRAgTWKLH61xNY9TVOu0ICK610ZoMTWGZoKTxLgMCaJVjvfgKrnqZlVkRglZFSbSEElhpKCmkTILC0ieavR2Dl17DsCgisstKKF0ZgidFxozUBAsuacL76BFY+zbaZmMDaRuruhRJY3ai4cDUBAms18fj9CKz4Gm07IYG1rfQ3F05g4YmwBAissNK4DUZguaGn8RkBAuuM0H4/J7D20zzNigmsNFItG5TAWoaaRqMECKxRYvWvJ7Dqa5x2hQRWWunMBiewzNBSeJYAgTVLsN79BFY9TcusiMAqI6XaQggsNZQU0iZAYGkTzV+PwMqvYdkVEFhlpRUvjMASo+NGawIEljXhfPUJrHyabTMxgbWN1N0LJbC6UXHhagIE1mri8fsRWPE12nZCAmtb6W8unMDCE2EJEFhhpXEbjMByQ0/jMwIE1hmh/X5OYO2neZoVE1hppFo2KIG1DDWNRgkQWKPE6l9PYNXXOO0KCay00pkNTmCZoaXwLAECa5ZgvfsJrHqallkRgVVGSrWFEFhqKCmkTYDA0iaavx6BlV/DsisgsMpKK14YgSVGx43WBAgsa8L56hNY+TTbZmICaxupuxdKYHWj4sLVBAis1cTj9vu6jfb2wHhHsD0buJ5LITBNgMCaRliiwDdtFRIvvGz3vVOCAItIQUBi0hQLY8huAqM7qzcLf9F+42fd3bgQAhMECKwJeEVu7T2zurdcfFTEDNGXgdGiK2Q/n0ZgHVPiJXuttu+Ayba3wINWYHEIj5fMCRBY5ohDN5Aett9aFIfwoeXOPxyBlV/DmRVo7a4ez8BOa0YR7r1LgMDa2yAWgXUQZae1t6/MVk9gmaENX9gqrC4Lx1vhLZBvQEyVTzONiUfD6viuluQLovhLQy1qfEsAQ+1nhtGwOggdPpHcx6vhfv4yXTGBZYo3XHFJ6FwCS/qNeDwWzgZ5B8JMebUbnVwaOI93SdKvQeCzUbW4/ioBjLSPMWZ2V48paQTfPtRZqSoBAksVZ8hi0oC5vApeW5S0Jt/RCmmRPEMRWHm0kkwqfYW7F1aXOaQ7Ng7iJUpyzysCBFZdI0h3QSO+kIYWvqvrO9OVYRxTvK7FV4SJNBTxnas18jbHOHm1O5t8RWAdM0j68Fp4ph4/v0qAwKppDEmIHCSkQSLth/9q+s9sVRjGDK1bYWl4zP4JnrQvHnSzSr7GmCWfZvcmloaGdGf15izS/viwlg/NVoNRzNAuLxwhLKSH8FqBuRw6DdcSILDW8rboJg2JmTMri10eXrRwR7GamCS3oNJd1WXVVvpL5po9Q8utJNN3EbAybFdzLpoiIAmFxw0ttZfu+ng1nLJE/ZstTVufnt8KI4fVhYr0rwWx0/LzVfjOBFZ4iZ4MKN29WL8GXiMpnZWdVj5fLpmYwFqCWbXJzO7KQ2/pvB6zqgpFMX0CmEKfqWVF6WvWMZPXrkW6yzpmxp+WbkpYG0PkEW3mwfd++KW7LO+587hjk0kJrBxCz+ysojz00tD6V1vAD3LIxJTWBAgsa8Lz9Y9XuWfCMl6vgbfGlYbWX1rBnwoZcFshAgRWbDE/beN9KBwxqrbS0Pp94/BrIQtuK0IgqqmL4J1ehvThjrazegxCehb371bk+TRRCqQmQGDFlk8aWNF1lZ7JRV9XbDcVmA4DxBZRElhZNJWEVpa1xXZV4ukwQGzxRgMrm54jr4f8lZ3YXl0yXTaDL4ESqMlIYGXVsnen9aemy88DacMoDgSymtwBlUvLP7au7590jnzA3gut56sbH7Vin/UW5LqaBAis2LoeX2n49GTEKg/yX9s6f3JjrS/a738SWyqmW0GAwFpBea7Hx+3237XPNa2qPchHQP+mfT54jezz179mZzXnoTJ3E1g5pORBzqETUxoTILCMAVMeAhDQI0Bg6bGkEgQgYEyAwDIGTHkIQECPAIGlx5JKEICAMQECyxgw5SEAAT0CBJYeSypBAALGBAgsY8CUhwAE9AgQWHosqQQBCBgTILCMAVMeAhDQI0Bg6bGkEgQgYEyAwDIGTHkIQECPwH8BAHORCsotNpUAAAAASUVORK5CYII=;" vertex="1" parent="1">
          <mxGeometry x="502.5" y="400" width="96" height="80" as="geometry" />
        </mxCell>
        <mxCell id="HIfz95Fh0vZ95EKHTSMD-29" value="" style="shape=image;verticalLabelPosition=bottom;labelBackgroundColor=default;verticalAlign=top;aspect=fixed;imageAspect=0;image=data:image/png,iVBORw0KGgoAAAANSUhEUgAAASwAAAD6CAYAAAAbbXrzAAAQQElEQVR4Xu2cTa5kRxGFn9umsRiAzAqQEGbsFdgDlgJjVuAG5B2wHyR7CR4CFiyBnwmWcRvyNl32o19V3czIiIyf/CyV5O53b0Tkd849yptd3W898B8EIACBJATeSjInY0IAAhB4ILAwAQQgkIYAgZVGKgaFAAQILDwAAQikIUBgpZGKQSEAAQILD0AAAmkIEFhppGJQCECAwMIDEIBAGgIEVhqpGBQCECCw8AAEIJCGAIGVRioGhQAECCw8AAEIpCFAYKWRikEhAAECCw9AAAJpCBBYaaRiUAhAgMDCAxCAQBoCBFYaqRgUAhAgsPAABCCQhgCBlUYqBoUABAgsPAABCKQhQGClkYpBIQABAgsPQAACaQgQWGmkYlAIQIDAwgMQgEAaAgRWGqkYFAIQILDwAAQgkIYAgZVGKgaFAAQILDwAAQikIUBgpZGKQSEAAQILD0AAAmkIEFhppGJQCECAwMIDEIBAGgIEVhqpGBQCECCw8AAEIJCGAIGVRioGhQAECCw8AAEIpCFAYKWRikEhAAECCw9AAAJpCBBYaaRiUAhAgMDCAxCAQBoCBFYaqRgUAhAgsPAABCCQhgCBlUYqBoUABAgsPAABCKQhQGClkYpBIQABAgsPQAACaQgQWGmkYlAIQIDAwgMQgEAaAgRWGqkYFAIQILDwAAQgkIYAgZVGKgaFAAQILDxwjcCH7TdftM8H7fOeAaKXreY7BnUpWZwAgVVcYMHyPm73/LZ9ngnuldzyTbvpbcmN3LMfAQJrP81vrfjL9oPn7ePtif8sDEvUT0bA25zJcJUbN0pIXQNLcJWz2/yCCKx5hhkrHK9hWbTnvCujw4xmzmJao+VvVTbybqpHCLzaQ6n4NZigrsCZdlEjKrDjGqFV7FoCq5igbTlVg+qxUpxv1fNt14oIrC5MKS76uk2509cD2GmlsKXukASWLk+Pav9oTX/o0ThAT0IrgAgrRyCwVtLW73U8sKu+4Kk/vV5FfKzHMnQlhA4tz93hjnOcSP8d8xyfntdSi3M2dluR3GA0C4FlBNaw7IqzqiN4vmqfdw3X8bi0VoBxGL9IMK82BJYXeVlfy13V6pC6RkBjfey0ZN5KcReBlUKmV0NqPMy3QiLSOZjGOvF1Hl8PTYqwQ7jcLtZ4iB8PH2E3dQ/m7Gsvvnazqm1jhLXlq1FdI6yynu1Iz7ayrlfDL6VrEFix5Z0NqwoPrnS3VWHtsd3pMB2B5QC9s6X0Qb2U/2f7nx919spwmSS8OYDPoOzAjATWAKzFl0oe0MuIVXWVvCJWZbHYjjHaIWYMHd6cQvJgHjV22FGMBjmvhjE9LpqKwBJhM79p9KE8BtpFS0mY78LG3JjeDRDSW4Gn/Qmrc01GGeHzc6YprkDIWDJJDtp31HCU046MYjlbaRqEVAKpVIadQz/IkVdDfN7PNfSVCBlHnpEH8Jiaw+T+v66Ez+P4fGoShJzCp3ozu6txnL3M8Pk425B3IGQcWXofvmPiHb6+0KNMLzN83kMzwTUIGUMkDpFlOhBYMm5p7yKwYkjX++Ad06LZd5r1coNZDJ9PT4GQ0winC4wetqMZgTVtuqwFML+/cr27hMukaEZg+bvWaQLM7wT+ddvRsOKw/f/16uWHz319rtYdIdVQDhcaPWjn/OopYgJr2Ha5byCw/PTrfdh4FbytUS9DfO7nc9XOCKmKs7vY6EE732q/jpbA6rZcjQsJLB8dex80dle39RkJfXzu43P1rgipjrSr4EhgcdA+t7vi7K/LkjkuIrB8dBoJLDQisHxcGrArD4OPKL2BhT7zB+6c//l43KQrD4QJ1tOiBNYporsXcH41xy/t3QSWj3QE1hz3Xn6cX81xDnc3geUjSe8Dhz5P9RnZXRFYPv4268oDYYb2bmECS869l93RgfMrOeeQdxJYPrL0PnTo81SfXnbsrny8bdqVB8IU783ivQ8d+sgDi92Vj7dNu/JAmOIlsJTxjpxf4W1l+BHKIaqPCuywZNx7ufE6KOMb/i4Cy0ei3gcPfb7Tp5fZ5Q7Y+XjbtCuimuLllVAJ7+i/Hcb5lRL4aGUILB9FencL6PPwMBpWvA76eHpJVx6IJZifNCGw+riPHLI/roiv+/imuwphfSTrDayddwuSndXBi3+Ox8fTS7oSWEswi3dYOx8gj4Q6uysfHy/vSmAtR/6qoeRh3EkrCZ+dd6M+LnboutND4ID3ZkvOZq6jkb4GElaR3G04C4FlCPektGQXUfl8RhrinFv5eXh5ZwJrOfJvG0p3ExU1k7K4vF4/85ORzisJVDT/Sn6zvSS7rEqvPzNBxc5q1n0J7yew/EXbNbRmXgEJK3/fukxAYLlgf9JUElqZ//rJ7M6q0i4zhgOTTEFgxRFKEloZdxqzOyvCKo5nl09CYC1HfrPh7K4jupaz67uAi77OOI4qOAnixxJVusuK/jDPrivjTjKWs4pMQ2DFE3L24Y6m6ex6CKt4HnWbKJq53UAEa6zxkHsfymu9AnqvI5g19h6HwIqrv0ZoeexOvmxNv6+EtfI3+5UQ7VWGwIqrt9YOZdX5lsaf/l1mJaji+tJ1MgLLFf9pc80QOJppv14du6nn7aPpI+0ZTyFzQR4CmkbLs+pck2rvtK6tfjQktIOUnVUuT7pNS2C5oRc11jrXEjU3vGk0MA1HoXRkAgRWZHWuz1YttPBgPg+6TYxZ3NCLG694RRQPN3gj/hsEtvvlGCanA6zOkFbR4E8BV5Eu1ofAyito1p0WnsvrOffJMY+7BKoDRD7fYlelKvWexQiserpH2nkdAfpV+7xbDzMr8iBAYHlQX9PT85yLryms0Xi7LgRWfclXBRe7qfpecl8hgeUugdsAWkHGbspNwv0aE1j7aX624t6De7xzRpKfqxPAdOpI0xcksNJLWHcBBFZdbaUrI7Ck5LjPnACBZY44XQMCK51k+wxMYO2jde9KCaxeUly3nACBtRx5+IYEVniJ9h2QwNpX+1srJ7DwRFgCBFZYadwGI7Dc0NP4jACBdUZov58TWPtpnmbFBFYaqZYNSmAtQ02jUQIE1iix+tcTWPU1TrtCAiutdGaDE1hmaCk8S4DAmiVY734Cq56mZVZEYJWRUm0hBJYaSgppEyCwtIna1Tv+JdFn7YNmDw9/bhx+1T6f2eGmckQCmD+iKv+bKdI/dRyV0os22CdRh2MufQIElj5TjYpa/7iexizRa3zETiu6RHrzEVh6LLUqsbMaI/mHdvkvxm7h6qwECKx4yvUeeseb3Geiv7W2P/ZpTdfVBAis1cTP+xFY54weX/H39ov3xm7h6qwECKx4yhFYY5rwSjjGK/XVBFY8+QisMU04dB/jlfpqAiuefBy692vC1xr6WZW4ksCKKSNfa7ivyxftx79sH744GtO/ZlMRWGZopwvf22kdr40v2+d7012eFuh9JcU7BvApeZ8ApsMhbxIgsPBEWAIEVlhp3AYjsNzQ0/iMAIF1Rmi/nxNY+2meZsUEVhqplg1KYC1DTaNRAgTWKLH61xNY9TVOu0ICK610ZoMTWGZoKTxLgMCaJVjvfgKrnqZlVkRglZFSbSEElhpKCmkTILC0ieavR2Dl17DsCgisstKKF0ZgidFxozUBAsuacL76BFY+zbaZmMDaRuruhRJY3ai4cDUBAms18fj9CKz4Gm07IYG1rfQ3F05g4YmwBAissNK4DUZguaGn8RkBAuuM0H4/J7D20zzNigmsNFItG5TAWoaaRqMECKxRYvWvJ7Dqa5x2hQRWWunMBiewzNBSeJYAgTVLsN79BFY9TcusiMAqI6XaQggsNZQU0iZAYGkTzV+PwMqvYdkVEFhlpRUvjMASo+NGawIEljXhfPUJrHyabTMxgbWN1N0LJbC6UXHhagIE1mri8fsRWPE12nZCAmtb6W8unMDCE2EJEFhhpXEbjMByQ0/jMwIE1hmh/X5OYO2neZoVE1hppFo2KIG1DDWNRgkQWKPE6l9PYNXXOO0KCay00pkNTmCZoaXwLAECa5ZgvfsJrHqallkRgVVGSrWFEFhqKCmkTYDA0iaavx6BlV/DsisgsMpKK14YgSVGx43WBAgsa8L56hNY+TTbZmICaxupuxdKYHWj4sLVBAis1cTj9vu6jfb2wHhHsD0buJ5LITBNgMCaRliiwDdtFRIvvGz3vVOCAItIQUBi0hQLY8huAqM7qzcLf9F+42fd3bgQAhMECKwJeEVu7T2zurdcfFTEDNGXgdGiK2Q/n0ZgHVPiJXuttu+Ayba3wINWYHEIj5fMCRBY5ohDN5Aett9aFIfwoeXOPxyBlV/DmRVo7a4ez8BOa0YR7r1LgMDa2yAWgXUQZae1t6/MVk9gmaENX9gqrC4Lx1vhLZBvQEyVTzONiUfD6viuluQLovhLQy1qfEsAQ+1nhtGwOggdPpHcx6vhfv4yXTGBZYo3XHFJ6FwCS/qNeDwWzgZ5B8JMebUbnVwaOI93SdKvQeCzUbW4/ioBjLSPMWZ2V48paQTfPtRZqSoBAksVZ8hi0oC5vApeW5S0Jt/RCmmRPEMRWHm0kkwqfYW7F1aXOaQ7Ng7iJUpyzysCBFZdI0h3QSO+kIYWvqvrO9OVYRxTvK7FV4SJNBTxnas18jbHOHm1O5t8RWAdM0j68Fp4ph4/v0qAwKppDEmIHCSkQSLth/9q+s9sVRjGDK1bYWl4zP4JnrQvHnSzSr7GmCWfZvcmloaGdGf15izS/viwlg/NVoNRzNAuLxwhLKSH8FqBuRw6DdcSILDW8rboJg2JmTMri10eXrRwR7GamCS3oNJd1WXVVvpL5po9Q8utJNN3EbAybFdzLpoiIAmFxw0ttZfu+ng1nLJE/ZstTVufnt8KI4fVhYr0rwWx0/LzVfjOBFZ4iZ4MKN29WL8GXiMpnZWdVj5fLpmYwFqCWbXJzO7KQ2/pvB6zqgpFMX0CmEKfqWVF6WvWMZPXrkW6yzpmxp+WbkpYG0PkEW3mwfd++KW7LO+587hjk0kJrBxCz+ysojz00tD6V1vAD3LIxJTWBAgsa8Lz9Y9XuWfCMl6vgbfGlYbWX1rBnwoZcFshAgRWbDE/beN9KBwxqrbS0Pp94/BrIQtuK0IgqqmL4J1ehvThjrazegxCehb371bk+TRRCqQmQGDFlk8aWNF1lZ7JRV9XbDcVmA4DxBZRElhZNJWEVpa1xXZV4ukwQGzxRgMrm54jr4f8lZ3YXl0yXTaDL4ESqMlIYGXVsnen9aemy88DacMoDgSymtwBlUvLP7au7590jnzA3gut56sbH7Vin/UW5LqaBAis2LoeX2n49GTEKg/yX9s6f3JjrS/a738SWyqmW0GAwFpBea7Hx+3237XPNa2qPchHQP+mfT54jezz179mZzXnoTJ3E1g5pORBzqETUxoTILCMAVMeAhDQI0Bg6bGkEgQgYEyAwDIGTHkIQECPAIGlx5JKEICAMQECyxgw5SEAAT0CBJYeSypBAALGBAgsY8CUhwAE9AgQWHosqQQBCBgTILCMAVMeAhDQI0Bg6bGkEgQgYEyAwDIGTHkIQECPwH8BAHORCsotNpUAAAAASUVORK5CYII=;" vertex="1" parent="1">
          <mxGeometry x="502.5" y="480" width="96" height="80" as="geometry" />
        </mxCell>
        <mxCell id="HIfz95Fh0vZ95EKHTSMD-30" value="" style="shape=image;verticalLabelPosition=bottom;labelBackgroundColor=default;verticalAlign=top;aspect=fixed;imageAspect=0;image=data:image/png,iVBORw0KGgoAAAANSUhEUgAAASwAAAD6CAYAAAAbbXrzAAAQQElEQVR4Xu2cTa5kRxGFn9umsRiAzAqQEGbsFdgDlgJjVuAG5B2wHyR7CR4CFiyBnwmWcRvyNl32o19V3czIiIyf/CyV5O53b0Tkd849yptd3W898B8EIACBJATeSjInY0IAAhB4ILAwAQQgkIYAgZVGKgaFAAQILDwAAQikIUBgpZGKQSEAAQILD0AAAmkIEFhppGJQCECAwMIDEIBAGgIEVhqpGBQCECCw8AAEIJCGAIGVRioGhQAECCw8AAEIpCFAYKWRikEhAAECCw9AAAJpCBBYaaRiUAhAgMDCAxCAQBoCBFYaqRgUAhAgsPAABCCQhgCBlUYqBoUABAgsPAABCKQhQGClkYpBIQABAgsPQAACaQgQWGmkYlAIQIDAwgMQgEAaAgRWGqkYFAIQILDwAAQgkIYAgZVGKgaFAAQILDwAAQikIUBgpZGKQSEAAQILD0AAAmkIEFhppGJQCECAwMIDEIBAGgIEVhqpGBQCECCw8AAEIJCGAIGVRioGhQAECCw8AAEIpCFAYKWRikEhAAECCw9AAAJpCBBYaaRiUAhAgMDCAxCAQBoCBFYaqRgUAhAgsPAABCCQhgCBlUYqBoUABAgsPAABCKQhQGClkYpBIQABAgsPQAACaQgQWGmkYlAIQIDAwgMQgEAaAgRWGqkYFAIQILDwAAQgkIYAgZVGKgaFAAQILDxwjcCH7TdftM8H7fOeAaKXreY7BnUpWZwAgVVcYMHyPm73/LZ9ngnuldzyTbvpbcmN3LMfAQJrP81vrfjL9oPn7ePtif8sDEvUT0bA25zJcJUbN0pIXQNLcJWz2/yCCKx5hhkrHK9hWbTnvCujw4xmzmJao+VvVTbybqpHCLzaQ6n4NZigrsCZdlEjKrDjGqFV7FoCq5igbTlVg+qxUpxv1fNt14oIrC5MKS76uk2509cD2GmlsKXukASWLk+Pav9oTX/o0ThAT0IrgAgrRyCwVtLW73U8sKu+4Kk/vV5FfKzHMnQlhA4tz93hjnOcSP8d8xyfntdSi3M2dluR3GA0C4FlBNaw7IqzqiN4vmqfdw3X8bi0VoBxGL9IMK82BJYXeVlfy13V6pC6RkBjfey0ZN5KcReBlUKmV0NqPMy3QiLSOZjGOvF1Hl8PTYqwQ7jcLtZ4iB8PH2E3dQ/m7Gsvvnazqm1jhLXlq1FdI6yynu1Iz7ayrlfDL6VrEFix5Z0NqwoPrnS3VWHtsd3pMB2B5QC9s6X0Qb2U/2f7nx919spwmSS8OYDPoOzAjATWAKzFl0oe0MuIVXWVvCJWZbHYjjHaIWYMHd6cQvJgHjV22FGMBjmvhjE9LpqKwBJhM79p9KE8BtpFS0mY78LG3JjeDRDSW4Gn/Qmrc01GGeHzc6YprkDIWDJJDtp31HCU046MYjlbaRqEVAKpVIadQz/IkVdDfN7PNfSVCBlHnpEH8Jiaw+T+v66Ez+P4fGoShJzCp3ozu6txnL3M8Pk425B3IGQcWXofvmPiHb6+0KNMLzN83kMzwTUIGUMkDpFlOhBYMm5p7yKwYkjX++Ad06LZd5r1coNZDJ9PT4GQ0winC4wetqMZgTVtuqwFML+/cr27hMukaEZg+bvWaQLM7wT+ddvRsOKw/f/16uWHz319rtYdIdVQDhcaPWjn/OopYgJr2Ha5byCw/PTrfdh4FbytUS9DfO7nc9XOCKmKs7vY6EE732q/jpbA6rZcjQsJLB8dex80dle39RkJfXzu43P1rgipjrSr4EhgcdA+t7vi7K/LkjkuIrB8dBoJLDQisHxcGrArD4OPKL2BhT7zB+6c//l43KQrD4QJ1tOiBNYporsXcH41xy/t3QSWj3QE1hz3Xn6cX81xDnc3geUjSe8Dhz5P9RnZXRFYPv4268oDYYb2bmECS869l93RgfMrOeeQdxJYPrL0PnTo81SfXnbsrny8bdqVB8IU783ivQ8d+sgDi92Vj7dNu/JAmOIlsJTxjpxf4W1l+BHKIaqPCuywZNx7ufE6KOMb/i4Cy0ei3gcPfb7Tp5fZ5Q7Y+XjbtCuimuLllVAJ7+i/Hcb5lRL4aGUILB9FencL6PPwMBpWvA76eHpJVx6IJZifNCGw+riPHLI/roiv+/imuwphfSTrDayddwuSndXBi3+Ox8fTS7oSWEswi3dYOx8gj4Q6uysfHy/vSmAtR/6qoeRh3EkrCZ+dd6M+LnboutND4ID3ZkvOZq6jkb4GElaR3G04C4FlCPektGQXUfl8RhrinFv5eXh5ZwJrOfJvG0p3ExU1k7K4vF4/85ORzisJVDT/Sn6zvSS7rEqvPzNBxc5q1n0J7yew/EXbNbRmXgEJK3/fukxAYLlgf9JUElqZ//rJ7M6q0i4zhgOTTEFgxRFKEloZdxqzOyvCKo5nl09CYC1HfrPh7K4jupaz67uAi77OOI4qOAnixxJVusuK/jDPrivjTjKWs4pMQ2DFE3L24Y6m6ex6CKt4HnWbKJq53UAEa6zxkHsfymu9AnqvI5g19h6HwIqrv0ZoeexOvmxNv6+EtfI3+5UQ7VWGwIqrt9YOZdX5lsaf/l1mJaji+tJ1MgLLFf9pc80QOJppv14du6nn7aPpI+0ZTyFzQR4CmkbLs+pck2rvtK6tfjQktIOUnVUuT7pNS2C5oRc11jrXEjU3vGk0MA1HoXRkAgRWZHWuz1YttPBgPg+6TYxZ3NCLG694RRQPN3gj/hsEtvvlGCanA6zOkFbR4E8BV5Eu1ofAyito1p0WnsvrOffJMY+7BKoDRD7fYlelKvWexQiserpH2nkdAfpV+7xbDzMr8iBAYHlQX9PT85yLryms0Xi7LgRWfclXBRe7qfpecl8hgeUugdsAWkHGbspNwv0aE1j7aX624t6De7xzRpKfqxPAdOpI0xcksNJLWHcBBFZdbaUrI7Ck5LjPnACBZY44XQMCK51k+wxMYO2jde9KCaxeUly3nACBtRx5+IYEVniJ9h2QwNpX+1srJ7DwRFgCBFZYadwGI7Dc0NP4jACBdUZov58TWPtpnmbFBFYaqZYNSmAtQ02jUQIE1iix+tcTWPU1TrtCAiutdGaDE1hmaCk8S4DAmiVY734Cq56mZVZEYJWRUm0hBJYaSgppEyCwtIna1Tv+JdFn7YNmDw9/bhx+1T6f2eGmckQCmD+iKv+bKdI/dRyV0os22CdRh2MufQIElj5TjYpa/7iexizRa3zETiu6RHrzEVh6LLUqsbMaI/mHdvkvxm7h6qwECKx4yvUeeseb3Geiv7W2P/ZpTdfVBAis1cTP+xFY54weX/H39ov3xm7h6qwECKx4yhFYY5rwSjjGK/XVBFY8+QisMU04dB/jlfpqAiuefBy692vC1xr6WZW4ksCKKSNfa7ivyxftx79sH744GtO/ZlMRWGZopwvf22kdr40v2+d7012eFuh9JcU7BvApeZ8ApsMhbxIgsPBEWAIEVlhp3AYjsNzQ0/iMAIF1Rmi/nxNY+2meZsUEVhqplg1KYC1DTaNRAgTWKLH61xNY9TVOu0ICK610ZoMTWGZoKTxLgMCaJVjvfgKrnqZlVkRglZFSbSEElhpKCmkTILC0ieavR2Dl17DsCgisstKKF0ZgidFxozUBAsuacL76BFY+zbaZmMDaRuruhRJY3ai4cDUBAms18fj9CKz4Gm07IYG1rfQ3F05g4YmwBAissNK4DUZguaGn8RkBAuuM0H4/J7D20zzNigmsNFItG5TAWoaaRqMECKxRYvWvJ7Dqa5x2hQRWWunMBiewzNBSeJYAgTVLsN79BFY9TcusiMAqI6XaQggsNZQU0iZAYGkTzV+PwMqvYdkVEFhlpRUvjMASo+NGawIEljXhfPUJrHyabTMxgbWN1N0LJbC6UXHhagIE1mri8fsRWPE12nZCAmtb6W8unMDCE2EJEFhhpXEbjMByQ0/jMwIE1hmh/X5OYO2neZoVE1hppFo2KIG1DDWNRgkQWKPE6l9PYNXXOO0KCay00pkNTmCZoaXwLAECa5ZgvfsJrHqallkRgVVGSrWFEFhqKCmkTYDA0iaavx6BlV/DsisgsMpKK14YgSVGx43WBAgsa8L56hNY+TTbZmICaxupuxdKYHWj4sLVBAis1cTj9vu6jfb2wHhHsD0buJ5LITBNgMCaRliiwDdtFRIvvGz3vVOCAItIQUBi0hQLY8huAqM7qzcLf9F+42fd3bgQAhMECKwJeEVu7T2zurdcfFTEDNGXgdGiK2Q/n0ZgHVPiJXuttu+Ayba3wINWYHEIj5fMCRBY5ohDN5Aett9aFIfwoeXOPxyBlV/DmRVo7a4ez8BOa0YR7r1LgMDa2yAWgXUQZae1t6/MVk9gmaENX9gqrC4Lx1vhLZBvQEyVTzONiUfD6viuluQLovhLQy1qfEsAQ+1nhtGwOggdPpHcx6vhfv4yXTGBZYo3XHFJ6FwCS/qNeDwWzgZ5B8JMebUbnVwaOI93SdKvQeCzUbW4/ioBjLSPMWZ2V48paQTfPtRZqSoBAksVZ8hi0oC5vApeW5S0Jt/RCmmRPEMRWHm0kkwqfYW7F1aXOaQ7Ng7iJUpyzysCBFZdI0h3QSO+kIYWvqvrO9OVYRxTvK7FV4SJNBTxnas18jbHOHm1O5t8RWAdM0j68Fp4ph4/v0qAwKppDEmIHCSkQSLth/9q+s9sVRjGDK1bYWl4zP4JnrQvHnSzSr7GmCWfZvcmloaGdGf15izS/viwlg/NVoNRzNAuLxwhLKSH8FqBuRw6DdcSILDW8rboJg2JmTMri10eXrRwR7GamCS3oNJd1WXVVvpL5po9Q8utJNN3EbAybFdzLpoiIAmFxw0ttZfu+ng1nLJE/ZstTVufnt8KI4fVhYr0rwWx0/LzVfjOBFZ4iZ4MKN29WL8GXiMpnZWdVj5fLpmYwFqCWbXJzO7KQ2/pvB6zqgpFMX0CmEKfqWVF6WvWMZPXrkW6yzpmxp+WbkpYG0PkEW3mwfd++KW7LO+587hjk0kJrBxCz+ysojz00tD6V1vAD3LIxJTWBAgsa8Lz9Y9XuWfCMl6vgbfGlYbWX1rBnwoZcFshAgRWbDE/beN9KBwxqrbS0Pp94/BrIQtuK0IgqqmL4J1ehvThjrazegxCehb371bk+TRRCqQmQGDFlk8aWNF1lZ7JRV9XbDcVmA4DxBZRElhZNJWEVpa1xXZV4ukwQGzxRgMrm54jr4f8lZ3YXl0yXTaDL4ESqMlIYGXVsnen9aemy88DacMoDgSymtwBlUvLP7au7590jnzA3gut56sbH7Vin/UW5LqaBAis2LoeX2n49GTEKg/yX9s6f3JjrS/a738SWyqmW0GAwFpBea7Hx+3237XPNa2qPchHQP+mfT54jezz179mZzXnoTJ3E1g5pORBzqETUxoTILCMAVMeAhDQI0Bg6bGkEgQgYEyAwDIGTHkIQECPAIGlx5JKEICAMQECyxgw5SEAAT0CBJYeSypBAALGBAgsY8CUhwAE9AgQWHosqQQBCBgTILCMAVMeAhDQI0Bg6bGkEgQgYEyAwDIGTHkIQECPwH8BAHORCsotNpUAAAAASUVORK5CYII=;" vertex="1" parent="1">
          <mxGeometry x="672" y="240" width="96" height="80" as="geometry" />
        </mxCell>
        <mxCell id="HIfz95Fh0vZ95EKHTSMD-31" value="" style="shape=image;verticalLabelPosition=bottom;labelBackgroundColor=default;verticalAlign=top;aspect=fixed;imageAspect=0;image=data:image/png,iVBORw0KGgoAAAANSUhEUgAAASwAAAD6CAYAAAAbbXrzAAAQQElEQVR4Xu2cTa5kRxGFn9umsRiAzAqQEGbsFdgDlgJjVuAG5B2wHyR7CR4CFiyBnwmWcRvyNl32o19V3czIiIyf/CyV5O53b0Tkd849yptd3W898B8EIACBJATeSjInY0IAAhB4ILAwAQQgkIYAgZVGKgaFAAQILDwAAQikIUBgpZGKQSEAAQILD0AAAmkIEFhppGJQCECAwMIDEIBAGgIEVhqpGBQCECCw8AAEIJCGAIGVRioGhQAECCw8AAEIpCFAYKWRikEhAAECCw9AAAJpCBBYaaRiUAhAgMDCAxCAQBoCBFYaqRgUAhAgsPAABCCQhgCBlUYqBoUABAgsPAABCKQhQGClkYpBIQABAgsPQAACaQgQWGmkYlAIQIDAwgMQgEAaAgRWGqkYFAIQILDwAAQgkIYAgZVGKgaFAAQILDwAAQikIUBgpZGKQSEAAQILD0AAAmkIEFhppGJQCECAwMIDEIBAGgIEVhqpGBQCECCw8AAEIJCGAIGVRioGhQAECCw8AAEIpCFAYKWRikEhAAECCw9AAAJpCBBYaaRiUAhAgMDCAxCAQBoCBFYaqRgUAhAgsPAABCCQhgCBlUYqBoUABAgsPAABCKQhQGClkYpBIQABAgsPQAACaQgQWGmkYlAIQIDAwgMQgEAaAgRWGqkYFAIQILDwAAQgkIYAgZVGKgaFAAQILDxwjcCH7TdftM8H7fOeAaKXreY7BnUpWZwAgVVcYMHyPm73/LZ9ngnuldzyTbvpbcmN3LMfAQJrP81vrfjL9oPn7ePtif8sDEvUT0bA25zJcJUbN0pIXQNLcJWz2/yCCKx5hhkrHK9hWbTnvCujw4xmzmJao+VvVTbybqpHCLzaQ6n4NZigrsCZdlEjKrDjGqFV7FoCq5igbTlVg+qxUpxv1fNt14oIrC5MKS76uk2509cD2GmlsKXukASWLk+Pav9oTX/o0ThAT0IrgAgrRyCwVtLW73U8sKu+4Kk/vV5FfKzHMnQlhA4tz93hjnOcSP8d8xyfntdSi3M2dluR3GA0C4FlBNaw7IqzqiN4vmqfdw3X8bi0VoBxGL9IMK82BJYXeVlfy13V6pC6RkBjfey0ZN5KcReBlUKmV0NqPMy3QiLSOZjGOvF1Hl8PTYqwQ7jcLtZ4iB8PH2E3dQ/m7Gsvvnazqm1jhLXlq1FdI6yynu1Iz7ayrlfDL6VrEFix5Z0NqwoPrnS3VWHtsd3pMB2B5QC9s6X0Qb2U/2f7nx919spwmSS8OYDPoOzAjATWAKzFl0oe0MuIVXWVvCJWZbHYjjHaIWYMHd6cQvJgHjV22FGMBjmvhjE9LpqKwBJhM79p9KE8BtpFS0mY78LG3JjeDRDSW4Gn/Qmrc01GGeHzc6YprkDIWDJJDtp31HCU046MYjlbaRqEVAKpVIadQz/IkVdDfN7PNfSVCBlHnpEH8Jiaw+T+v66Ez+P4fGoShJzCp3ozu6txnL3M8Pk425B3IGQcWXofvmPiHb6+0KNMLzN83kMzwTUIGUMkDpFlOhBYMm5p7yKwYkjX++Ad06LZd5r1coNZDJ9PT4GQ0winC4wetqMZgTVtuqwFML+/cr27hMukaEZg+bvWaQLM7wT+ddvRsOKw/f/16uWHz319rtYdIdVQDhcaPWjn/OopYgJr2Ha5byCw/PTrfdh4FbytUS9DfO7nc9XOCKmKs7vY6EE732q/jpbA6rZcjQsJLB8dex80dle39RkJfXzu43P1rgipjrSr4EhgcdA+t7vi7K/LkjkuIrB8dBoJLDQisHxcGrArD4OPKL2BhT7zB+6c//l43KQrD4QJ1tOiBNYporsXcH41xy/t3QSWj3QE1hz3Xn6cX81xDnc3geUjSe8Dhz5P9RnZXRFYPv4268oDYYb2bmECS869l93RgfMrOeeQdxJYPrL0PnTo81SfXnbsrny8bdqVB8IU783ivQ8d+sgDi92Vj7dNu/JAmOIlsJTxjpxf4W1l+BHKIaqPCuywZNx7ufE6KOMb/i4Cy0ei3gcPfb7Tp5fZ5Q7Y+XjbtCuimuLllVAJ7+i/Hcb5lRL4aGUILB9FencL6PPwMBpWvA76eHpJVx6IJZifNCGw+riPHLI/roiv+/imuwphfSTrDayddwuSndXBi3+Ox8fTS7oSWEswi3dYOx8gj4Q6uysfHy/vSmAtR/6qoeRh3EkrCZ+dd6M+LnboutND4ID3ZkvOZq6jkb4GElaR3G04C4FlCPektGQXUfl8RhrinFv5eXh5ZwJrOfJvG0p3ExU1k7K4vF4/85ORzisJVDT/Sn6zvSS7rEqvPzNBxc5q1n0J7yew/EXbNbRmXgEJK3/fukxAYLlgf9JUElqZ//rJ7M6q0i4zhgOTTEFgxRFKEloZdxqzOyvCKo5nl09CYC1HfrPh7K4jupaz67uAi77OOI4qOAnixxJVusuK/jDPrivjTjKWs4pMQ2DFE3L24Y6m6ex6CKt4HnWbKJq53UAEa6zxkHsfymu9AnqvI5g19h6HwIqrv0ZoeexOvmxNv6+EtfI3+5UQ7VWGwIqrt9YOZdX5lsaf/l1mJaji+tJ1MgLLFf9pc80QOJppv14du6nn7aPpI+0ZTyFzQR4CmkbLs+pck2rvtK6tfjQktIOUnVUuT7pNS2C5oRc11jrXEjU3vGk0MA1HoXRkAgRWZHWuz1YttPBgPg+6TYxZ3NCLG694RRQPN3gj/hsEtvvlGCanA6zOkFbR4E8BV5Eu1ofAyito1p0WnsvrOffJMY+7BKoDRD7fYlelKvWexQiserpH2nkdAfpV+7xbDzMr8iBAYHlQX9PT85yLryms0Xi7LgRWfclXBRe7qfpecl8hgeUugdsAWkHGbspNwv0aE1j7aX624t6De7xzRpKfqxPAdOpI0xcksNJLWHcBBFZdbaUrI7Ck5LjPnACBZY44XQMCK51k+wxMYO2jde9KCaxeUly3nACBtRx5+IYEVniJ9h2QwNpX+1srJ7DwRFgCBFZYadwGI7Dc0NP4jACBdUZov58TWPtpnmbFBFYaqZYNSmAtQ02jUQIE1iix+tcTWPU1TrtCAiutdGaDE1hmaCk8S4DAmiVY734Cq56mZVZEYJWRUm0hBJYaSgppEyCwtIna1Tv+JdFn7YNmDw9/bhx+1T6f2eGmckQCmD+iKv+bKdI/dRyV0os22CdRh2MufQIElj5TjYpa/7iexizRa3zETiu6RHrzEVh6LLUqsbMaI/mHdvkvxm7h6qwECKx4yvUeeseb3Geiv7W2P/ZpTdfVBAis1cTP+xFY54weX/H39ov3xm7h6qwECKx4yhFYY5rwSjjGK/XVBFY8+QisMU04dB/jlfpqAiuefBy692vC1xr6WZW4ksCKKSNfa7ivyxftx79sH744GtO/ZlMRWGZopwvf22kdr40v2+d7012eFuh9JcU7BvApeZ8ApsMhbxIgsPBEWAIEVlhp3AYjsNzQ0/iMAIF1Rmi/nxNY+2meZsUEVhqplg1KYC1DTaNRAgTWKLH61xNY9TVOu0ICK610ZoMTWGZoKTxLgMCaJVjvfgKrnqZlVkRglZFSbSEElhpKCmkTILC0ieavR2Dl17DsCgisstKKF0ZgidFxozUBAsuacL76BFY+zbaZmMDaRuruhRJY3ai4cDUBAms18fj9CKz4Gm07IYG1rfQ3F05g4YmwBAissNK4DUZguaGn8RkBAuuM0H4/J7D20zzNigmsNFItG5TAWoaaRqMECKxRYvWvJ7Dqa5x2hQRWWunMBiewzNBSeJYAgTVLsN79BFY9TcusiMAqI6XaQggsNZQU0iZAYGkTzV+PwMqvYdkVEFhlpRUvjMASo+NGawIEljXhfPUJrHyabTMxgbWN1N0LJbC6UXHhagIE1mri8fsRWPE12nZCAmtb6W8unMDCE2EJEFhhpXEbjMByQ0/jMwIE1hmh/X5OYO2neZoVE1hppFo2KIG1DDWNRgkQWKPE6l9PYNXXOO0KCay00pkNTmCZoaXwLAECa5ZgvfsJrHqallkRgVVGSrWFEFhqKCmkTYDA0iaavx6BlV/DsisgsMpKK14YgSVGx43WBAgsa8L56hNY+TTbZmICaxupuxdKYHWj4sLVBAis1cTj9vu6jfb2wHhHsD0buJ5LITBNgMCaRliiwDdtFRIvvGz3vVOCAItIQUBi0hQLY8huAqM7qzcLf9F+42fd3bgQAhMECKwJeEVu7T2zurdcfFTEDNGXgdGiK2Q/n0ZgHVPiJXuttu+Ayba3wINWYHEIj5fMCRBY5ohDN5Aett9aFIfwoeXOPxyBlV/DmRVo7a4ez8BOa0YR7r1LgMDa2yAWgXUQZae1t6/MVk9gmaENX9gqrC4Lx1vhLZBvQEyVTzONiUfD6viuluQLovhLQy1qfEsAQ+1nhtGwOggdPpHcx6vhfv4yXTGBZYo3XHFJ6FwCS/qNeDwWzgZ5B8JMebUbnVwaOI93SdKvQeCzUbW4/ioBjLSPMWZ2V48paQTfPtRZqSoBAksVZ8hi0oC5vApeW5S0Jt/RCmmRPEMRWHm0kkwqfYW7F1aXOaQ7Ng7iJUpyzysCBFZdI0h3QSO+kIYWvqvrO9OVYRxTvK7FV4SJNBTxnas18jbHOHm1O5t8RWAdM0j68Fp4ph4/v0qAwKppDEmIHCSkQSLth/9q+s9sVRjGDK1bYWl4zP4JnrQvHnSzSr7GmCWfZvcmloaGdGf15izS/viwlg/NVoNRzNAuLxwhLKSH8FqBuRw6DdcSILDW8rboJg2JmTMri10eXrRwR7GamCS3oNJd1WXVVvpL5po9Q8utJNN3EbAybFdzLpoiIAmFxw0ttZfu+ng1nLJE/ZstTVufnt8KI4fVhYr0rwWx0/LzVfjOBFZ4iZ4MKN29WL8GXiMpnZWdVj5fLpmYwFqCWbXJzO7KQ2/pvB6zqgpFMX0CmEKfqWVF6WvWMZPXrkW6yzpmxp+WbkpYG0PkEW3mwfd++KW7LO+587hjk0kJrBxCz+ysojz00tD6V1vAD3LIxJTWBAgsa8Lz9Y9XuWfCMl6vgbfGlYbWX1rBnwoZcFshAgRWbDE/beN9KBwxqrbS0Pp94/BrIQtuK0IgqqmL4J1ehvThjrazegxCehb371bk+TRRCqQmQGDFlk8aWNF1lZ7JRV9XbDcVmA4DxBZRElhZNJWEVpa1xXZV4ukwQGzxRgMrm54jr4f8lZ3YXl0yXTaDL4ESqMlIYGXVsnen9aemy88DacMoDgSymtwBlUvLP7au7590jnzA3gut56sbH7Vin/UW5LqaBAis2LoeX2n49GTEKg/yX9s6f3JjrS/a738SWyqmW0GAwFpBea7Hx+3237XPNa2qPchHQP+mfT54jezz179mZzXnoTJ3E1g5pORBzqETUxoTILCMAVMeAhDQI0Bg6bGkEgQgYEyAwDIGTHkIQECPAIGlx5JKEICAMQECyxgw5SEAAT0CBJYeSypBAALGBAgsY8CUhwAE9AgQWHosqQQBCBgTILCMAVMeAhDQI0Bg6bGkEgQgYEyAwDIGTHkIQECPwH8BAHORCsotNpUAAAAASUVORK5CYII=;" vertex="1" parent="1">
          <mxGeometry x="672" y="320" width="96" height="80" as="geometry" />
        </mxCell>
        <mxCell id="HIfz95Fh0vZ95EKHTSMD-32" value="" style="shape=image;verticalLabelPosition=bottom;labelBackgroundColor=default;verticalAlign=top;aspect=fixed;imageAspect=0;image=data:image/png,iVBORw0KGgoAAAANSUhEUgAAASwAAAD6CAYAAAAbbXrzAAAQQElEQVR4Xu2cTa5kRxGFn9umsRiAzAqQEGbsFdgDlgJjVuAG5B2wHyR7CR4CFiyBnwmWcRvyNl32o19V3czIiIyf/CyV5O53b0Tkd849yptd3W898B8EIACBJATeSjInY0IAAhB4ILAwAQQgkIYAgZVGKgaFAAQILDwAAQikIUBgpZGKQSEAAQILD0AAAmkIEFhppGJQCECAwMIDEIBAGgIEVhqpGBQCECCw8AAEIJCGAIGVRioGhQAECCw8AAEIpCFAYKWRikEhAAECCw9AAAJpCBBYaaRiUAhAgMDCAxCAQBoCBFYaqRgUAhAgsPAABCCQhgCBlUYqBoUABAgsPAABCKQhQGClkYpBIQABAgsPQAACaQgQWGmkYlAIQIDAwgMQgEAaAgRWGqkYFAIQILDwAAQgkIYAgZVGKgaFAAQILDwAAQikIUBgpZGKQSEAAQILD0AAAmkIEFhppGJQCECAwMIDEIBAGgIEVhqpGBQCECCw8AAEIJCGAIGVRioGhQAECCw8AAEIpCFAYKWRikEhAAECCw9AAAJpCBBYaaRiUAhAgMDCAxCAQBoCBFYaqRgUAhAgsPAABCCQhgCBlUYqBoUABAgsPAABCKQhQGClkYpBIQABAgsPQAACaQgQWGmkYlAIQIDAwgMQgEAaAgRWGqkYFAIQILDwAAQgkIYAgZVGKgaFAAQILDxwjcCH7TdftM8H7fOeAaKXreY7BnUpWZwAgVVcYMHyPm73/LZ9ngnuldzyTbvpbcmN3LMfAQJrP81vrfjL9oPn7ePtif8sDEvUT0bA25zJcJUbN0pIXQNLcJWz2/yCCKx5hhkrHK9hWbTnvCujw4xmzmJao+VvVTbybqpHCLzaQ6n4NZigrsCZdlEjKrDjGqFV7FoCq5igbTlVg+qxUpxv1fNt14oIrC5MKS76uk2509cD2GmlsKXukASWLk+Pav9oTX/o0ThAT0IrgAgrRyCwVtLW73U8sKu+4Kk/vV5FfKzHMnQlhA4tz93hjnOcSP8d8xyfntdSi3M2dluR3GA0C4FlBNaw7IqzqiN4vmqfdw3X8bi0VoBxGL9IMK82BJYXeVlfy13V6pC6RkBjfey0ZN5KcReBlUKmV0NqPMy3QiLSOZjGOvF1Hl8PTYqwQ7jcLtZ4iB8PH2E3dQ/m7Gsvvnazqm1jhLXlq1FdI6yynu1Iz7ayrlfDL6VrEFix5Z0NqwoPrnS3VWHtsd3pMB2B5QC9s6X0Qb2U/2f7nx919spwmSS8OYDPoOzAjATWAKzFl0oe0MuIVXWVvCJWZbHYjjHaIWYMHd6cQvJgHjV22FGMBjmvhjE9LpqKwBJhM79p9KE8BtpFS0mY78LG3JjeDRDSW4Gn/Qmrc01GGeHzc6YprkDIWDJJDtp31HCU046MYjlbaRqEVAKpVIadQz/IkVdDfN7PNfSVCBlHnpEH8Jiaw+T+v66Ez+P4fGoShJzCp3ozu6txnL3M8Pk425B3IGQcWXofvmPiHb6+0KNMLzN83kMzwTUIGUMkDpFlOhBYMm5p7yKwYkjX++Ad06LZd5r1coNZDJ9PT4GQ0winC4wetqMZgTVtuqwFML+/cr27hMukaEZg+bvWaQLM7wT+ddvRsOKw/f/16uWHz319rtYdIdVQDhcaPWjn/OopYgJr2Ha5byCw/PTrfdh4FbytUS9DfO7nc9XOCKmKs7vY6EE732q/jpbA6rZcjQsJLB8dex80dle39RkJfXzu43P1rgipjrSr4EhgcdA+t7vi7K/LkjkuIrB8dBoJLDQisHxcGrArD4OPKL2BhT7zB+6c//l43KQrD4QJ1tOiBNYporsXcH41xy/t3QSWj3QE1hz3Xn6cX81xDnc3geUjSe8Dhz5P9RnZXRFYPv4268oDYYb2bmECS869l93RgfMrOeeQdxJYPrL0PnTo81SfXnbsrny8bdqVB8IU783ivQ8d+sgDi92Vj7dNu/JAmOIlsJTxjpxf4W1l+BHKIaqPCuywZNx7ufE6KOMb/i4Cy0ei3gcPfb7Tp5fZ5Q7Y+XjbtCuimuLllVAJ7+i/Hcb5lRL4aGUILB9FencL6PPwMBpWvA76eHpJVx6IJZifNCGw+riPHLI/roiv+/imuwphfSTrDayddwuSndXBi3+Ox8fTS7oSWEswi3dYOx8gj4Q6uysfHy/vSmAtR/6qoeRh3EkrCZ+dd6M+LnboutND4ID3ZkvOZq6jkb4GElaR3G04C4FlCPektGQXUfl8RhrinFv5eXh5ZwJrOfJvG0p3ExU1k7K4vF4/85ORzisJVDT/Sn6zvSS7rEqvPzNBxc5q1n0J7yew/EXbNbRmXgEJK3/fukxAYLlgf9JUElqZ//rJ7M6q0i4zhgOTTEFgxRFKEloZdxqzOyvCKo5nl09CYC1HfrPh7K4jupaz67uAi77OOI4qOAnixxJVusuK/jDPrivjTjKWs4pMQ2DFE3L24Y6m6ex6CKt4HnWbKJq53UAEa6zxkHsfymu9AnqvI5g19h6HwIqrv0ZoeexOvmxNv6+EtfI3+5UQ7VWGwIqrt9YOZdX5lsaf/l1mJaji+tJ1MgLLFf9pc80QOJppv14du6nn7aPpI+0ZTyFzQR4CmkbLs+pck2rvtK6tfjQktIOUnVUuT7pNS2C5oRc11jrXEjU3vGk0MA1HoXRkAgRWZHWuz1YttPBgPg+6TYxZ3NCLG694RRQPN3gj/hsEtvvlGCanA6zOkFbR4E8BV5Eu1ofAyito1p0WnsvrOffJMY+7BKoDRD7fYlelKvWexQiserpH2nkdAfpV+7xbDzMr8iBAYHlQX9PT85yLryms0Xi7LgRWfclXBRe7qfpecl8hgeUugdsAWkHGbspNwv0aE1j7aX624t6De7xzRpKfqxPAdOpI0xcksNJLWHcBBFZdbaUrI7Ck5LjPnACBZY44XQMCK51k+wxMYO2jde9KCaxeUly3nACBtRx5+IYEVniJ9h2QwNpX+1srJ7DwRFgCBFZYadwGI7Dc0NP4jACBdUZov58TWPtpnmbFBFYaqZYNSmAtQ02jUQIE1iix+tcTWPU1TrtCAiutdGaDE1hmaCk8S4DAmiVY734Cq56mZVZEYJWRUm0hBJYaSgppEyCwtIna1Tv+JdFn7YNmDw9/bhx+1T6f2eGmckQCmD+iKv+bKdI/dRyV0os22CdRh2MufQIElj5TjYpa/7iexizRa3zETiu6RHrzEVh6LLUqsbMaI/mHdvkvxm7h6qwECKx4yvUeeseb3Geiv7W2P/ZpTdfVBAis1cTP+xFY54weX/H39ov3xm7h6qwECKx4yhFYY5rwSjjGK/XVBFY8+QisMU04dB/jlfpqAiuefBy692vC1xr6WZW4ksCKKSNfa7ivyxftx79sH744GtO/ZlMRWGZopwvf22kdr40v2+d7012eFuh9JcU7BvApeZ8ApsMhbxIgsPBEWAIEVlhp3AYjsNzQ0/iMAIF1Rmi/nxNY+2meZsUEVhqplg1KYC1DTaNRAgTWKLH61xNY9TVOu0ICK610ZoMTWGZoKTxLgMCaJVjvfgKrnqZlVkRglZFSbSEElhpKCmkTILC0ieavR2Dl17DsCgisstKKF0ZgidFxozUBAsuacL76BFY+zbaZmMDaRuruhRJY3ai4cDUBAms18fj9CKz4Gm07IYG1rfQ3F05g4YmwBAissNK4DUZguaGn8RkBAuuM0H4/J7D20zzNigmsNFItG5TAWoaaRqMECKxRYvWvJ7Dqa5x2hQRWWunMBiewzNBSeJYAgTVLsN79BFY9TcusiMAqI6XaQggsNZQU0iZAYGkTzV+PwMqvYdkVEFhlpRUvjMASo+NGawIEljXhfPUJrHyabTMxgbWN1N0LJbC6UXHhagIE1mri8fsRWPE12nZCAmtb6W8unMDCE2EJEFhhpXEbjMByQ0/jMwIE1hmh/X5OYO2neZoVE1hppFo2KIG1DDWNRgkQWKPE6l9PYNXXOO0KCay00pkNTmCZoaXwLAECa5ZgvfsJrHqallkRgVVGSrWFEFhqKCmkTYDA0iaavx6BlV/DsisgsMpKK14YgSVGx43WBAgsa8L56hNY+TTbZmICaxupuxdKYHWj4sLVBAis1cTj9vu6jfb2wHhHsD0buJ5LITBNgMCaRliiwDdtFRIvvGz3vVOCAItIQUBi0hQLY8huAqM7qzcLf9F+42fd3bgQAhMECKwJeEVu7T2zurdcfFTEDNGXgdGiK2Q/n0ZgHVPiJXuttu+Ayba3wINWYHEIj5fMCRBY5ohDN5Aett9aFIfwoeXOPxyBlV/DmRVo7a4ez8BOa0YR7r1LgMDa2yAWgXUQZae1t6/MVk9gmaENX9gqrC4Lx1vhLZBvQEyVTzONiUfD6viuluQLovhLQy1qfEsAQ+1nhtGwOggdPpHcx6vhfv4yXTGBZYo3XHFJ6FwCS/qNeDwWzgZ5B8JMebUbnVwaOI93SdKvQeCzUbW4/ioBjLSPMWZ2V48paQTfPtRZqSoBAksVZ8hi0oC5vApeW5S0Jt/RCmmRPEMRWHm0kkwqfYW7F1aXOaQ7Ng7iJUpyzysCBFZdI0h3QSO+kIYWvqvrO9OVYRxTvK7FV4SJNBTxnas18jbHOHm1O5t8RWAdM0j68Fp4ph4/v0qAwKppDEmIHCSkQSLth/9q+s9sVRjGDK1bYWl4zP4JnrQvHnSzSr7GmCWfZvcmloaGdGf15izS/viwlg/NVoNRzNAuLxwhLKSH8FqBuRw6DdcSILDW8rboJg2JmTMri10eXrRwR7GamCS3oNJd1WXVVvpL5po9Q8utJNN3EbAybFdzLpoiIAmFxw0ttZfu+ng1nLJE/ZstTVufnt8KI4fVhYr0rwWx0/LzVfjOBFZ4iZ4MKN29WL8GXiMpnZWdVj5fLpmYwFqCWbXJzO7KQ2/pvB6zqgpFMX0CmEKfqWVF6WvWMZPXrkW6yzpmxp+WbkpYG0PkEW3mwfd++KW7LO+587hjk0kJrBxCz+ysojz00tD6V1vAD3LIxJTWBAgsa8Lz9Y9XuWfCMl6vgbfGlYbWX1rBnwoZcFshAgRWbDE/beN9KBwxqrbS0Pp94/BrIQtuK0IgqqmL4J1ehvThjrazegxCehb371bk+TRRCqQmQGDFlk8aWNF1lZ7JRV9XbDcVmA4DxBZRElhZNJWEVpa1xXZV4ukwQGzxRgMrm54jr4f8lZ3YXl0yXTaDL4ESqMlIYGXVsnen9aemy88DacMoDgSymtwBlUvLP7au7590jnzA3gut56sbH7Vin/UW5LqaBAis2LoeX2n49GTEKg/yX9s6f3JjrS/a738SWyqmW0GAwFpBea7Hx+3237XPNa2qPchHQP+mfT54jezz179mZzXnoTJ3E1g5pORBzqETUxoTILCMAVMeAhDQI0Bg6bGkEgQgYEyAwDIGTHkIQECPAIGlx5JKEICAMQECyxgw5SEAAT0CBJYeSypBAALGBAgsY8CUhwAE9AgQWHosqQQBCBgTILCMAVMeAhDQI0Bg6bGkEgQgYEyAwDIGTHkIQECPwH8BAHORCsotNpUAAAAASUVORK5CYII=;" vertex="1" parent="1">
          <mxGeometry x="672" y="400" width="96" height="80" as="geometry" />
        </mxCell>
        <mxCell id="HIfz95Fh0vZ95EKHTSMD-33" value="" style="shape=image;verticalLabelPosition=bottom;labelBackgroundColor=default;verticalAlign=top;aspect=fixed;imageAspect=0;image=data:image/png,iVBORw0KGgoAAAANSUhEUgAAASwAAAD6CAYAAAAbbXrzAAAQQElEQVR4Xu2cTa5kRxGFn9umsRiAzAqQEGbsFdgDlgJjVuAG5B2wHyR7CR4CFiyBnwmWcRvyNl32o19V3czIiIyf/CyV5O53b0Tkd849yptd3W898B8EIACBJATeSjInY0IAAhB4ILAwAQQgkIYAgZVGKgaFAAQILDwAAQikIUBgpZGKQSEAAQILD0AAAmkIEFhppGJQCECAwMIDEIBAGgIEVhqpGBQCECCw8AAEIJCGAIGVRioGhQAECCw8AAEIpCFAYKWRikEhAAECCw9AAAJpCBBYaaRiUAhAgMDCAxCAQBoCBFYaqRgUAhAgsPAABCCQhgCBlUYqBoUABAgsPAABCKQhQGClkYpBIQABAgsPQAACaQgQWGmkYlAIQIDAwgMQgEAaAgRWGqkYFAIQILDwAAQgkIYAgZVGKgaFAAQILDwAAQikIUBgpZGKQSEAAQILD0AAAmkIEFhppGJQCECAwMIDEIBAGgIEVhqpGBQCECCw8AAEIJCGAIGVRioGhQAECCw8AAEIpCFAYKWRikEhAAECCw9AAAJpCBBYaaRiUAhAgMDCAxCAQBoCBFYaqRgUAhAgsPAABCCQhgCBlUYqBoUABAgsPAABCKQhQGClkYpBIQABAgsPQAACaQgQWGmkYlAIQIDAwgMQgEAaAgRWGqkYFAIQILDwAAQgkIYAgZVGKgaFAAQILDxwjcCH7TdftM8H7fOeAaKXreY7BnUpWZwAgVVcYMHyPm73/LZ9ngnuldzyTbvpbcmN3LMfAQJrP81vrfjL9oPn7ePtif8sDEvUT0bA25zJcJUbN0pIXQNLcJWz2/yCCKx5hhkrHK9hWbTnvCujw4xmzmJao+VvVTbybqpHCLzaQ6n4NZigrsCZdlEjKrDjGqFV7FoCq5igbTlVg+qxUpxv1fNt14oIrC5MKS76uk2509cD2GmlsKXukASWLk+Pav9oTX/o0ThAT0IrgAgrRyCwVtLW73U8sKu+4Kk/vV5FfKzHMnQlhA4tz93hjnOcSP8d8xyfntdSi3M2dluR3GA0C4FlBNaw7IqzqiN4vmqfdw3X8bi0VoBxGL9IMK82BJYXeVlfy13V6pC6RkBjfey0ZN5KcReBlUKmV0NqPMy3QiLSOZjGOvF1Hl8PTYqwQ7jcLtZ4iB8PH2E3dQ/m7Gsvvnazqm1jhLXlq1FdI6yynu1Iz7ayrlfDL6VrEFix5Z0NqwoPrnS3VWHtsd3pMB2B5QC9s6X0Qb2U/2f7nx919spwmSS8OYDPoOzAjATWAKzFl0oe0MuIVXWVvCJWZbHYjjHaIWYMHd6cQvJgHjV22FGMBjmvhjE9LpqKwBJhM79p9KE8BtpFS0mY78LG3JjeDRDSW4Gn/Qmrc01GGeHzc6YprkDIWDJJDtp31HCU046MYjlbaRqEVAKpVIadQz/IkVdDfN7PNfSVCBlHnpEH8Jiaw+T+v66Ez+P4fGoShJzCp3ozu6txnL3M8Pk425B3IGQcWXofvmPiHb6+0KNMLzN83kMzwTUIGUMkDpFlOhBYMm5p7yKwYkjX++Ad06LZd5r1coNZDJ9PT4GQ0winC4wetqMZgTVtuqwFML+/cr27hMukaEZg+bvWaQLM7wT+ddvRsOKw/f/16uWHz319rtYdIdVQDhcaPWjn/OopYgJr2Ha5byCw/PTrfdh4FbytUS9DfO7nc9XOCKmKs7vY6EE732q/jpbA6rZcjQsJLB8dex80dle39RkJfXzu43P1rgipjrSr4EhgcdA+t7vi7K/LkjkuIrB8dBoJLDQisHxcGrArD4OPKL2BhT7zB+6c//l43KQrD4QJ1tOiBNYporsXcH41xy/t3QSWj3QE1hz3Xn6cX81xDnc3geUjSe8Dhz5P9RnZXRFYPv4268oDYYb2bmECS869l93RgfMrOeeQdxJYPrL0PnTo81SfXnbsrny8bdqVB8IU783ivQ8d+sgDi92Vj7dNu/JAmOIlsJTxjpxf4W1l+BHKIaqPCuywZNx7ufE6KOMb/i4Cy0ei3gcPfb7Tp5fZ5Q7Y+XjbtCuimuLllVAJ7+i/Hcb5lRL4aGUILB9FencL6PPwMBpWvA76eHpJVx6IJZifNCGw+riPHLI/roiv+/imuwphfSTrDayddwuSndXBi3+Ox8fTS7oSWEswi3dYOx8gj4Q6uysfHy/vSmAtR/6qoeRh3EkrCZ+dd6M+LnboutND4ID3ZkvOZq6jkb4GElaR3G04C4FlCPektGQXUfl8RhrinFv5eXh5ZwJrOfJvG0p3ExU1k7K4vF4/85ORzisJVDT/Sn6zvSS7rEqvPzNBxc5q1n0J7yew/EXbNbRmXgEJK3/fukxAYLlgf9JUElqZ//rJ7M6q0i4zhgOTTEFgxRFKEloZdxqzOyvCKo5nl09CYC1HfrPh7K4jupaz67uAi77OOI4qOAnixxJVusuK/jDPrivjTjKWs4pMQ2DFE3L24Y6m6ex6CKt4HnWbKJq53UAEa6zxkHsfymu9AnqvI5g19h6HwIqrv0ZoeexOvmxNv6+EtfI3+5UQ7VWGwIqrt9YOZdX5lsaf/l1mJaji+tJ1MgLLFf9pc80QOJppv14du6nn7aPpI+0ZTyFzQR4CmkbLs+pck2rvtK6tfjQktIOUnVUuT7pNS2C5oRc11jrXEjU3vGk0MA1HoXRkAgRWZHWuz1YttPBgPg+6TYxZ3NCLG694RRQPN3gj/hsEtvvlGCanA6zOkFbR4E8BV5Eu1ofAyito1p0WnsvrOffJMY+7BKoDRD7fYlelKvWexQiserpH2nkdAfpV+7xbDzMr8iBAYHlQX9PT85yLryms0Xi7LgRWfclXBRe7qfpecl8hgeUugdsAWkHGbspNwv0aE1j7aX624t6De7xzRpKfqxPAdOpI0xcksNJLWHcBBFZdbaUrI7Ck5LjPnACBZY44XQMCK51k+wxMYO2jde9KCaxeUly3nACBtRx5+IYEVniJ9h2QwNpX+1srJ7DwRFgCBFZYadwGI7Dc0NP4jACBdUZov58TWPtpnmbFBFYaqZYNSmAtQ02jUQIE1iix+tcTWPU1TrtCAiutdGaDE1hmaCk8S4DAmiVY734Cq56mZVZEYJWRUm0hBJYaSgppEyCwtIna1Tv+JdFn7YNmDw9/bhx+1T6f2eGmckQCmD+iKv+bKdI/dRyV0os22CdRh2MufQIElj5TjYpa/7iexizRa3zETiu6RHrzEVh6LLUqsbMaI/mHdvkvxm7h6qwECKx4yvUeeseb3Geiv7W2P/ZpTdfVBAis1cTP+xFY54weX/H39ov3xm7h6qwECKx4yhFYY5rwSjjGK/XVBFY8+QisMU04dB/jlfpqAiuefBy692vC1xr6WZW4ksCKKSNfa7ivyxftx79sH744GtO/ZlMRWGZopwvf22kdr40v2+d7012eFuh9JcU7BvApeZ8ApsMhbxIgsPBEWAIEVlhp3AYjsNzQ0/iMAIF1Rmi/nxNY+2meZsUEVhqplg1KYC1DTaNRAgTWKLH61xNY9TVOu0ICK610ZoMTWGZoKTxLgMCaJVjvfgKrnqZlVkRglZFSbSEElhpKCmkTILC0ieavR2Dl17DsCgisstKKF0ZgidFxozUBAsuacL76BFY+zbaZmMDaRuruhRJY3ai4cDUBAms18fj9CKz4Gm07IYG1rfQ3F05g4YmwBAissNK4DUZguaGn8RkBAuuM0H4/J7D20zzNigmsNFItG5TAWoaaRqMECKxRYvWvJ7Dqa5x2hQRWWunMBiewzNBSeJYAgTVLsN79BFY9TcusiMAqI6XaQggsNZQU0iZAYGkTzV+PwMqvYdkVEFhlpRUvjMASo+NGawIEljXhfPUJrHyabTMxgbWN1N0LJbC6UXHhagIE1mri8fsRWPE12nZCAmtb6W8unMDCE2EJEFhhpXEbjMByQ0/jMwIE1hmh/X5OYO2neZoVE1hppFo2KIG1DDWNRgkQWKPE6l9PYNXXOO0KCay00pkNTmCZoaXwLAECa5ZgvfsJrHqallkRgVVGSrWFEFhqKCmkTYDA0iaavx6BlV/DsisgsMpKK14YgSVGx43WBAgsa8L56hNY+TTbZmICaxupuxdKYHWj4sLVBAis1cTj9vu6jfb2wHhHsD0buJ5LITBNgMCaRliiwDdtFRIvvGz3vVOCAItIQUBi0hQLY8huAqM7qzcLf9F+42fd3bgQAhMECKwJeEVu7T2zurdcfFTEDNGXgdGiK2Q/n0ZgHVPiJXuttu+Ayba3wINWYHEIj5fMCRBY5ohDN5Aett9aFIfwoeXOPxyBlV/DmRVo7a4ez8BOa0YR7r1LgMDa2yAWgXUQZae1t6/MVk9gmaENX9gqrC4Lx1vhLZBvQEyVTzONiUfD6viuluQLovhLQy1qfEsAQ+1nhtGwOggdPpHcx6vhfv4yXTGBZYo3XHFJ6FwCS/qNeDwWzgZ5B8JMebUbnVwaOI93SdKvQeCzUbW4/ioBjLSPMWZ2V48paQTfPtRZqSoBAksVZ8hi0oC5vApeW5S0Jt/RCmmRPEMRWHm0kkwqfYW7F1aXOaQ7Ng7iJUpyzysCBFZdI0h3QSO+kIYWvqvrO9OVYRxTvK7FV4SJNBTxnas18jbHOHm1O5t8RWAdM0j68Fp4ph4/v0qAwKppDEmIHCSkQSLth/9q+s9sVRjGDK1bYWl4zP4JnrQvHnSzSr7GmCWfZvcmloaGdGf15izS/viwlg/NVoNRzNAuLxwhLKSH8FqBuRw6DdcSILDW8rboJg2JmTMri10eXrRwR7GamCS3oNJd1WXVVvpL5po9Q8utJNN3EbAybFdzLpoiIAmFxw0ttZfu+ng1nLJE/ZstTVufnt8KI4fVhYr0rwWx0/LzVfjOBFZ4iZ4MKN29WL8GXiMpnZWdVj5fLpmYwFqCWbXJzO7KQ2/pvB6zqgpFMX0CmEKfqWVF6WvWMZPXrkW6yzpmxp+WbkpYG0PkEW3mwfd++KW7LO+587hjk0kJrBxCz+ysojz00tD6V1vAD3LIxJTWBAgsa8Lz9Y9XuWfCMl6vgbfGlYbWX1rBnwoZcFshAgRWbDE/beN9KBwxqrbS0Pp94/BrIQtuK0IgqqmL4J1ehvThjrazegxCehb371bk+TRRCqQmQGDFlk8aWNF1lZ7JRV9XbDcVmA4DxBZRElhZNJWEVpa1xXZV4ukwQGzxRgMrm54jr4f8lZ3YXl0yXTaDL4ESqMlIYGXVsnen9aemy88DacMoDgSymtwBlUvLP7au7590jnzA3gut56sbH7Vin/UW5LqaBAis2LoeX2n49GTEKg/yX9s6f3JjrS/a738SWyqmW0GAwFpBea7Hx+3237XPNa2qPchHQP+mfT54jezz179mZzXnoTJ3E1g5pORBzqETUxoTILCMAVMeAhDQI0Bg6bGkEgQgYEyAwDIGTHkIQECPAIGlx5JKEICAMQECyxgw5SEAAT0CBJYeSypBAALGBAgsY8CUhwAE9AgQWHosqQQBCBgTILCMAVMeAhDQI0Bg6bGkEgQgYEyAwDIGTHkIQECPwH8BAHORCsotNpUAAAAASUVORK5CYII=;" vertex="1" parent="1">
          <mxGeometry x="672" y="480" width="96" height="80" as="geometry" />
        </mxCell>
        <mxCell id="HIfz95Fh0vZ95EKHTSMD-34" value="" style="shape=image;verticalLabelPosition=bottom;labelBackgroundColor=default;verticalAlign=top;aspect=fixed;imageAspect=0;image=data:image/png,iVBORw0KGgoAAAANSUhEUgAAASwAAAD6CAYAAAAbbXrzAAAQQElEQVR4Xu2cTa5kRxGFn9umsRiAzAqQEGbsFdgDlgJjVuAG5B2wHyR7CR4CFiyBnwmWcRvyNl32o19V3czIiIyf/CyV5O53b0Tkd849yptd3W898B8EIACBJATeSjInY0IAAhB4ILAwAQQgkIYAgZVGKgaFAAQILDwAAQikIUBgpZGKQSEAAQILD0AAAmkIEFhppGJQCECAwMIDEIBAGgIEVhqpGBQCECCw8AAEIJCGAIGVRioGhQAECCw8AAEIpCFAYKWRikEhAAECCw9AAAJpCBBYaaRiUAhAgMDCAxCAQBoCBFYaqRgUAhAgsPAABCCQhgCBlUYqBoUABAgsPAABCKQhQGClkYpBIQABAgsPQAACaQgQWGmkYlAIQIDAwgMQgEAaAgRWGqkYFAIQILDwAAQgkIYAgZVGKgaFAAQILDwAAQikIUBgpZGKQSEAAQILD0AAAmkIEFhppGJQCECAwMIDEIBAGgIEVhqpGBQCECCw8AAEIJCGAIGVRioGhQAECCw8AAEIpCFAYKWRikEhAAECCw9AAAJpCBBYaaRiUAhAgMDCAxCAQBoCBFYaqRgUAhAgsPAABCCQhgCBlUYqBoUABAgsPAABCKQhQGClkYpBIQABAgsPQAACaQgQWGmkYlAIQIDAwgMQgEAaAgRWGqkYFAIQILDwAAQgkIYAgZVGKgaFAAQILDxwjcCH7TdftM8H7fOeAaKXreY7BnUpWZwAgVVcYMHyPm73/LZ9ngnuldzyTbvpbcmN3LMfAQJrP81vrfjL9oPn7ePtif8sDEvUT0bA25zJcJUbN0pIXQNLcJWz2/yCCKx5hhkrHK9hWbTnvCujw4xmzmJao+VvVTbybqpHCLzaQ6n4NZigrsCZdlEjKrDjGqFV7FoCq5igbTlVg+qxUpxv1fNt14oIrC5MKS76uk2509cD2GmlsKXukASWLk+Pav9oTX/o0ThAT0IrgAgrRyCwVtLW73U8sKu+4Kk/vV5FfKzHMnQlhA4tz93hjnOcSP8d8xyfntdSi3M2dluR3GA0C4FlBNaw7IqzqiN4vmqfdw3X8bi0VoBxGL9IMK82BJYXeVlfy13V6pC6RkBjfey0ZN5KcReBlUKmV0NqPMy3QiLSOZjGOvF1Hl8PTYqwQ7jcLtZ4iB8PH2E3dQ/m7Gsvvnazqm1jhLXlq1FdI6yynu1Iz7ayrlfDL6VrEFix5Z0NqwoPrnS3VWHtsd3pMB2B5QC9s6X0Qb2U/2f7nx919spwmSS8OYDPoOzAjATWAKzFl0oe0MuIVXWVvCJWZbHYjjHaIWYMHd6cQvJgHjV22FGMBjmvhjE9LpqKwBJhM79p9KE8BtpFS0mY78LG3JjeDRDSW4Gn/Qmrc01GGeHzc6YprkDIWDJJDtp31HCU046MYjlbaRqEVAKpVIadQz/IkVdDfN7PNfSVCBlHnpEH8Jiaw+T+v66Ez+P4fGoShJzCp3ozu6txnL3M8Pk425B3IGQcWXofvmPiHb6+0KNMLzN83kMzwTUIGUMkDpFlOhBYMm5p7yKwYkjX++Ad06LZd5r1coNZDJ9PT4GQ0winC4wetqMZgTVtuqwFML+/cr27hMukaEZg+bvWaQLM7wT+ddvRsOKw/f/16uWHz319rtYdIdVQDhcaPWjn/OopYgJr2Ha5byCw/PTrfdh4FbytUS9DfO7nc9XOCKmKs7vY6EE732q/jpbA6rZcjQsJLB8dex80dle39RkJfXzu43P1rgipjrSr4EhgcdA+t7vi7K/LkjkuIrB8dBoJLDQisHxcGrArD4OPKL2BhT7zB+6c//l43KQrD4QJ1tOiBNYporsXcH41xy/t3QSWj3QE1hz3Xn6cX81xDnc3geUjSe8Dhz5P9RnZXRFYPv4268oDYYb2bmECS869l93RgfMrOeeQdxJYPrL0PnTo81SfXnbsrny8bdqVB8IU783ivQ8d+sgDi92Vj7dNu/JAmOIlsJTxjpxf4W1l+BHKIaqPCuywZNx7ufE6KOMb/i4Cy0ei3gcPfb7Tp5fZ5Q7Y+XjbtCuimuLllVAJ7+i/Hcb5lRL4aGUILB9FencL6PPwMBpWvA76eHpJVx6IJZifNCGw+riPHLI/roiv+/imuwphfSTrDayddwuSndXBi3+Ox8fTS7oSWEswi3dYOx8gj4Q6uysfHy/vSmAtR/6qoeRh3EkrCZ+dd6M+LnboutND4ID3ZkvOZq6jkb4GElaR3G04C4FlCPektGQXUfl8RhrinFv5eXh5ZwJrOfJvG0p3ExU1k7K4vF4/85ORzisJVDT/Sn6zvSS7rEqvPzNBxc5q1n0J7yew/EXbNbRmXgEJK3/fukxAYLlgf9JUElqZ//rJ7M6q0i4zhgOTTEFgxRFKEloZdxqzOyvCKo5nl09CYC1HfrPh7K4jupaz67uAi77OOI4qOAnixxJVusuK/jDPrivjTjKWs4pMQ2DFE3L24Y6m6ex6CKt4HnWbKJq53UAEa6zxkHsfymu9AnqvI5g19h6HwIqrv0ZoeexOvmxNv6+EtfI3+5UQ7VWGwIqrt9YOZdX5lsaf/l1mJaji+tJ1MgLLFf9pc80QOJppv14du6nn7aPpI+0ZTyFzQR4CmkbLs+pck2rvtK6tfjQktIOUnVUuT7pNS2C5oRc11jrXEjU3vGk0MA1HoXRkAgRWZHWuz1YttPBgPg+6TYxZ3NCLG694RRQPN3gj/hsEtvvlGCanA6zOkFbR4E8BV5Eu1ofAyito1p0WnsvrOffJMY+7BKoDRD7fYlelKvWexQiserpH2nkdAfpV+7xbDzMr8iBAYHlQX9PT85yLryms0Xi7LgRWfclXBRe7qfpecl8hgeUugdsAWkHGbspNwv0aE1j7aX624t6De7xzRpKfqxPAdOpI0xcksNJLWHcBBFZdbaUrI7Ck5LjPnACBZY44XQMCK51k+wxMYO2jde9KCaxeUly3nACBtRx5+IYEVniJ9h2QwNpX+1srJ7DwRFgCBFZYadwGI7Dc0NP4jACBdUZov58TWPtpnmbFBFYaqZYNSmAtQ02jUQIE1iix+tcTWPU1TrtCAiutdGaDE1hmaCk8S4DAmiVY734Cq56mZVZEYJWRUm0hBJYaSgppEyCwtIna1Tv+JdFn7YNmDw9/bhx+1T6f2eGmckQCmD+iKv+bKdI/dRyV0os22CdRh2MufQIElj5TjYpa/7iexizRa3zETiu6RHrzEVh6LLUqsbMaI/mHdvkvxm7h6qwECKx4yvUeeseb3Geiv7W2P/ZpTdfVBAis1cTP+xFY54weX/H39ov3xm7h6qwECKx4yhFYY5rwSjjGK/XVBFY8+QisMU04dB/jlfpqAiuefBy692vC1xr6WZW4ksCKKSNfa7ivyxftx79sH744GtO/ZlMRWGZopwvf22kdr40v2+d7012eFuh9JcU7BvApeZ8ApsMhbxIgsPBEWAIEVlhp3AYjsNzQ0/iMAIF1Rmi/nxNY+2meZsUEVhqplg1KYC1DTaNRAgTWKLH61xNY9TVOu0ICK610ZoMTWGZoKTxLgMCaJVjvfgKrnqZlVkRglZFSbSEElhpKCmkTILC0ieavR2Dl17DsCgisstKKF0ZgidFxozUBAsuacL76BFY+zbaZmMDaRuruhRJY3ai4cDUBAms18fj9CKz4Gm07IYG1rfQ3F05g4YmwBAissNK4DUZguaGn8RkBAuuM0H4/J7D20zzNigmsNFItG5TAWoaaRqMECKxRYvWvJ7Dqa5x2hQRWWunMBiewzNBSeJYAgTVLsN79BFY9TcusiMAqI6XaQggsNZQU0iZAYGkTzV+PwMqvYdkVEFhlpRUvjMASo+NGawIEljXhfPUJrHyabTMxgbWN1N0LJbC6UXHhagIE1mri8fsRWPE12nZCAmtb6W8unMDCE2EJEFhhpXEbjMByQ0/jMwIE1hmh/X5OYO2neZoVE1hppFo2KIG1DDWNRgkQWKPE6l9PYNXXOO0KCay00pkNTmCZoaXwLAECa5ZgvfsJrHqallkRgVVGSrWFEFhqKCmkTYDA0iaavx6BlV/DsisgsMpKK14YgSVGx43WBAgsa8L56hNY+TTbZmICaxupuxdKYHWj4sLVBAis1cTj9vu6jfb2wHhHsD0buJ5LITBNgMCaRliiwDdtFRIvvGz3vVOCAItIQUBi0hQLY8huAqM7qzcLf9F+42fd3bgQAhMECKwJeEVu7T2zurdcfFTEDNGXgdGiK2Q/n0ZgHVPiJXuttu+Ayba3wINWYHEIj5fMCRBY5ohDN5Aett9aFIfwoeXOPxyBlV/DmRVo7a4ez8BOa0YR7r1LgMDa2yAWgXUQZae1t6/MVk9gmaENX9gqrC4Lx1vhLZBvQEyVTzONiUfD6viuluQLovhLQy1qfEsAQ+1nhtGwOggdPpHcx6vhfv4yXTGBZYo3XHFJ6FwCS/qNeDwWzgZ5B8JMebUbnVwaOI93SdKvQeCzUbW4/ioBjLSPMWZ2V48paQTfPtRZqSoBAksVZ8hi0oC5vApeW5S0Jt/RCmmRPEMRWHm0kkwqfYW7F1aXOaQ7Ng7iJUpyzysCBFZdI0h3QSO+kIYWvqvrO9OVYRxTvK7FV4SJNBTxnas18jbHOHm1O5t8RWAdM0j68Fp4ph4/v0qAwKppDEmIHCSkQSLth/9q+s9sVRjGDK1bYWl4zP4JnrQvHnSzSr7GmCWfZvcmloaGdGf15izS/viwlg/NVoNRzNAuLxwhLKSH8FqBuRw6DdcSILDW8rboJg2JmTMri10eXrRwR7GamCS3oNJd1WXVVvpL5po9Q8utJNN3EbAybFdzLpoiIAmFxw0ttZfu+ng1nLJE/ZstTVufnt8KI4fVhYr0rwWx0/LzVfjOBFZ4iZ4MKN29WL8GXiMpnZWdVj5fLpmYwFqCWbXJzO7KQ2/pvB6zqgpFMX0CmEKfqWVF6WvWMZPXrkW6yzpmxp+WbkpYG0PkEW3mwfd++KW7LO+587hjk0kJrBxCz+ysojz00tD6V1vAD3LIxJTWBAgsa8Lz9Y9XuWfCMl6vgbfGlYbWX1rBnwoZcFshAgRWbDE/beN9KBwxqrbS0Pp94/BrIQtuK0IgqqmL4J1ehvThjrazegxCehb371bk+TRRCqQmQGDFlk8aWNF1lZ7JRV9XbDcVmA4DxBZRElhZNJWEVpa1xXZV4ukwQGzxRgMrm54jr4f8lZ3YXl0yXTaDL4ESqMlIYGXVsnen9aemy88DacMoDgSymtwBlUvLP7au7590jnzA3gut56sbH7Vin/UW5LqaBAis2LoeX2n49GTEKg/yX9s6f3JjrS/a738SWyqmW0GAwFpBea7Hx+3237XPNa2qPchHQP+mfT54jezz179mZzXnoTJ3E1g5pORBzqETUxoTILCMAVMeAhDQI0Bg6bGkEgQgYEyAwDIGTHkIQECPAIGlx5JKEICAMQECyxgw5SEAAT0CBJYeSypBAALGBAgsY8CUhwAE9AgQWHosqQQBCBgTILCMAVMeAhDQI0Bg6bGkEgQgYEyAwDIGTHkIQECPwH8BAHORCsotNpUAAAAASUVORK5CYII=;" vertex="1" parent="1">
          <mxGeometry x="842" y="240" width="96" height="80" as="geometry" />
        </mxCell>
        <mxCell id="HIfz95Fh0vZ95EKHTSMD-35" value="" style="shape=image;verticalLabelPosition=bottom;labelBackgroundColor=default;verticalAlign=top;aspect=fixed;imageAspect=0;image=data:image/png,iVBORw0KGgoAAAANSUhEUgAAASwAAAD6CAYAAAAbbXrzAAAQQElEQVR4Xu2cTa5kRxGFn9umsRiAzAqQEGbsFdgDlgJjVuAG5B2wHyR7CR4CFiyBnwmWcRvyNl32o19V3czIiIyf/CyV5O53b0Tkd849yptd3W898B8EIACBJATeSjInY0IAAhB4ILAwAQQgkIYAgZVGKgaFAAQILDwAAQikIUBgpZGKQSEAAQILD0AAAmkIEFhppGJQCECAwMIDEIBAGgIEVhqpGBQCECCw8AAEIJCGAIGVRioGhQAECCw8AAEIpCFAYKWRikEhAAECCw9AAAJpCBBYaaRiUAhAgMDCAxCAQBoCBFYaqRgUAhAgsPAABCCQhgCBlUYqBoUABAgsPAABCKQhQGClkYpBIQABAgsPQAACaQgQWGmkYlAIQIDAwgMQgEAaAgRWGqkYFAIQILDwAAQgkIYAgZVGKgaFAAQILDwAAQikIUBgpZGKQSEAAQILD0AAAmkIEFhppGJQCECAwMIDEIBAGgIEVhqpGBQCECCw8AAEIJCGAIGVRioGhQAECCw8AAEIpCFAYKWRikEhAAECCw9AAAJpCBBYaaRiUAhAgMDCAxCAQBoCBFYaqRgUAhAgsPAABCCQhgCBlUYqBoUABAgsPAABCKQhQGClkYpBIQABAgsPQAACaQgQWGmkYlAIQIDAwgMQgEAaAgRWGqkYFAIQILDwAAQgkIYAgZVGKgaFAAQILDxwjcCH7TdftM8H7fOeAaKXreY7BnUpWZwAgVVcYMHyPm73/LZ9ngnuldzyTbvpbcmN3LMfAQJrP81vrfjL9oPn7ePtif8sDEvUT0bA25zJcJUbN0pIXQNLcJWz2/yCCKx5hhkrHK9hWbTnvCujw4xmzmJao+VvVTbybqpHCLzaQ6n4NZigrsCZdlEjKrDjGqFV7FoCq5igbTlVg+qxUpxv1fNt14oIrC5MKS76uk2509cD2GmlsKXukASWLk+Pav9oTX/o0ThAT0IrgAgrRyCwVtLW73U8sKu+4Kk/vV5FfKzHMnQlhA4tz93hjnOcSP8d8xyfntdSi3M2dluR3GA0C4FlBNaw7IqzqiN4vmqfdw3X8bi0VoBxGL9IMK82BJYXeVlfy13V6pC6RkBjfey0ZN5KcReBlUKmV0NqPMy3QiLSOZjGOvF1Hl8PTYqwQ7jcLtZ4iB8PH2E3dQ/m7Gsvvnazqm1jhLXlq1FdI6yynu1Iz7ayrlfDL6VrEFix5Z0NqwoPrnS3VWHtsd3pMB2B5QC9s6X0Qb2U/2f7nx919spwmSS8OYDPoOzAjATWAKzFl0oe0MuIVXWVvCJWZbHYjjHaIWYMHd6cQvJgHjV22FGMBjmvhjE9LpqKwBJhM79p9KE8BtpFS0mY78LG3JjeDRDSW4Gn/Qmrc01GGeHzc6YprkDIWDJJDtp31HCU046MYjlbaRqEVAKpVIadQz/IkVdDfN7PNfSVCBlHnpEH8Jiaw+T+v66Ez+P4fGoShJzCp3ozu6txnL3M8Pk425B3IGQcWXofvmPiHb6+0KNMLzN83kMzwTUIGUMkDpFlOhBYMm5p7yKwYkjX++Ad06LZd5r1coNZDJ9PT4GQ0winC4wetqMZgTVtuqwFML+/cr27hMukaEZg+bvWaQLM7wT+ddvRsOKw/f/16uWHz319rtYdIdVQDhcaPWjn/OopYgJr2Ha5byCw/PTrfdh4FbytUS9DfO7nc9XOCKmKs7vY6EE732q/jpbA6rZcjQsJLB8dex80dle39RkJfXzu43P1rgipjrSr4EhgcdA+t7vi7K/LkjkuIrB8dBoJLDQisHxcGrArD4OPKL2BhT7zB+6c//l43KQrD4QJ1tOiBNYporsXcH41xy/t3QSWj3QE1hz3Xn6cX81xDnc3geUjSe8Dhz5P9RnZXRFYPv4268oDYYb2bmECS869l93RgfMrOeeQdxJYPrL0PnTo81SfXnbsrny8bdqVB8IU783ivQ8d+sgDi92Vj7dNu/JAmOIlsJTxjpxf4W1l+BHKIaqPCuywZNx7ufE6KOMb/i4Cy0ei3gcPfb7Tp5fZ5Q7Y+XjbtCuimuLllVAJ7+i/Hcb5lRL4aGUILB9FencL6PPwMBpWvA76eHpJVx6IJZifNCGw+riPHLI/roiv+/imuwphfSTrDayddwuSndXBi3+Ox8fTS7oSWEswi3dYOx8gj4Q6uysfHy/vSmAtR/6qoeRh3EkrCZ+dd6M+LnboutND4ID3ZkvOZq6jkb4GElaR3G04C4FlCPektGQXUfl8RhrinFv5eXh5ZwJrOfJvG0p3ExU1k7K4vF4/85ORzisJVDT/Sn6zvSS7rEqvPzNBxc5q1n0J7yew/EXbNbRmXgEJK3/fukxAYLlgf9JUElqZ//rJ7M6q0i4zhgOTTEFgxRFKEloZdxqzOyvCKo5nl09CYC1HfrPh7K4jupaz67uAi77OOI4qOAnixxJVusuK/jDPrivjTjKWs4pMQ2DFE3L24Y6m6ex6CKt4HnWbKJq53UAEa6zxkHsfymu9AnqvI5g19h6HwIqrv0ZoeexOvmxNv6+EtfI3+5UQ7VWGwIqrt9YOZdX5lsaf/l1mJaji+tJ1MgLLFf9pc80QOJppv14du6nn7aPpI+0ZTyFzQR4CmkbLs+pck2rvtK6tfjQktIOUnVUuT7pNS2C5oRc11jrXEjU3vGk0MA1HoXRkAgRWZHWuz1YttPBgPg+6TYxZ3NCLG694RRQPN3gj/hsEtvvlGCanA6zOkFbR4E8BV5Eu1ofAyito1p0WnsvrOffJMY+7BKoDRD7fYlelKvWexQiserpH2nkdAfpV+7xbDzMr8iBAYHlQX9PT85yLryms0Xi7LgRWfclXBRe7qfpecl8hgeUugdsAWkHGbspNwv0aE1j7aX624t6De7xzRpKfqxPAdOpI0xcksNJLWHcBBFZdbaUrI7Ck5LjPnACBZY44XQMCK51k+wxMYO2jde9KCaxeUly3nACBtRx5+IYEVniJ9h2QwNpX+1srJ7DwRFgCBFZYadwGI7Dc0NP4jACBdUZov58TWPtpnmbFBFYaqZYNSmAtQ02jUQIE1iix+tcTWPU1TrtCAiutdGaDE1hmaCk8S4DAmiVY734Cq56mZVZEYJWRUm0hBJYaSgppEyCwtIna1Tv+JdFn7YNmDw9/bhx+1T6f2eGmckQCmD+iKv+bKdI/dRyV0os22CdRh2MufQIElj5TjYpa/7iexizRa3zETiu6RHrzEVh6LLUqsbMaI/mHdvkvxm7h6qwECKx4yvUeeseb3Geiv7W2P/ZpTdfVBAis1cTP+xFY54weX/H39ov3xm7h6qwECKx4yhFYY5rwSjjGK/XVBFY8+QisMU04dB/jlfpqAiuefBy692vC1xr6WZW4ksCKKSNfa7ivyxftx79sH744GtO/ZlMRWGZopwvf22kdr40v2+d7012eFuh9JcU7BvApeZ8ApsMhbxIgsPBEWAIEVlhp3AYjsNzQ0/iMAIF1Rmi/nxNY+2meZsUEVhqplg1KYC1DTaNRAgTWKLH61xNY9TVOu0ICK610ZoMTWGZoKTxLgMCaJVjvfgKrnqZlVkRglZFSbSEElhpKCmkTILC0ieavR2Dl17DsCgisstKKF0ZgidFxozUBAsuacL76BFY+zbaZmMDaRuruhRJY3ai4cDUBAms18fj9CKz4Gm07IYG1rfQ3F05g4YmwBAissNK4DUZguaGn8RkBAuuM0H4/J7D20zzNigmsNFItG5TAWoaaRqMECKxRYvWvJ7Dqa5x2hQRWWunMBiewzNBSeJYAgTVLsN79BFY9TcusiMAqI6XaQggsNZQU0iZAYGkTzV+PwMqvYdkVEFhlpRUvjMASo+NGawIEljXhfPUJrHyabTMxgbWN1N0LJbC6UXHhagIE1mri8fsRWPE12nZCAmtb6W8unMDCE2EJEFhhpXEbjMByQ0/jMwIE1hmh/X5OYO2neZoVE1hppFo2KIG1DDWNRgkQWKPE6l9PYNXXOO0KCay00pkNTmCZoaXwLAECa5ZgvfsJrHqallkRgVVGSrWFEFhqKCmkTYDA0iaavx6BlV/DsisgsMpKK14YgSVGx43WBAgsa8L56hNY+TTbZmICaxupuxdKYHWj4sLVBAis1cTj9vu6jfb2wHhHsD0buJ5LITBNgMCaRliiwDdtFRIvvGz3vVOCAItIQUBi0hQLY8huAqM7qzcLf9F+42fd3bgQAhMECKwJeEVu7T2zurdcfFTEDNGXgdGiK2Q/n0ZgHVPiJXuttu+Ayba3wINWYHEIj5fMCRBY5ohDN5Aett9aFIfwoeXOPxyBlV/DmRVo7a4ez8BOa0YR7r1LgMDa2yAWgXUQZae1t6/MVk9gmaENX9gqrC4Lx1vhLZBvQEyVTzONiUfD6viuluQLovhLQy1qfEsAQ+1nhtGwOggdPpHcx6vhfv4yXTGBZYo3XHFJ6FwCS/qNeDwWzgZ5B8JMebUbnVwaOI93SdKvQeCzUbW4/ioBjLSPMWZ2V48paQTfPtRZqSoBAksVZ8hi0oC5vApeW5S0Jt/RCmmRPEMRWHm0kkwqfYW7F1aXOaQ7Ng7iJUpyzysCBFZdI0h3QSO+kIYWvqvrO9OVYRxTvK7FV4SJNBTxnas18jbHOHm1O5t8RWAdM0j68Fp4ph4/v0qAwKppDEmIHCSkQSLth/9q+s9sVRjGDK1bYWl4zP4JnrQvHnSzSr7GmCWfZvcmloaGdGf15izS/viwlg/NVoNRzNAuLxwhLKSH8FqBuRw6DdcSILDW8rboJg2JmTMri10eXrRwR7GamCS3oNJd1WXVVvpL5po9Q8utJNN3EbAybFdzLpoiIAmFxw0ttZfu+ng1nLJE/ZstTVufnt8KI4fVhYr0rwWx0/LzVfjOBFZ4iZ4MKN29WL8GXiMpnZWdVj5fLpmYwFqCWbXJzO7KQ2/pvB6zqgpFMX0CmEKfqWVF6WvWMZPXrkW6yzpmxp+WbkpYG0PkEW3mwfd++KW7LO+587hjk0kJrBxCz+ysojz00tD6V1vAD3LIxJTWBAgsa8Lz9Y9XuWfCMl6vgbfGlYbWX1rBnwoZcFshAgRWbDE/beN9KBwxqrbS0Pp94/BrIQtuK0IgqqmL4J1ehvThjrazegxCehb371bk+TRRCqQmQGDFlk8aWNF1lZ7JRV9XbDcVmA4DxBZRElhZNJWEVpa1xXZV4ukwQGzxRgMrm54jr4f8lZ3YXl0yXTaDL4ESqMlIYGXVsnen9aemy88DacMoDgSymtwBlUvLP7au7590jnzA3gut56sbH7Vin/UW5LqaBAis2LoeX2n49GTEKg/yX9s6f3JjrS/a738SWyqmW0GAwFpBea7Hx+3237XPNa2qPchHQP+mfT54jezz179mZzXnoTJ3E1g5pORBzqETUxoTILCMAVMeAhDQI0Bg6bGkEgQgYEyAwDIGTHkIQECPAIGlx5JKEICAMQECyxgw5SEAAT0CBJYeSypBAALGBAgsY8CUhwAE9AgQWHosqQQBCBgTILCMAVMeAhDQI0Bg6bGkEgQgYEyAwDIGTHkIQECPwH8BAHORCsotNpUAAAAASUVORK5CYII=;" vertex="1" parent="1">
          <mxGeometry x="842" y="320" width="96" height="80" as="geometry" />
        </mxCell>
        <mxCell id="HIfz95Fh0vZ95EKHTSMD-36" value="" style="shape=image;verticalLabelPosition=bottom;labelBackgroundColor=default;verticalAlign=top;aspect=fixed;imageAspect=0;image=data:image/png,iVBORw0KGgoAAAANSUhEUgAAASwAAAD6CAYAAAAbbXrzAAAQQElEQVR4Xu2cTa5kRxGFn9umsRiAzAqQEGbsFdgDlgJjVuAG5B2wHyR7CR4CFiyBnwmWcRvyNl32o19V3czIiIyf/CyV5O53b0Tkd849yptd3W898B8EIACBJATeSjInY0IAAhB4ILAwAQQgkIYAgZVGKgaFAAQILDwAAQikIUBgpZGKQSEAAQILD0AAAmkIEFhppGJQCECAwMIDEIBAGgIEVhqpGBQCECCw8AAEIJCGAIGVRioGhQAECCw8AAEIpCFAYKWRikEhAAECCw9AAAJpCBBYaaRiUAhAgMDCAxCAQBoCBFYaqRgUAhAgsPAABCCQhgCBlUYqBoUABAgsPAABCKQhQGClkYpBIQABAgsPQAACaQgQWGmkYlAIQIDAwgMQgEAaAgRWGqkYFAIQILDwAAQgkIYAgZVGKgaFAAQILDwAAQikIUBgpZGKQSEAAQILD0AAAmkIEFhppGJQCECAwMIDEIBAGgIEVhqpGBQCECCw8AAEIJCGAIGVRioGhQAECCw8AAEIpCFAYKWRikEhAAECCw9AAAJpCBBYaaRiUAhAgMDCAxCAQBoCBFYaqRgUAhAgsPAABCCQhgCBlUYqBoUABAgsPAABCKQhQGClkYpBIQABAgsPQAACaQgQWGmkYlAIQIDAwgMQgEAaAgRWGqkYFAIQILDwAAQgkIYAgZVGKgaFAAQILDxwjcCH7TdftM8H7fOeAaKXreY7BnUpWZwAgVVcYMHyPm73/LZ9ngnuldzyTbvpbcmN3LMfAQJrP81vrfjL9oPn7ePtif8sDEvUT0bA25zJcJUbN0pIXQNLcJWz2/yCCKx5hhkrHK9hWbTnvCujw4xmzmJao+VvVTbybqpHCLzaQ6n4NZigrsCZdlEjKrDjGqFV7FoCq5igbTlVg+qxUpxv1fNt14oIrC5MKS76uk2509cD2GmlsKXukASWLk+Pav9oTX/o0ThAT0IrgAgrRyCwVtLW73U8sKu+4Kk/vV5FfKzHMnQlhA4tz93hjnOcSP8d8xyfntdSi3M2dluR3GA0C4FlBNaw7IqzqiN4vmqfdw3X8bi0VoBxGL9IMK82BJYXeVlfy13V6pC6RkBjfey0ZN5KcReBlUKmV0NqPMy3QiLSOZjGOvF1Hl8PTYqwQ7jcLtZ4iB8PH2E3dQ/m7Gsvvnazqm1jhLXlq1FdI6yynu1Iz7ayrlfDL6VrEFix5Z0NqwoPrnS3VWHtsd3pMB2B5QC9s6X0Qb2U/2f7nx919spwmSS8OYDPoOzAjATWAKzFl0oe0MuIVXWVvCJWZbHYjjHaIWYMHd6cQvJgHjV22FGMBjmvhjE9LpqKwBJhM79p9KE8BtpFS0mY78LG3JjeDRDSW4Gn/Qmrc01GGeHzc6YprkDIWDJJDtp31HCU046MYjlbaRqEVAKpVIadQz/IkVdDfN7PNfSVCBlHnpEH8Jiaw+T+v66Ez+P4fGoShJzCp3ozu6txnL3M8Pk425B3IGQcWXofvmPiHb6+0KNMLzN83kMzwTUIGUMkDpFlOhBYMm5p7yKwYkjX++Ad06LZd5r1coNZDJ9PT4GQ0winC4wetqMZgTVtuqwFML+/cr27hMukaEZg+bvWaQLM7wT+ddvRsOKw/f/16uWHz319rtYdIdVQDhcaPWjn/OopYgJr2Ha5byCw/PTrfdh4FbytUS9DfO7nc9XOCKmKs7vY6EE732q/jpbA6rZcjQsJLB8dex80dle39RkJfXzu43P1rgipjrSr4EhgcdA+t7vi7K/LkjkuIrB8dBoJLDQisHxcGrArD4OPKL2BhT7zB+6c//l43KQrD4QJ1tOiBNYporsXcH41xy/t3QSWj3QE1hz3Xn6cX81xDnc3geUjSe8Dhz5P9RnZXRFYPv4268oDYYb2bmECS869l93RgfMrOeeQdxJYPrL0PnTo81SfXnbsrny8bdqVB8IU783ivQ8d+sgDi92Vj7dNu/JAmOIlsJTxjpxf4W1l+BHKIaqPCuywZNx7ufE6KOMb/i4Cy0ei3gcPfb7Tp5fZ5Q7Y+XjbtCuimuLllVAJ7+i/Hcb5lRL4aGUILB9FencL6PPwMBpWvA76eHpJVx6IJZifNCGw+riPHLI/roiv+/imuwphfSTrDayddwuSndXBi3+Ox8fTS7oSWEswi3dYOx8gj4Q6uysfHy/vSmAtR/6qoeRh3EkrCZ+dd6M+LnboutND4ID3ZkvOZq6jkb4GElaR3G04C4FlCPektGQXUfl8RhrinFv5eXh5ZwJrOfJvG0p3ExU1k7K4vF4/85ORzisJVDT/Sn6zvSS7rEqvPzNBxc5q1n0J7yew/EXbNbRmXgEJK3/fukxAYLlgf9JUElqZ//rJ7M6q0i4zhgOTTEFgxRFKEloZdxqzOyvCKo5nl09CYC1HfrPh7K4jupaz67uAi77OOI4qOAnixxJVusuK/jDPrivjTjKWs4pMQ2DFE3L24Y6m6ex6CKt4HnWbKJq53UAEa6zxkHsfymu9AnqvI5g19h6HwIqrv0ZoeexOvmxNv6+EtfI3+5UQ7VWGwIqrt9YOZdX5lsaf/l1mJaji+tJ1MgLLFf9pc80QOJppv14du6nn7aPpI+0ZTyFzQR4CmkbLs+pck2rvtK6tfjQktIOUnVUuT7pNS2C5oRc11jrXEjU3vGk0MA1HoXRkAgRWZHWuz1YttPBgPg+6TYxZ3NCLG694RRQPN3gj/hsEtvvlGCanA6zOkFbR4E8BV5Eu1ofAyito1p0WnsvrOffJMY+7BKoDRD7fYlelKvWexQiserpH2nkdAfpV+7xbDzMr8iBAYHlQX9PT85yLryms0Xi7LgRWfclXBRe7qfpecl8hgeUugdsAWkHGbspNwv0aE1j7aX624t6De7xzRpKfqxPAdOpI0xcksNJLWHcBBFZdbaUrI7Ck5LjPnACBZY44XQMCK51k+wxMYO2jde9KCaxeUly3nACBtRx5+IYEVniJ9h2QwNpX+1srJ7DwRFgCBFZYadwGI7Dc0NP4jACBdUZov58TWPtpnmbFBFYaqZYNSmAtQ02jUQIE1iix+tcTWPU1TrtCAiutdGaDE1hmaCk8S4DAmiVY734Cq56mZVZEYJWRUm0hBJYaSgppEyCwtIna1Tv+JdFn7YNmDw9/bhx+1T6f2eGmckQCmD+iKv+bKdI/dRyV0os22CdRh2MufQIElj5TjYpa/7iexizRa3zETiu6RHrzEVh6LLUqsbMaI/mHdvkvxm7h6qwECKx4yvUeeseb3Geiv7W2P/ZpTdfVBAis1cTP+xFY54weX/H39ov3xm7h6qwECKx4yhFYY5rwSjjGK/XVBFY8+QisMU04dB/jlfpqAiuefBy692vC1xr6WZW4ksCKKSNfa7ivyxftx79sH744GtO/ZlMRWGZopwvf22kdr40v2+d7012eFuh9JcU7BvApeZ8ApsMhbxIgsPBEWAIEVlhp3AYjsNzQ0/iMAIF1Rmi/nxNY+2meZsUEVhqplg1KYC1DTaNRAgTWKLH61xNY9TVOu0ICK610ZoMTWGZoKTxLgMCaJVjvfgKrnqZlVkRglZFSbSEElhpKCmkTILC0ieavR2Dl17DsCgisstKKF0ZgidFxozUBAsuacL76BFY+zbaZmMDaRuruhRJY3ai4cDUBAms18fj9CKz4Gm07IYG1rfQ3F05g4YmwBAissNK4DUZguaGn8RkBAuuM0H4/J7D20zzNigmsNFItG5TAWoaaRqMECKxRYvWvJ7Dqa5x2hQRWWunMBiewzNBSeJYAgTVLsN79BFY9TcusiMAqI6XaQggsNZQU0iZAYGkTzV+PwMqvYdkVEFhlpRUvjMASo+NGawIEljXhfPUJrHyabTMxgbWN1N0LJbC6UXHhagIE1mri8fsRWPE12nZCAmtb6W8unMDCE2EJEFhhpXEbjMByQ0/jMwIE1hmh/X5OYO2neZoVE1hppFo2KIG1DDWNRgkQWKPE6l9PYNXXOO0KCay00pkNTmCZoaXwLAECa5ZgvfsJrHqallkRgVVGSrWFEFhqKCmkTYDA0iaavx6BlV/DsisgsMpKK14YgSVGx43WBAgsa8L56hNY+TTbZmICaxupuxdKYHWj4sLVBAis1cTj9vu6jfb2wHhHsD0buJ5LITBNgMCaRliiwDdtFRIvvGz3vVOCAItIQUBi0hQLY8huAqM7qzcLf9F+42fd3bgQAhMECKwJeEVu7T2zurdcfFTEDNGXgdGiK2Q/n0ZgHVPiJXuttu+Ayba3wINWYHEIj5fMCRBY5ohDN5Aett9aFIfwoeXOPxyBlV/DmRVo7a4ez8BOa0YR7r1LgMDa2yAWgXUQZae1t6/MVk9gmaENX9gqrC4Lx1vhLZBvQEyVTzONiUfD6viuluQLovhLQy1qfEsAQ+1nhtGwOggdPpHcx6vhfv4yXTGBZYo3XHFJ6FwCS/qNeDwWzgZ5B8JMebUbnVwaOI93SdKvQeCzUbW4/ioBjLSPMWZ2V48paQTfPtRZqSoBAksVZ8hi0oC5vApeW5S0Jt/RCmmRPEMRWHm0kkwqfYW7F1aXOaQ7Ng7iJUpyzysCBFZdI0h3QSO+kIYWvqvrO9OVYRxTvK7FV4SJNBTxnas18jbHOHm1O5t8RWAdM0j68Fp4ph4/v0qAwKppDEmIHCSkQSLth/9q+s9sVRjGDK1bYWl4zP4JnrQvHnSzSr7GmCWfZvcmloaGdGf15izS/viwlg/NVoNRzNAuLxwhLKSH8FqBuRw6DdcSILDW8rboJg2JmTMri10eXrRwR7GamCS3oNJd1WXVVvpL5po9Q8utJNN3EbAybFdzLpoiIAmFxw0ttZfu+ng1nLJE/ZstTVufnt8KI4fVhYr0rwWx0/LzVfjOBFZ4iZ4MKN29WL8GXiMpnZWdVj5fLpmYwFqCWbXJzO7KQ2/pvB6zqgpFMX0CmEKfqWVF6WvWMZPXrkW6yzpmxp+WbkpYG0PkEW3mwfd++KW7LO+587hjk0kJrBxCz+ysojz00tD6V1vAD3LIxJTWBAgsa8Lz9Y9XuWfCMl6vgbfGlYbWX1rBnwoZcFshAgRWbDE/beN9KBwxqrbS0Pp94/BrIQtuK0IgqqmL4J1ehvThjrazegxCehb371bk+TRRCqQmQGDFlk8aWNF1lZ7JRV9XbDcVmA4DxBZRElhZNJWEVpa1xXZV4ukwQGzxRgMrm54jr4f8lZ3YXl0yXTaDL4ESqMlIYGXVsnen9aemy88DacMoDgSymtwBlUvLP7au7590jnzA3gut56sbH7Vin/UW5LqaBAis2LoeX2n49GTEKg/yX9s6f3JjrS/a738SWyqmW0GAwFpBea7Hx+3237XPNa2qPchHQP+mfT54jezz179mZzXnoTJ3E1g5pORBzqETUxoTILCMAVMeAhDQI0Bg6bGkEgQgYEyAwDIGTHkIQECPAIGlx5JKEICAMQECyxgw5SEAAT0CBJYeSypBAALGBAgsY8CUhwAE9AgQWHosqQQBCBgTILCMAVMeAhDQI0Bg6bGkEgQgYEyAwDIGTHkIQECPwH8BAHORCsotNpUAAAAASUVORK5CYII=;" vertex="1" parent="1">
          <mxGeometry x="842" y="400" width="96" height="80" as="geometry" />
        </mxCell>
        <mxCell id="HIfz95Fh0vZ95EKHTSMD-37" value="" style="shape=image;verticalLabelPosition=bottom;labelBackgroundColor=default;verticalAlign=top;aspect=fixed;imageAspect=0;image=data:image/png,iVBORw0KGgoAAAANSUhEUgAAASwAAAD6CAYAAAAbbXrzAAAQQElEQVR4Xu2cTa5kRxGFn9umsRiAzAqQEGbsFdgDlgJjVuAG5B2wHyR7CR4CFiyBnwmWcRvyNl32o19V3czIiIyf/CyV5O53b0Tkd849yptd3W898B8EIACBJATeSjInY0IAAhB4ILAwAQQgkIYAgZVGKgaFAAQILDwAAQikIUBgpZGKQSEAAQILD0AAAmkIEFhppGJQCECAwMIDEIBAGgIEVhqpGBQCECCw8AAEIJCGAIGVRioGhQAECCw8AAEIpCFAYKWRikEhAAECCw9AAAJpCBBYaaRiUAhAgMDCAxCAQBoCBFYaqRgUAhAgsPAABCCQhgCBlUYqBoUABAgsPAABCKQhQGClkYpBIQABAgsPQAACaQgQWGmkYlAIQIDAwgMQgEAaAgRWGqkYFAIQILDwAAQgkIYAgZVGKgaFAAQILDwAAQikIUBgpZGKQSEAAQILD0AAAmkIEFhppGJQCECAwMIDEIBAGgIEVhqpGBQCECCw8AAEIJCGAIGVRioGhQAECCw8AAEIpCFAYKWRikEhAAECCw9AAAJpCBBYaaRiUAhAgMDCAxCAQBoCBFYaqRgUAhAgsPAABCCQhgCBlUYqBoUABAgsPAABCKQhQGClkYpBIQABAgsPQAACaQgQWGmkYlAIQIDAwgMQgEAaAgRWGqkYFAIQILDwAAQgkIYAgZVGKgaFAAQILDxwjcCH7TdftM8H7fOeAaKXreY7BnUpWZwAgVVcYMHyPm73/LZ9ngnuldzyTbvpbcmN3LMfAQJrP81vrfjL9oPn7ePtif8sDEvUT0bA25zJcJUbN0pIXQNLcJWz2/yCCKx5hhkrHK9hWbTnvCujw4xmzmJao+VvVTbybqpHCLzaQ6n4NZigrsCZdlEjKrDjGqFV7FoCq5igbTlVg+qxUpxv1fNt14oIrC5MKS76uk2509cD2GmlsKXukASWLk+Pav9oTX/o0ThAT0IrgAgrRyCwVtLW73U8sKu+4Kk/vV5FfKzHMnQlhA4tz93hjnOcSP8d8xyfntdSi3M2dluR3GA0C4FlBNaw7IqzqiN4vmqfdw3X8bi0VoBxGL9IMK82BJYXeVlfy13V6pC6RkBjfey0ZN5KcReBlUKmV0NqPMy3QiLSOZjGOvF1Hl8PTYqwQ7jcLtZ4iB8PH2E3dQ/m7Gsvvnazqm1jhLXlq1FdI6yynu1Iz7ayrlfDL6VrEFix5Z0NqwoPrnS3VWHtsd3pMB2B5QC9s6X0Qb2U/2f7nx919spwmSS8OYDPoOzAjATWAKzFl0oe0MuIVXWVvCJWZbHYjjHaIWYMHd6cQvJgHjV22FGMBjmvhjE9LpqKwBJhM79p9KE8BtpFS0mY78LG3JjeDRDSW4Gn/Qmrc01GGeHzc6YprkDIWDJJDtp31HCU046MYjlbaRqEVAKpVIadQz/IkVdDfN7PNfSVCBlHnpEH8Jiaw+T+v66Ez+P4fGoShJzCp3ozu6txnL3M8Pk425B3IGQcWXofvmPiHb6+0KNMLzN83kMzwTUIGUMkDpFlOhBYMm5p7yKwYkjX++Ad06LZd5r1coNZDJ9PT4GQ0winC4wetqMZgTVtuqwFML+/cr27hMukaEZg+bvWaQLM7wT+ddvRsOKw/f/16uWHz319rtYdIdVQDhcaPWjn/OopYgJr2Ha5byCw/PTrfdh4FbytUS9DfO7nc9XOCKmKs7vY6EE732q/jpbA6rZcjQsJLB8dex80dle39RkJfXzu43P1rgipjrSr4EhgcdA+t7vi7K/LkjkuIrB8dBoJLDQisHxcGrArD4OPKL2BhT7zB+6c//l43KQrD4QJ1tOiBNYporsXcH41xy/t3QSWj3QE1hz3Xn6cX81xDnc3geUjSe8Dhz5P9RnZXRFYPv4268oDYYb2bmECS869l93RgfMrOeeQdxJYPrL0PnTo81SfXnbsrny8bdqVB8IU783ivQ8d+sgDi92Vj7dNu/JAmOIlsJTxjpxf4W1l+BHKIaqPCuywZNx7ufE6KOMb/i4Cy0ei3gcPfb7Tp5fZ5Q7Y+XjbtCuimuLllVAJ7+i/Hcb5lRL4aGUILB9FencL6PPwMBpWvA76eHpJVx6IJZifNCGw+riPHLI/roiv+/imuwphfSTrDayddwuSndXBi3+Ox8fTS7oSWEswi3dYOx8gj4Q6uysfHy/vSmAtR/6qoeRh3EkrCZ+dd6M+LnboutND4ID3ZkvOZq6jkb4GElaR3G04C4FlCPektGQXUfl8RhrinFv5eXh5ZwJrOfJvG0p3ExU1k7K4vF4/85ORzisJVDT/Sn6zvSS7rEqvPzNBxc5q1n0J7yew/EXbNbRmXgEJK3/fukxAYLlgf9JUElqZ//rJ7M6q0i4zhgOTTEFgxRFKEloZdxqzOyvCKo5nl09CYC1HfrPh7K4jupaz67uAi77OOI4qOAnixxJVusuK/jDPrivjTjKWs4pMQ2DFE3L24Y6m6ex6CKt4HnWbKJq53UAEa6zxkHsfymu9AnqvI5g19h6HwIqrv0ZoeexOvmxNv6+EtfI3+5UQ7VWGwIqrt9YOZdX5lsaf/l1mJaji+tJ1MgLLFf9pc80QOJppv14du6nn7aPpI+0ZTyFzQR4CmkbLs+pck2rvtK6tfjQktIOUnVUuT7pNS2C5oRc11jrXEjU3vGk0MA1HoXRkAgRWZHWuz1YttPBgPg+6TYxZ3NCLG694RRQPN3gj/hsEtvvlGCanA6zOkFbR4E8BV5Eu1ofAyito1p0WnsvrOffJMY+7BKoDRD7fYlelKvWexQiserpH2nkdAfpV+7xbDzMr8iBAYHlQX9PT85yLryms0Xi7LgRWfclXBRe7qfpecl8hgeUugdsAWkHGbspNwv0aE1j7aX624t6De7xzRpKfqxPAdOpI0xcksNJLWHcBBFZdbaUrI7Ck5LjPnACBZY44XQMCK51k+wxMYO2jde9KCaxeUly3nACBtRx5+IYEVniJ9h2QwNpX+1srJ7DwRFgCBFZYadwGI7Dc0NP4jACBdUZov58TWPtpnmbFBFYaqZYNSmAtQ02jUQIE1iix+tcTWPU1TrtCAiutdGaDE1hmaCk8S4DAmiVY734Cq56mZVZEYJWRUm0hBJYaSgppEyCwtIna1Tv+JdFn7YNmDw9/bhx+1T6f2eGmckQCmD+iKv+bKdI/dRyV0os22CdRh2MufQIElj5TjYpa/7iexizRa3zETiu6RHrzEVh6LLUqsbMaI/mHdvkvxm7h6qwECKx4yvUeeseb3Geiv7W2P/ZpTdfVBAis1cTP+xFY54weX/H39ov3xm7h6qwECKx4yhFYY5rwSjjGK/XVBFY8+QisMU04dB/jlfpqAiuefBy692vC1xr6WZW4ksCKKSNfa7ivyxftx79sH744GtO/ZlMRWGZopwvf22kdr40v2+d7012eFuh9JcU7BvApeZ8ApsMhbxIgsPBEWAIEVlhp3AYjsNzQ0/iMAIF1Rmi/nxNY+2meZsUEVhqplg1KYC1DTaNRAgTWKLH61xNY9TVOu0ICK610ZoMTWGZoKTxLgMCaJVjvfgKrnqZlVkRglZFSbSEElhpKCmkTILC0ieavR2Dl17DsCgisstKKF0ZgidFxozUBAsuacL76BFY+zbaZmMDaRuruhRJY3ai4cDUBAms18fj9CKz4Gm07IYG1rfQ3F05g4YmwBAissNK4DUZguaGn8RkBAuuM0H4/J7D20zzNigmsNFItG5TAWoaaRqMECKxRYvWvJ7Dqa5x2hQRWWunMBiewzNBSeJYAgTVLsN79BFY9TcusiMAqI6XaQggsNZQU0iZAYGkTzV+PwMqvYdkVEFhlpRUvjMASo+NGawIEljXhfPUJrHyabTMxgbWN1N0LJbC6UXHhagIE1mri8fsRWPE12nZCAmtb6W8unMDCE2EJEFhhpXEbjMByQ0/jMwIE1hmh/X5OYO2neZoVE1hppFo2KIG1DDWNRgkQWKPE6l9PYNXXOO0KCay00pkNTmCZoaXwLAECa5ZgvfsJrHqallkRgVVGSrWFEFhqKCmkTYDA0iaavx6BlV/DsisgsMpKK14YgSVGx43WBAgsa8L56hNY+TTbZmICaxupuxdKYHWj4sLVBAis1cTj9vu6jfb2wHhHsD0buJ5LITBNgMCaRliiwDdtFRIvvGz3vVOCAItIQUBi0hQLY8huAqM7qzcLf9F+42fd3bgQAhMECKwJeEVu7T2zurdcfFTEDNGXgdGiK2Q/n0ZgHVPiJXuttu+Ayba3wINWYHEIj5fMCRBY5ohDN5Aett9aFIfwoeXOPxyBlV/DmRVo7a4ez8BOa0YR7r1LgMDa2yAWgXUQZae1t6/MVk9gmaENX9gqrC4Lx1vhLZBvQEyVTzONiUfD6viuluQLovhLQy1qfEsAQ+1nhtGwOggdPpHcx6vhfv4yXTGBZYo3XHFJ6FwCS/qNeDwWzgZ5B8JMebUbnVwaOI93SdKvQeCzUbW4/ioBjLSPMWZ2V48paQTfPtRZqSoBAksVZ8hi0oC5vApeW5S0Jt/RCmmRPEMRWHm0kkwqfYW7F1aXOaQ7Ng7iJUpyzysCBFZdI0h3QSO+kIYWvqvrO9OVYRxTvK7FV4SJNBTxnas18jbHOHm1O5t8RWAdM0j68Fp4ph4/v0qAwKppDEmIHCSkQSLth/9q+s9sVRjGDK1bYWl4zP4JnrQvHnSzSr7GmCWfZvcmloaGdGf15izS/viwlg/NVoNRzNAuLxwhLKSH8FqBuRw6DdcSILDW8rboJg2JmTMri10eXrRwR7GamCS3oNJd1WXVVvpL5po9Q8utJNN3EbAybFdzLpoiIAmFxw0ttZfu+ng1nLJE/ZstTVufnt8KI4fVhYr0rwWx0/LzVfjOBFZ4iZ4MKN29WL8GXiMpnZWdVj5fLpmYwFqCWbXJzO7KQ2/pvB6zqgpFMX0CmEKfqWVF6WvWMZPXrkW6yzpmxp+WbkpYG0PkEW3mwfd++KW7LO+587hjk0kJrBxCz+ysojz00tD6V1vAD3LIxJTWBAgsa8Lz9Y9XuWfCMl6vgbfGlYbWX1rBnwoZcFshAgRWbDE/beN9KBwxqrbS0Pp94/BrIQtuK0IgqqmL4J1ehvThjrazegxCehb371bk+TRRCqQmQGDFlk8aWNF1lZ7JRV9XbDcVmA4DxBZRElhZNJWEVpa1xXZV4ukwQGzxRgMrm54jr4f8lZ3YXl0yXTaDL4ESqMlIYGXVsnen9aemy88DacMoDgSymtwBlUvLP7au7590jnzA3gut56sbH7Vin/UW5LqaBAis2LoeX2n49GTEKg/yX9s6f3JjrS/a738SWyqmW0GAwFpBea7Hx+3237XPNa2qPchHQP+mfT54jezz179mZzXnoTJ3E1g5pORBzqETUxoTILCMAVMeAhDQI0Bg6bGkEgQgYEyAwDIGTHkIQECPAIGlx5JKEICAMQECyxgw5SEAAT0CBJYeSypBAALGBAgsY8CUhwAE9AgQWHosqQQBCBgTILCMAVMeAhDQI0Bg6bGkEgQgYEyAwDIGTHkIQECPwH8BAHORCsotNpUAAAAASUVORK5CYII=;" vertex="1" parent="1">
          <mxGeometry x="842" y="480" width="96" height="80" as="geometry" />
        </mxCell>
        <mxCell id="HIfz95Fh0vZ95EKHTSMD-38" value="&lt;font style=&quot;font-size: 20px;&quot;&gt;&lt;b&gt;1&lt;/b&gt;&lt;/font&gt;" style="text;html=1;align=center;verticalAlign=middle;resizable=0;points=[];autosize=1;strokeColor=none;fillColor=none;" vertex="1" parent="1">
          <mxGeometry x="155" y="260" width="30" height="40" as="geometry" />
        </mxCell>
        <mxCell id="HIfz95Fh0vZ95EKHTSMD-39" value="&lt;font style=&quot;font-size: 20px;&quot;&gt;&lt;b&gt;2&lt;/b&gt;&lt;/font&gt;" style="text;html=1;align=center;verticalAlign=middle;resizable=0;points=[];autosize=1;strokeColor=none;fillColor=none;" vertex="1" parent="1">
          <mxGeometry x="155" y="340" width="30" height="40" as="geometry" />
        </mxCell>
        <mxCell id="HIfz95Fh0vZ95EKHTSMD-40" value="&lt;font style=&quot;font-size: 20px;&quot;&gt;&lt;b&gt;3&lt;/b&gt;&lt;/font&gt;" style="text;html=1;align=center;verticalAlign=middle;resizable=0;points=[];autosize=1;strokeColor=none;fillColor=none;" vertex="1" parent="1">
          <mxGeometry x="155" y="420" width="30" height="40" as="geometry" />
        </mxCell>
        <mxCell id="HIfz95Fh0vZ95EKHTSMD-42" value="&lt;font style=&quot;font-size: 20px;&quot;&gt;&lt;b&gt;4&lt;/b&gt;&lt;/font&gt;" style="text;html=1;align=center;verticalAlign=middle;resizable=0;points=[];autosize=1;strokeColor=none;fillColor=none;" vertex="1" parent="1">
          <mxGeometry x="155" y="500" width="30" height="40" as="geometry" />
        </mxCell>
        <mxCell id="HIfz95Fh0vZ95EKHTSMD-43" value="&lt;font style=&quot;font-size: 20px;&quot;&gt;&lt;b&gt;1&lt;/b&gt;&lt;/font&gt;" style="text;html=1;align=center;verticalAlign=middle;resizable=0;points=[];autosize=1;strokeColor=none;fillColor=none;" vertex="1" parent="1">
          <mxGeometry x="325" y="260" width="30" height="40" as="geometry" />
        </mxCell>
        <mxCell id="HIfz95Fh0vZ95EKHTSMD-44" value="&lt;font style=&quot;font-size: 20px;&quot;&gt;&lt;b&gt;2&lt;/b&gt;&lt;/font&gt;" style="text;html=1;align=center;verticalAlign=middle;resizable=0;points=[];autosize=1;strokeColor=none;fillColor=none;" vertex="1" parent="1">
          <mxGeometry x="325" y="340" width="30" height="40" as="geometry" />
        </mxCell>
        <mxCell id="HIfz95Fh0vZ95EKHTSMD-45" value="&lt;font style=&quot;font-size: 20px;&quot;&gt;&lt;b&gt;3&lt;/b&gt;&lt;/font&gt;" style="text;html=1;align=center;verticalAlign=middle;resizable=0;points=[];autosize=1;strokeColor=none;fillColor=none;" vertex="1" parent="1">
          <mxGeometry x="325" y="420" width="30" height="40" as="geometry" />
        </mxCell>
        <mxCell id="HIfz95Fh0vZ95EKHTSMD-46" value="&lt;font style=&quot;font-size: 20px;&quot;&gt;&lt;b&gt;4&lt;/b&gt;&lt;/font&gt;" style="text;html=1;align=center;verticalAlign=middle;resizable=0;points=[];autosize=1;strokeColor=none;fillColor=none;" vertex="1" parent="1">
          <mxGeometry x="325" y="500" width="30" height="40" as="geometry" />
        </mxCell>
        <mxCell id="HIfz95Fh0vZ95EKHTSMD-60" value="" style="shape=flexArrow;endArrow=classic;html=1;rounded=0;fillColor=#f8cecc;strokeColor=#b85450;" edge="1" parent="1">
          <mxGeometry width="50" height="50" relative="1" as="geometry">
            <mxPoint x="270" y="538.8199999999999" as="sourcePoint" />
            <mxPoint x="240" y="538.8199999999999" as="targetPoint" />
          </mxGeometry>
        </mxCell>
        <mxCell id="HIfz95Fh0vZ95EKHTSMD-62" value="" style="shape=flexArrow;endArrow=classic;html=1;rounded=0;dashed=1;dashPattern=1 4;" edge="1" parent="1">
          <mxGeometry width="50" height="50" relative="1" as="geometry">
            <mxPoint x="440" y="538.8199999999999" as="sourcePoint" />
            <mxPoint x="410" y="538.8199999999999" as="targetPoint" />
          </mxGeometry>
        </mxCell>
        <mxCell id="HIfz95Fh0vZ95EKHTSMD-64" value="" style="curved=1;endArrow=classic;html=1;rounded=0;" edge="1" parent="1">
          <mxGeometry width="50" height="50" relative="1" as="geometry">
            <mxPoint x="600" y="420" as="sourcePoint" />
            <mxPoint x="600" y="410" as="targetPoint" />
            <Array as="points">
              <mxPoint x="590" y="470" />
              <mxPoint x="570" y="410" />
              <mxPoint x="590" y="350" />
            </Array>
          </mxGeometry>
        </mxCell>
        <mxCell id="HIfz95Fh0vZ95EKHTSMD-65" value="&lt;font style=&quot;font-size: 20px;&quot;&gt;&lt;b&gt;1&lt;/b&gt;&lt;/font&gt;" style="text;html=1;align=center;verticalAlign=middle;resizable=0;points=[];autosize=1;strokeColor=none;fillColor=none;" vertex="1" parent="1">
          <mxGeometry x="665" y="500" width="30" height="40" as="geometry" />
        </mxCell>
        <mxCell id="HIfz95Fh0vZ95EKHTSMD-66" value="&lt;font style=&quot;font-size: 20px;&quot;&gt;&lt;b&gt;2&lt;/b&gt;&lt;/font&gt;" style="text;html=1;align=center;verticalAlign=middle;resizable=0;points=[];autosize=1;strokeColor=none;fillColor=none;" vertex="1" parent="1">
          <mxGeometry x="665" y="260" width="30" height="40" as="geometry" />
        </mxCell>
        <mxCell id="HIfz95Fh0vZ95EKHTSMD-67" value="&lt;font style=&quot;font-size: 20px;&quot;&gt;&lt;b&gt;3&lt;/b&gt;&lt;/font&gt;" style="text;html=1;align=center;verticalAlign=middle;resizable=0;points=[];autosize=1;strokeColor=none;fillColor=none;" vertex="1" parent="1">
          <mxGeometry x="665" y="340" width="30" height="40" as="geometry" />
        </mxCell>
        <mxCell id="HIfz95Fh0vZ95EKHTSMD-68" value="&lt;font style=&quot;font-size: 20px;&quot;&gt;&lt;b&gt;4&lt;/b&gt;&lt;/font&gt;" style="text;html=1;align=center;verticalAlign=middle;resizable=0;points=[];autosize=1;strokeColor=none;fillColor=none;" vertex="1" parent="1">
          <mxGeometry x="665" y="420" width="30" height="40" as="geometry" />
        </mxCell>
        <mxCell id="HIfz95Fh0vZ95EKHTSMD-69" value="&lt;font style=&quot;font-size: 20px;&quot;&gt;&lt;b&gt;1&lt;/b&gt;&lt;/font&gt;" style="text;html=1;align=center;verticalAlign=middle;resizable=0;points=[];autosize=1;strokeColor=none;fillColor=none;" vertex="1" parent="1">
          <mxGeometry x="835" y="500" width="30" height="40" as="geometry" />
        </mxCell>
        <mxCell id="HIfz95Fh0vZ95EKHTSMD-70" value="&lt;font style=&quot;font-size: 20px;&quot;&gt;&lt;b&gt;2&lt;/b&gt;&lt;/font&gt;" style="text;html=1;align=center;verticalAlign=middle;resizable=0;points=[];autosize=1;strokeColor=none;fillColor=none;" vertex="1" parent="1">
          <mxGeometry x="835" y="260" width="30" height="40" as="geometry" />
        </mxCell>
        <mxCell id="HIfz95Fh0vZ95EKHTSMD-71" value="&lt;font style=&quot;font-size: 20px;&quot;&gt;&lt;b&gt;3&lt;/b&gt;&lt;/font&gt;" style="text;html=1;align=center;verticalAlign=middle;resizable=0;points=[];autosize=1;strokeColor=none;fillColor=none;" vertex="1" parent="1">
          <mxGeometry x="835" y="340" width="30" height="40" as="geometry" />
        </mxCell>
        <mxCell id="HIfz95Fh0vZ95EKHTSMD-72" value="&lt;font style=&quot;font-size: 20px;&quot;&gt;&lt;b&gt;4&lt;/b&gt;&lt;/font&gt;" style="text;html=1;align=center;verticalAlign=middle;resizable=0;points=[];autosize=1;strokeColor=none;fillColor=none;" vertex="1" parent="1">
          <mxGeometry x="835" y="420" width="30" height="40" as="geometry" />
        </mxCell>
        <mxCell id="HIfz95Fh0vZ95EKHTSMD-73" value="&lt;font style=&quot;font-size: 20px;&quot;&gt;&lt;b&gt;1&lt;/b&gt;&lt;/font&gt;" style="text;html=1;align=center;verticalAlign=middle;resizable=0;points=[];autosize=1;strokeColor=none;fillColor=none;" vertex="1" parent="1">
          <mxGeometry x="495" y="260" width="30" height="40" as="geometry" />
        </mxCell>
        <mxCell id="HIfz95Fh0vZ95EKHTSMD-74" value="&lt;font style=&quot;font-size: 20px;&quot;&gt;&lt;b&gt;2&lt;/b&gt;&lt;/font&gt;" style="text;html=1;align=center;verticalAlign=middle;resizable=0;points=[];autosize=1;strokeColor=none;fillColor=none;" vertex="1" parent="1">
          <mxGeometry x="495" y="340" width="30" height="40" as="geometry" />
        </mxCell>
        <mxCell id="HIfz95Fh0vZ95EKHTSMD-75" value="&lt;font style=&quot;font-size: 20px;&quot;&gt;&lt;b&gt;3&lt;/b&gt;&lt;/font&gt;" style="text;html=1;align=center;verticalAlign=middle;resizable=0;points=[];autosize=1;strokeColor=none;fillColor=none;" vertex="1" parent="1">
          <mxGeometry x="495" y="420" width="30" height="40" as="geometry" />
        </mxCell>
        <mxCell id="HIfz95Fh0vZ95EKHTSMD-76" value="&lt;font style=&quot;font-size: 20px;&quot;&gt;&lt;b&gt;4&lt;/b&gt;&lt;/font&gt;" style="text;html=1;align=center;verticalAlign=middle;resizable=0;points=[];autosize=1;strokeColor=none;fillColor=none;" vertex="1" parent="1">
          <mxGeometry x="495" y="500" width="30" height="40" as="geometry" />
        </mxCell>
        <mxCell id="HIfz95Fh0vZ95EKHTSMD-77" value="" style="shape=flexArrow;endArrow=classic;html=1;rounded=0;dashed=1;dashPattern=1 4;" edge="1" parent="1">
          <mxGeometry width="50" height="50" relative="1" as="geometry">
            <mxPoint x="610" y="539.0899999999999" as="sourcePoint" />
            <mxPoint x="580" y="539.0899999999999" as="targetPoint" />
          </mxGeometry>
        </mxCell>
        <mxCell id="HIfz95Fh0vZ95EKHTSMD-78" value="" style="shape=flexArrow;endArrow=classic;html=1;rounded=0;dashed=1;dashPattern=1 4;" edge="1" parent="1">
          <mxGeometry width="50" height="50" relative="1" as="geometry">
            <mxPoint x="780" y="459.9999999999999" as="sourcePoint" />
            <mxPoint x="750" y="459.9999999999999" as="targetPoint" />
          </mxGeometry>
        </mxCell>
        <mxCell id="HIfz95Fh0vZ95EKHTSMD-79" value="" style="shape=flexArrow;endArrow=classic;html=1;rounded=0;fillColor=#f8cecc;strokeColor=#b85450;" edge="1" parent="1">
          <mxGeometry width="50" height="50" relative="1" as="geometry">
            <mxPoint x="950" y="539.0899999999999" as="sourcePoint" />
            <mxPoint x="920" y="539.0899999999999" as="targetPoint" />
          </mxGeometry>
        </mxCell>
      </root>
    </mxGraphModel>
  </diagram>
</mxfile>
